<ttFont>
    <TTGlyph name="A" xMin="-35" yMin="-12" xMax="660" yMax="679">
      <contour>
        <pt x="-21" y="0" on="1"/>
        <pt x="-35" y="0" on="0"/>
        <pt x="-35" y="8" on="1"/>
        <pt x="-35" y="11" on="0"/>
        <pt x="-34" y="15" on="1"/>
        <pt x="-25" y="65" on="1"/>
        <pt x="-23" y="74" on="0"/>
        <pt x="-16" y="80" on="0"/>
        <pt x="-6" y="79" on="1"/>
        <pt x="55" y="79" on="1"/>
        <pt x="357" y="665" on="1"/>
        <pt x="365" y="679" on="0"/>
        <pt x="380" y="679" on="1"/>
        <pt x="466" y="679" on="1"/>
        <pt x="482" y="679" on="0"/>
        <pt x="484" y="664" on="1"/>
        <pt x="573" y="96" on="1"/>
        <pt x="576" y="76" on="0"/>
        <pt x="586" y="60" on="0"/>
        <pt x="611" y="60" on="0"/>
        <pt x="644" y="73" on="0"/>
        <pt x="651" y="59" on="1"/>
        <pt x="658" y="44" on="1"/>
        <pt x="660" y="40" on="0"/>
        <pt x="660" y="27" on="0"/>
        <pt x="651" y="22" on="1"/>
        <pt x="600" y="-12" on="0"/>
        <pt x="505" y="-12" on="0"/>
        <pt x="473" y="28" on="0"/>
        <pt x="465" y="73" on="1"/>
        <pt x="439" y="214" on="1"/>
        <pt x="216" y="214" on="1"/>
        <pt x="147" y="79" on="1"/>
        <pt x="209" y="79" on="1"/>
        <pt x="219" y="80" on="0"/>
        <pt x="224" y="74" on="0"/>
        <pt x="222" y="65" on="1"/>
        <pt x="212" y="15" on="1"/>
        <pt x="210" y="0" on="0"/>
        <pt x="193" y="0" on="1"/>
      </contour>
      <contour>
        <pt x="430" y="289" on="1"/>
        <pt x="390" y="564" on="1"/>
        <pt x="251" y="289" on="1"/>
      </contour>
    </TTGlyph>
    <TTGlyph name="AE" xMin="-37" yMin="0" xMax="916" yMax="679">
      <contour>
        <pt x="902" y="679" on="1"/>
        <pt x="916" y="679" on="0"/>
        <pt x="916" y="671" on="1"/>
        <pt x="916" y="668" on="0"/>
        <pt x="915" y="664" on="1"/>
        <pt x="892" y="530" on="1"/>
        <pt x="890" y="515" on="0"/>
        <pt x="873" y="515" on="1"/>
        <pt x="819" y="515" on="1"/>
        <pt x="809" y="515" on="0"/>
        <pt x="805" y="521" on="0"/>
        <pt x="807" y="530" on="1"/>
        <pt x="823" y="599" on="1"/>
        <pt x="614" y="599" on="1"/>
        <pt x="577" y="386" on="1"/>
        <pt x="770" y="386" on="1"/>
        <pt x="780" y="386" on="0"/>
        <pt x="785" y="380" on="0"/>
        <pt x="783" y="371" on="1"/>
        <pt x="774" y="323" on="1"/>
        <pt x="772" y="308" on="0"/>
        <pt x="755" y="308" on="1"/>
        <pt x="563" y="308" on="1"/>
        <pt x="522" y="79" on="1"/>
        <pt x="751" y="79" on="1"/>
        <pt x="760" y="148" on="1"/>
        <pt x="762" y="158" on="0"/>
        <pt x="768" y="164" on="0"/>
        <pt x="778" y="164" on="1"/>
        <pt x="832" y="164" on="1"/>
        <pt x="842" y="164" on="0"/>
        <pt x="847" y="158" on="0"/>
        <pt x="845" y="149" on="1"/>
        <pt x="822" y="15" on="1"/>
        <pt x="820" y="0" on="0"/>
        <pt x="803" y="0" on="1"/>
        <pt x="345" y="0" on="1"/>
        <pt x="335" y="0" on="0"/>
        <pt x="330" y="6" on="0"/>
        <pt x="332" y="15" on="1"/>
        <pt x="340" y="65" on="1"/>
        <pt x="342" y="74" on="0"/>
        <pt x="349" y="80" on="0"/>
        <pt x="359" y="79" on="1"/>
        <pt x="411" y="79" on="1"/>
        <pt x="434" y="214" on="1"/>
        <pt x="236" y="214" on="1"/>
        <pt x="142" y="79" on="1"/>
        <pt x="197" y="79" on="1"/>
        <pt x="207" y="80" on="0"/>
        <pt x="212" y="74" on="0"/>
        <pt x="210" y="65" on="1"/>
        <pt x="202" y="15" on="1"/>
        <pt x="200" y="6" on="0"/>
        <pt x="193" y="0" on="0"/>
        <pt x="183" y="0" on="1"/>
        <pt x="-23" y="0" on="1"/>
        <pt x="-37" y="0" on="0"/>
        <pt x="-37" y="8" on="1"/>
        <pt x="-37" y="11" on="0"/>
        <pt x="-36" y="15" on="1"/>
        <pt x="-28" y="65" on="1"/>
        <pt x="-26" y="74" on="0"/>
        <pt x="-19" y="80" on="0"/>
        <pt x="-9" y="79" on="1"/>
        <pt x="41" y="79" on="1"/>
        <pt x="409" y="598" on="1"/>
        <pt x="358" y="598" on="1"/>
        <pt x="348" y="597" on="0"/>
        <pt x="343" y="603" on="0"/>
        <pt x="345" y="612" on="1"/>
        <pt x="353" y="664" on="1"/>
        <pt x="355" y="673" on="0"/>
        <pt x="362" y="679" on="0"/>
        <pt x="372" y="679" on="1"/>
      </contour>
      <contour>
        <pt x="448" y="289" on="1"/>
        <pt x="502" y="599" on="1"/>
        <pt x="284" y="289" on="1"/>
      </contour>
    </TTGlyph>
    <TTGlyph name="AEacute" xMin="-37" yMin="0" xMax="916" yMax="858">
      <contour>
        <pt x="902" y="679" on="1"/>
        <pt x="916" y="679" on="0"/>
        <pt x="916" y="671" on="1"/>
        <pt x="916" y="668" on="0"/>
        <pt x="915" y="664" on="1"/>
        <pt x="892" y="530" on="1"/>
        <pt x="890" y="515" on="0"/>
        <pt x="873" y="515" on="1"/>
        <pt x="819" y="515" on="1"/>
        <pt x="809" y="515" on="0"/>
        <pt x="805" y="521" on="0"/>
        <pt x="807" y="530" on="1"/>
        <pt x="823" y="599" on="1"/>
        <pt x="614" y="599" on="1"/>
        <pt x="577" y="386" on="1"/>
        <pt x="770" y="386" on="1"/>
        <pt x="780" y="386" on="0"/>
        <pt x="785" y="380" on="0"/>
        <pt x="783" y="371" on="1"/>
        <pt x="774" y="323" on="1"/>
        <pt x="772" y="308" on="0"/>
        <pt x="755" y="308" on="1"/>
        <pt x="563" y="308" on="1"/>
        <pt x="522" y="79" on="1"/>
        <pt x="751" y="79" on="1"/>
        <pt x="760" y="148" on="1"/>
        <pt x="762" y="158" on="0"/>
        <pt x="768" y="164" on="0"/>
        <pt x="778" y="164" on="1"/>
        <pt x="832" y="164" on="1"/>
        <pt x="842" y="164" on="0"/>
        <pt x="847" y="158" on="0"/>
        <pt x="845" y="149" on="1"/>
        <pt x="822" y="15" on="1"/>
        <pt x="820" y="0" on="0"/>
        <pt x="803" y="0" on="1"/>
        <pt x="345" y="0" on="1"/>
        <pt x="335" y="0" on="0"/>
        <pt x="330" y="6" on="0"/>
        <pt x="332" y="15" on="1"/>
        <pt x="340" y="65" on="1"/>
        <pt x="342" y="74" on="0"/>
        <pt x="349" y="80" on="0"/>
        <pt x="359" y="79" on="1"/>
        <pt x="411" y="79" on="1"/>
        <pt x="434" y="214" on="1"/>
        <pt x="236" y="214" on="1"/>
        <pt x="142" y="79" on="1"/>
        <pt x="197" y="79" on="1"/>
        <pt x="207" y="80" on="0"/>
        <pt x="212" y="74" on="0"/>
        <pt x="210" y="65" on="1"/>
        <pt x="202" y="15" on="1"/>
        <pt x="200" y="6" on="0"/>
        <pt x="193" y="0" on="0"/>
        <pt x="183" y="0" on="1"/>
        <pt x="-23" y="0" on="1"/>
        <pt x="-37" y="0" on="0"/>
        <pt x="-37" y="8" on="1"/>
        <pt x="-37" y="11" on="0"/>
        <pt x="-36" y="15" on="1"/>
        <pt x="-28" y="65" on="1"/>
        <pt x="-26" y="74" on="0"/>
        <pt x="-19" y="80" on="0"/>
        <pt x="-9" y="79" on="1"/>
        <pt x="41" y="79" on="1"/>
        <pt x="409" y="598" on="1"/>
        <pt x="358" y="598" on="1"/>
        <pt x="348" y="597" on="0"/>
        <pt x="343" y="603" on="0"/>
        <pt x="345" y="612" on="1"/>
        <pt x="353" y="664" on="1"/>
        <pt x="355" y="673" on="0"/>
        <pt x="362" y="679" on="0"/>
        <pt x="372" y="679" on="1"/>
      </contour>
      <contour>
        <pt x="448" y="289" on="1"/>
        <pt x="502" y="599" on="1"/>
        <pt x="284" y="289" on="1"/>
      </contour>
      <contour>
        <pt x="587" y="746" on="1"/>
        <pt x="649" y="844" on="1"/>
        <pt x="657" y="858" on="0"/>
        <pt x="673" y="858" on="1"/>
        <pt x="754" y="858" on="1"/>
        <pt x="762" y="858" on="0"/>
        <pt x="762" y="851" on="0"/>
        <pt x="757" y="846" on="1"/>
        <pt x="670" y="744" on="1"/>
        <pt x="660" y="732" on="0"/>
        <pt x="644" y="732" on="1"/>
        <pt x="593" y="732" on="1"/>
        <pt x="584" y="732" on="0"/>
        <pt x="584" y="741" on="0"/>
      </contour>
    </TTGlyph>
    <TTGlyph name="Aacute" xMin="-35" yMin="-12" xMax="660" yMax="858">
      <contour>
        <pt x="-21" y="0" on="1"/>
        <pt x="-35" y="0" on="0"/>
        <pt x="-35" y="8" on="1"/>
        <pt x="-35" y="11" on="0"/>
        <pt x="-34" y="15" on="1"/>
        <pt x="-25" y="65" on="1"/>
        <pt x="-23" y="74" on="0"/>
        <pt x="-16" y="80" on="0"/>
        <pt x="-6" y="79" on="1"/>
        <pt x="55" y="79" on="1"/>
        <pt x="357" y="665" on="1"/>
        <pt x="365" y="679" on="0"/>
        <pt x="380" y="679" on="1"/>
        <pt x="466" y="679" on="1"/>
        <pt x="482" y="679" on="0"/>
        <pt x="484" y="664" on="1"/>
        <pt x="573" y="96" on="1"/>
        <pt x="576" y="76" on="0"/>
        <pt x="586" y="60" on="0"/>
        <pt x="611" y="60" on="0"/>
        <pt x="644" y="73" on="0"/>
        <pt x="651" y="59" on="1"/>
        <pt x="658" y="44" on="1"/>
        <pt x="660" y="40" on="0"/>
        <pt x="660" y="27" on="0"/>
        <pt x="651" y="22" on="1"/>
        <pt x="600" y="-12" on="0"/>
        <pt x="505" y="-12" on="0"/>
        <pt x="473" y="28" on="0"/>
        <pt x="465" y="73" on="1"/>
        <pt x="439" y="214" on="1"/>
        <pt x="216" y="214" on="1"/>
        <pt x="147" y="79" on="1"/>
        <pt x="209" y="79" on="1"/>
        <pt x="219" y="80" on="0"/>
        <pt x="224" y="74" on="0"/>
        <pt x="222" y="65" on="1"/>
        <pt x="212" y="15" on="1"/>
        <pt x="210" y="0" on="0"/>
        <pt x="193" y="0" on="1"/>
      </contour>
      <contour>
        <pt x="430" y="289" on="1"/>
        <pt x="390" y="564" on="1"/>
        <pt x="251" y="289" on="1"/>
      </contour>
      <contour>
        <pt x="374" y="746" on="1"/>
        <pt x="436" y="844" on="1"/>
        <pt x="444" y="858" on="0"/>
        <pt x="460" y="858" on="1"/>
        <pt x="541" y="858" on="1"/>
        <pt x="549" y="858" on="0"/>
        <pt x="549" y="851" on="0"/>
        <pt x="544" y="846" on="1"/>
        <pt x="457" y="744" on="1"/>
        <pt x="446" y="732" on="0"/>
        <pt x="431" y="732" on="1"/>
        <pt x="380" y="732" on="1"/>
        <pt x="371" y="732" on="0"/>
        <pt x="371" y="741" on="0"/>
      </contour>
    </TTGlyph>
    <TTGlyph name="Abreve" xMin="-35" yMin="-12" xMax="660" yMax="872">
      <contour>
        <pt x="-21" y="0" on="1"/>
        <pt x="-35" y="0" on="0"/>
        <pt x="-35" y="8" on="1"/>
        <pt x="-35" y="11" on="0"/>
        <pt x="-34" y="15" on="1"/>
        <pt x="-25" y="65" on="1"/>
        <pt x="-23" y="74" on="0"/>
        <pt x="-16" y="80" on="0"/>
        <pt x="-6" y="79" on="1"/>
        <pt x="55" y="79" on="1"/>
        <pt x="357" y="665" on="1"/>
        <pt x="365" y="679" on="0"/>
        <pt x="380" y="679" on="1"/>
        <pt x="466" y="679" on="1"/>
        <pt x="482" y="679" on="0"/>
        <pt x="484" y="664" on="1"/>
        <pt x="573" y="96" on="1"/>
        <pt x="576" y="76" on="0"/>
        <pt x="586" y="60" on="0"/>
        <pt x="611" y="60" on="0"/>
        <pt x="644" y="73" on="0"/>
        <pt x="651" y="59" on="1"/>
        <pt x="658" y="44" on="1"/>
        <pt x="660" y="40" on="0"/>
        <pt x="660" y="27" on="0"/>
        <pt x="651" y="22" on="1"/>
        <pt x="600" y="-12" on="0"/>
        <pt x="505" y="-12" on="0"/>
        <pt x="473" y="28" on="0"/>
        <pt x="465" y="73" on="1"/>
        <pt x="439" y="214" on="1"/>
        <pt x="216" y="214" on="1"/>
        <pt x="147" y="79" on="1"/>
        <pt x="209" y="79" on="1"/>
        <pt x="219" y="80" on="0"/>
        <pt x="224" y="74" on="0"/>
        <pt x="222" y="65" on="1"/>
        <pt x="212" y="15" on="1"/>
        <pt x="210" y="0" on="0"/>
        <pt x="193" y="0" on="1"/>
      </contour>
      <contour>
        <pt x="430" y="289" on="1"/>
        <pt x="390" y="564" on="1"/>
        <pt x="251" y="289" on="1"/>
      </contour>
      <contour>
        <pt x="597" y="872" on="1"/>
        <pt x="610" y="872" on="0"/>
        <pt x="610" y="864" on="1"/>
        <pt x="610" y="861" on="0"/>
        <pt x="609" y="857" on="1"/>
        <pt x="585" y="735" on="0"/>
        <pt x="430" y="735" on="1"/>
        <pt x="357" y="735" on="0"/>
        <pt x="280" y="789" on="0"/>
        <pt x="280" y="839" on="1"/>
        <pt x="280" y="863" on="0"/>
        <pt x="289" y="872" on="0"/>
        <pt x="299" y="872" on="1"/>
        <pt x="329" y="872" on="1"/>
        <pt x="338" y="872" on="0"/>
        <pt x="344" y="866" on="0"/>
        <pt x="345" y="856" on="1"/>
        <pt x="346" y="830" on="0"/>
        <pt x="392" y="811" on="0"/>
        <pt x="441" y="811" on="1"/>
        <pt x="527" y="811" on="0"/>
        <pt x="546" y="857" on="1"/>
        <pt x="552" y="872" on="0"/>
        <pt x="568" y="872" on="1"/>
      </contour>
    </TTGlyph>
    <TTGlyph name="Acircumflex" xMin="-35" yMin="-12" xMax="660" yMax="863">
      <contour>
        <pt x="-21" y="0" on="1"/>
        <pt x="-35" y="0" on="0"/>
        <pt x="-35" y="8" on="1"/>
        <pt x="-35" y="11" on="0"/>
        <pt x="-34" y="15" on="1"/>
        <pt x="-25" y="65" on="1"/>
        <pt x="-23" y="74" on="0"/>
        <pt x="-16" y="80" on="0"/>
        <pt x="-6" y="79" on="1"/>
        <pt x="55" y="79" on="1"/>
        <pt x="357" y="665" on="1"/>
        <pt x="365" y="679" on="0"/>
        <pt x="380" y="679" on="1"/>
        <pt x="466" y="679" on="1"/>
        <pt x="482" y="679" on="0"/>
        <pt x="484" y="664" on="1"/>
        <pt x="573" y="96" on="1"/>
        <pt x="576" y="76" on="0"/>
        <pt x="586" y="60" on="0"/>
        <pt x="611" y="60" on="0"/>
        <pt x="644" y="73" on="0"/>
        <pt x="651" y="59" on="1"/>
        <pt x="658" y="44" on="1"/>
        <pt x="660" y="40" on="0"/>
        <pt x="660" y="27" on="0"/>
        <pt x="651" y="22" on="1"/>
        <pt x="600" y="-12" on="0"/>
        <pt x="505" y="-12" on="0"/>
        <pt x="473" y="28" on="0"/>
        <pt x="465" y="73" on="1"/>
        <pt x="439" y="214" on="1"/>
        <pt x="216" y="214" on="1"/>
        <pt x="147" y="79" on="1"/>
        <pt x="209" y="79" on="1"/>
        <pt x="219" y="80" on="0"/>
        <pt x="224" y="74" on="0"/>
        <pt x="222" y="65" on="1"/>
        <pt x="212" y="15" on="1"/>
        <pt x="210" y="0" on="0"/>
        <pt x="193" y="0" on="1"/>
      </contour>
      <contour>
        <pt x="430" y="289" on="1"/>
        <pt x="390" y="564" on="1"/>
        <pt x="251" y="289" on="1"/>
      </contour>
      <contour>
        <pt x="340" y="732" on="1"/>
        <pt x="277" y="732" on="1"/>
        <pt x="268" y="732" on="0"/>
        <pt x="268" y="739" on="0"/>
        <pt x="273" y="744" on="1"/>
        <pt x="374" y="851" on="1"/>
        <pt x="384" y="863" on="0"/>
        <pt x="400" y="863" on="1"/>
        <pt x="476" y="863" on="1"/>
        <pt x="490" y="863" on="0"/>
        <pt x="498" y="851" on="1"/>
        <pt x="561" y="744" on="1"/>
        <pt x="563" y="740" on="0"/>
        <pt x="563" y="738" on="1"/>
        <pt x="563" y="732" on="0"/>
        <pt x="553" y="732" on="1"/>
        <pt x="501" y="732" on="1"/>
        <pt x="485" y="732" on="0"/>
        <pt x="478" y="744" on="1"/>
        <pt x="433" y="815" on="1"/>
        <pt x="366" y="744" on="1"/>
        <pt x="356" y="732" on="0"/>
      </contour>
    </TTGlyph>
    <TTGlyph name="Adieresis" xMin="-35" yMin="-12" xMax="660" yMax="860">
      <contour>
        <pt x="-21" y="0" on="1"/>
        <pt x="-35" y="0" on="0"/>
        <pt x="-35" y="8" on="1"/>
        <pt x="-35" y="11" on="0"/>
        <pt x="-34" y="15" on="1"/>
        <pt x="-25" y="65" on="1"/>
        <pt x="-23" y="74" on="0"/>
        <pt x="-16" y="80" on="0"/>
        <pt x="-6" y="79" on="1"/>
        <pt x="55" y="79" on="1"/>
        <pt x="357" y="665" on="1"/>
        <pt x="365" y="679" on="0"/>
        <pt x="380" y="679" on="1"/>
        <pt x="466" y="679" on="1"/>
        <pt x="482" y="679" on="0"/>
        <pt x="484" y="664" on="1"/>
        <pt x="573" y="96" on="1"/>
        <pt x="576" y="76" on="0"/>
        <pt x="586" y="60" on="0"/>
        <pt x="611" y="60" on="0"/>
        <pt x="644" y="73" on="0"/>
        <pt x="651" y="59" on="1"/>
        <pt x="658" y="44" on="1"/>
        <pt x="660" y="40" on="0"/>
        <pt x="660" y="27" on="0"/>
        <pt x="651" y="22" on="1"/>
        <pt x="600" y="-12" on="0"/>
        <pt x="505" y="-12" on="0"/>
        <pt x="473" y="28" on="0"/>
        <pt x="465" y="73" on="1"/>
        <pt x="439" y="214" on="1"/>
        <pt x="216" y="214" on="1"/>
        <pt x="147" y="79" on="1"/>
        <pt x="209" y="79" on="1"/>
        <pt x="219" y="80" on="0"/>
        <pt x="224" y="74" on="0"/>
        <pt x="222" y="65" on="1"/>
        <pt x="212" y="15" on="1"/>
        <pt x="210" y="0" on="0"/>
        <pt x="193" y="0" on="1"/>
      </contour>
      <contour>
        <pt x="430" y="289" on="1"/>
        <pt x="390" y="564" on="1"/>
        <pt x="251" y="289" on="1"/>
      </contour>
      <contour>
        <pt x="596" y="779" on="0"/>
        <pt x="557" y="738" on="0"/>
        <pt x="501" y="738" on="0"/>
        <pt x="470" y="768" on="0"/>
        <pt x="470" y="822" on="0"/>
        <pt x="508" y="860" on="0"/>
        <pt x="566" y="860" on="0"/>
        <pt x="596" y="833" on="0"/>
      </contour>
      <contour>
        <pt x="393" y="779" on="0"/>
        <pt x="354" y="738" on="0"/>
        <pt x="298" y="738" on="0"/>
        <pt x="267" y="768" on="0"/>
        <pt x="267" y="822" on="0"/>
        <pt x="306" y="860" on="0"/>
        <pt x="363" y="860" on="0"/>
        <pt x="393" y="833" on="0"/>
      </contour>
    </TTGlyph>
    <TTGlyph name="Agrave" xMin="-35" yMin="-12" xMax="660" yMax="858">
      <contour>
        <pt x="-21" y="0" on="1"/>
        <pt x="-35" y="0" on="0"/>
        <pt x="-35" y="8" on="1"/>
        <pt x="-35" y="11" on="0"/>
        <pt x="-34" y="15" on="1"/>
        <pt x="-25" y="65" on="1"/>
        <pt x="-23" y="74" on="0"/>
        <pt x="-16" y="80" on="0"/>
        <pt x="-6" y="79" on="1"/>
        <pt x="55" y="79" on="1"/>
        <pt x="357" y="665" on="1"/>
        <pt x="365" y="679" on="0"/>
        <pt x="380" y="679" on="1"/>
        <pt x="466" y="679" on="1"/>
        <pt x="482" y="679" on="0"/>
        <pt x="484" y="664" on="1"/>
        <pt x="573" y="96" on="1"/>
        <pt x="576" y="76" on="0"/>
        <pt x="586" y="60" on="0"/>
        <pt x="611" y="60" on="0"/>
        <pt x="644" y="73" on="0"/>
        <pt x="651" y="59" on="1"/>
        <pt x="658" y="44" on="1"/>
        <pt x="660" y="40" on="0"/>
        <pt x="660" y="27" on="0"/>
        <pt x="651" y="22" on="1"/>
        <pt x="600" y="-12" on="0"/>
        <pt x="505" y="-12" on="0"/>
        <pt x="473" y="28" on="0"/>
        <pt x="465" y="73" on="1"/>
        <pt x="439" y="214" on="1"/>
        <pt x="216" y="214" on="1"/>
        <pt x="147" y="79" on="1"/>
        <pt x="209" y="79" on="1"/>
        <pt x="219" y="80" on="0"/>
        <pt x="224" y="74" on="0"/>
        <pt x="222" y="65" on="1"/>
        <pt x="212" y="15" on="1"/>
        <pt x="210" y="0" on="0"/>
        <pt x="193" y="0" on="1"/>
      </contour>
      <contour>
        <pt x="430" y="289" on="1"/>
        <pt x="390" y="564" on="1"/>
        <pt x="251" y="289" on="1"/>
      </contour>
      <contour>
        <pt x="463" y="740" on="1"/>
        <pt x="463" y="732" on="0"/>
        <pt x="450" y="732" on="1"/>
        <pt x="414" y="732" on="1"/>
        <pt x="399" y="732" on="0"/>
        <pt x="391" y="746" on="1"/>
        <pt x="341" y="844" on="1"/>
        <pt x="339" y="848" on="0"/>
        <pt x="339" y="851" on="1"/>
        <pt x="339" y="858" on="0"/>
        <pt x="350" y="858" on="1"/>
        <pt x="416" y="858" on="1"/>
        <pt x="432" y="858" on="0"/>
        <pt x="436" y="843" on="1"/>
        <pt x="462" y="747" on="1"/>
        <pt x="463" y="742" on="0"/>
      </contour>
    </TTGlyph>
    <TTGlyph name="Amacron" xMin="-35" yMin="-12" xMax="660" yMax="841">
      <contour>
        <pt x="-21" y="0" on="1"/>
        <pt x="-35" y="0" on="0"/>
        <pt x="-35" y="8" on="1"/>
        <pt x="-35" y="11" on="0"/>
        <pt x="-34" y="15" on="1"/>
        <pt x="-25" y="65" on="1"/>
        <pt x="-23" y="74" on="0"/>
        <pt x="-16" y="80" on="0"/>
        <pt x="-6" y="79" on="1"/>
        <pt x="55" y="79" on="1"/>
        <pt x="357" y="665" on="1"/>
        <pt x="365" y="679" on="0"/>
        <pt x="380" y="679" on="1"/>
        <pt x="466" y="679" on="1"/>
        <pt x="482" y="679" on="0"/>
        <pt x="484" y="664" on="1"/>
        <pt x="573" y="96" on="1"/>
        <pt x="576" y="76" on="0"/>
        <pt x="586" y="60" on="0"/>
        <pt x="611" y="60" on="0"/>
        <pt x="644" y="73" on="0"/>
        <pt x="651" y="59" on="1"/>
        <pt x="658" y="44" on="1"/>
        <pt x="660" y="40" on="0"/>
        <pt x="660" y="27" on="0"/>
        <pt x="651" y="22" on="1"/>
        <pt x="600" y="-12" on="0"/>
        <pt x="505" y="-12" on="0"/>
        <pt x="473" y="28" on="0"/>
        <pt x="465" y="73" on="1"/>
        <pt x="439" y="214" on="1"/>
        <pt x="216" y="214" on="1"/>
        <pt x="147" y="79" on="1"/>
        <pt x="209" y="79" on="1"/>
        <pt x="219" y="80" on="0"/>
        <pt x="224" y="74" on="0"/>
        <pt x="222" y="65" on="1"/>
        <pt x="212" y="15" on="1"/>
        <pt x="210" y="0" on="0"/>
        <pt x="193" y="0" on="1"/>
      </contour>
      <contour>
        <pt x="430" y="289" on="1"/>
        <pt x="390" y="564" on="1"/>
        <pt x="251" y="289" on="1"/>
      </contour>
      <contour>
        <pt x="575" y="841" on="1"/>
        <pt x="589" y="841" on="0"/>
        <pt x="589" y="833" on="1"/>
        <pt x="589" y="830" on="0"/>
        <pt x="588" y="826" on="1"/>
        <pt x="580" y="775" on="1"/>
        <pt x="578" y="766" on="0"/>
        <pt x="571" y="760" on="0"/>
        <pt x="561" y="760" on="1"/>
        <pt x="295" y="760" on="1"/>
        <pt x="281" y="760" on="0"/>
        <pt x="281" y="768" on="1"/>
        <pt x="281" y="771" on="0"/>
        <pt x="282" y="775" on="1"/>
        <pt x="290" y="826" on="1"/>
        <pt x="292" y="835" on="0"/>
        <pt x="299" y="841" on="0"/>
        <pt x="309" y="841" on="1"/>
      </contour>
    </TTGlyph>
    <TTGlyph name="Aogonek" xMin="-35" yMin="-231" xMax="662" yMax="679">
      <contour>
        <pt x="-21" y="0" on="1"/>
        <pt x="-35" y="0" on="0"/>
        <pt x="-35" y="8" on="1"/>
        <pt x="-35" y="11" on="0"/>
        <pt x="-34" y="15" on="1"/>
        <pt x="-25" y="65" on="1"/>
        <pt x="-23" y="74" on="0"/>
        <pt x="-16" y="80" on="0"/>
        <pt x="-6" y="79" on="1"/>
        <pt x="55" y="79" on="1"/>
        <pt x="357" y="665" on="1"/>
        <pt x="365" y="679" on="0"/>
        <pt x="380" y="679" on="1"/>
        <pt x="466" y="679" on="1"/>
        <pt x="482" y="679" on="0"/>
        <pt x="484" y="664" on="1"/>
        <pt x="574" y="91" on="1"/>
        <pt x="577" y="71" on="0"/>
        <pt x="587" y="55" on="0"/>
        <pt x="614" y="55" on="0"/>
        <pt x="641" y="68" on="0"/>
        <pt x="649" y="65" on="0"/>
        <pt x="653" y="56" on="1"/>
        <pt x="660" y="42" on="1"/>
        <pt x="662" y="37" on="0"/>
        <pt x="662" y="25" on="0"/>
        <pt x="647" y="14" on="0"/>
        <pt x="633" y="4" on="1"/>
        <pt x="593" y="-23" on="0"/>
        <pt x="529" y="-102" on="0"/>
        <pt x="529" y="-165" on="0"/>
        <pt x="558" y="-165" on="1"/>
        <pt x="575" y="-165" on="0"/>
        <pt x="610" y="-148" on="0"/>
        <pt x="616" y="-162" on="1"/>
        <pt x="623" y="-177" on="1"/>
        <pt x="628" y="-185" on="0"/>
        <pt x="625" y="-194" on="0"/>
        <pt x="617" y="-199" on="1"/>
        <pt x="566" y="-231" on="0"/>
        <pt x="477" y="-231" on="0"/>
        <pt x="438" y="-189" on="0"/>
        <pt x="438" y="-157" on="1"/>
        <pt x="438" y="-85" on="0"/>
        <pt x="532" y="-16" on="1"/>
        <pt x="500" y="-13" on="0"/>
        <pt x="474" y="26" on="0"/>
        <pt x="466" y="68" on="1"/>
        <pt x="439" y="214" on="1"/>
        <pt x="216" y="214" on="1"/>
        <pt x="146" y="79" on="1"/>
        <pt x="208" y="79" on="1"/>
        <pt x="218" y="80" on="0"/>
        <pt x="223" y="74" on="0"/>
        <pt x="221" y="65" on="1"/>
        <pt x="212" y="15" on="1"/>
        <pt x="210" y="0" on="0"/>
        <pt x="193" y="0" on="1"/>
      </contour>
      <contour>
        <pt x="430" y="289" on="1"/>
        <pt x="390" y="564" on="1"/>
        <pt x="251" y="289" on="1"/>
      </contour>
    </TTGlyph>
    <TTGlyph name="Aring" xMin="-35" yMin="-12" xMax="660" yMax="907">
      <contour>
        <pt x="-21" y="0" on="1"/>
        <pt x="-35" y="0" on="0"/>
        <pt x="-35" y="8" on="1"/>
        <pt x="-35" y="11" on="0"/>
        <pt x="-34" y="15" on="1"/>
        <pt x="-25" y="65" on="1"/>
        <pt x="-23" y="74" on="0"/>
        <pt x="-16" y="80" on="0"/>
        <pt x="-6" y="79" on="1"/>
        <pt x="55" y="79" on="1"/>
        <pt x="357" y="665" on="1"/>
        <pt x="365" y="679" on="0"/>
        <pt x="380" y="679" on="1"/>
        <pt x="466" y="679" on="1"/>
        <pt x="482" y="679" on="0"/>
        <pt x="484" y="664" on="1"/>
        <pt x="573" y="96" on="1"/>
        <pt x="576" y="76" on="0"/>
        <pt x="586" y="60" on="0"/>
        <pt x="611" y="60" on="0"/>
        <pt x="644" y="73" on="0"/>
        <pt x="651" y="59" on="1"/>
        <pt x="658" y="44" on="1"/>
        <pt x="660" y="40" on="0"/>
        <pt x="660" y="27" on="0"/>
        <pt x="651" y="22" on="1"/>
        <pt x="600" y="-12" on="0"/>
        <pt x="505" y="-12" on="0"/>
        <pt x="473" y="28" on="0"/>
        <pt x="465" y="73" on="1"/>
        <pt x="439" y="214" on="1"/>
        <pt x="216" y="214" on="1"/>
        <pt x="147" y="79" on="1"/>
        <pt x="209" y="79" on="1"/>
        <pt x="219" y="80" on="0"/>
        <pt x="224" y="74" on="0"/>
        <pt x="222" y="65" on="1"/>
        <pt x="212" y="15" on="1"/>
        <pt x="210" y="0" on="0"/>
        <pt x="193" y="0" on="1"/>
      </contour>
      <contour>
        <pt x="430" y="289" on="1"/>
        <pt x="390" y="564" on="1"/>
        <pt x="251" y="289" on="1"/>
      </contour>
      <contour>
        <pt x="533" y="766" on="0"/>
        <pt x="477" y="706" on="0"/>
        <pt x="386" y="706" on="0"/>
        <pt x="334" y="764" on="0"/>
        <pt x="334" y="849" on="0"/>
        <pt x="391" y="907" on="0"/>
        <pt x="479" y="907" on="0"/>
        <pt x="533" y="851" on="0"/>
      </contour>
      <contour>
        <pt x="434" y="855" on="1"/>
        <pt x="392" y="855" on="0"/>
        <pt x="392" y="807" on="1"/>
        <pt x="392" y="786" on="0"/>
        <pt x="414" y="758" on="0"/>
        <pt x="454" y="758" on="0"/>
        <pt x="477" y="786" on="0"/>
        <pt x="477" y="829" on="0"/>
        <pt x="454" y="855" on="0"/>
      </contour>
    </TTGlyph>
    <TTGlyph name="Aringacute" xMin="-35" yMin="-12" xMax="660" yMax="990">
      <contour>
        <pt x="-21" y="0" on="1"/>
        <pt x="-35" y="0" on="0"/>
        <pt x="-35" y="8" on="1"/>
        <pt x="-35" y="11" on="0"/>
        <pt x="-34" y="15" on="1"/>
        <pt x="-25" y="65" on="1"/>
        <pt x="-23" y="74" on="0"/>
        <pt x="-16" y="80" on="0"/>
        <pt x="-6" y="79" on="1"/>
        <pt x="55" y="79" on="1"/>
        <pt x="359" y="669" on="1"/>
        <pt x="327" y="698" on="0"/>
        <pt x="327" y="790" on="0"/>
        <pt x="384" y="848" on="0"/>
        <pt x="472" y="848" on="0"/>
        <pt x="526" y="792" on="0"/>
        <pt x="526" y="753" on="1"/>
        <pt x="526" y="696" on="0"/>
        <pt x="484" y="665" on="1"/>
        <pt x="573" y="96" on="1"/>
        <pt x="576" y="76" on="0"/>
        <pt x="586" y="60" on="0"/>
        <pt x="611" y="60" on="0"/>
        <pt x="644" y="73" on="0"/>
        <pt x="651" y="59" on="1"/>
        <pt x="658" y="44" on="1"/>
        <pt x="660" y="40" on="0"/>
        <pt x="660" y="27" on="0"/>
        <pt x="651" y="22" on="1"/>
        <pt x="600" y="-12" on="0"/>
        <pt x="505" y="-12" on="0"/>
        <pt x="473" y="28" on="0"/>
        <pt x="465" y="73" on="1"/>
        <pt x="439" y="214" on="1"/>
        <pt x="216" y="214" on="1"/>
        <pt x="147" y="79" on="1"/>
        <pt x="209" y="79" on="1"/>
        <pt x="219" y="80" on="0"/>
        <pt x="224" y="74" on="0"/>
        <pt x="222" y="65" on="1"/>
        <pt x="212" y="15" on="1"/>
        <pt x="210" y="0" on="0"/>
        <pt x="193" y="0" on="1"/>
      </contour>
      <contour>
        <pt x="430" y="289" on="1"/>
        <pt x="390" y="564" on="1"/>
        <pt x="251" y="289" on="1"/>
      </contour>
      <contour>
        <pt x="379" y="878" on="1"/>
        <pt x="441" y="976" on="1"/>
        <pt x="449" y="990" on="0"/>
        <pt x="465" y="990" on="1"/>
        <pt x="546" y="990" on="1"/>
        <pt x="554" y="990" on="0"/>
        <pt x="554" y="983" on="0"/>
        <pt x="549" y="978" on="1"/>
        <pt x="462" y="876" on="1"/>
        <pt x="452" y="864" on="0"/>
        <pt x="436" y="864" on="1"/>
        <pt x="385" y="864" on="1"/>
        <pt x="376" y="864" on="0"/>
        <pt x="376" y="873" on="0"/>
      </contour>
      <contour>
        <pt x="427" y="796" on="1"/>
        <pt x="385" y="796" on="0"/>
        <pt x="385" y="748" on="1"/>
        <pt x="385" y="727" on="0"/>
        <pt x="407" y="699" on="0"/>
        <pt x="447" y="699" on="0"/>
        <pt x="470" y="727" on="0"/>
        <pt x="470" y="770" on="0"/>
        <pt x="447" y="796" on="0"/>
      </contour>
    </TTGlyph>
    <TTGlyph name="Atilde" xMin="-35" yMin="-12" xMax="660" yMax="858">
      <contour>
        <pt x="-21" y="0" on="1"/>
        <pt x="-35" y="0" on="0"/>
        <pt x="-35" y="8" on="1"/>
        <pt x="-35" y="11" on="0"/>
        <pt x="-34" y="15" on="1"/>
        <pt x="-25" y="65" on="1"/>
        <pt x="-23" y="74" on="0"/>
        <pt x="-16" y="80" on="0"/>
        <pt x="-6" y="79" on="1"/>
        <pt x="55" y="79" on="1"/>
        <pt x="357" y="665" on="1"/>
        <pt x="365" y="679" on="0"/>
        <pt x="380" y="679" on="1"/>
        <pt x="466" y="679" on="1"/>
        <pt x="482" y="679" on="0"/>
        <pt x="484" y="664" on="1"/>
        <pt x="573" y="96" on="1"/>
        <pt x="576" y="76" on="0"/>
        <pt x="586" y="60" on="0"/>
        <pt x="611" y="60" on="0"/>
        <pt x="644" y="73" on="0"/>
        <pt x="651" y="59" on="1"/>
        <pt x="658" y="44" on="1"/>
        <pt x="660" y="40" on="0"/>
        <pt x="660" y="27" on="0"/>
        <pt x="651" y="22" on="1"/>
        <pt x="600" y="-12" on="0"/>
        <pt x="505" y="-12" on="0"/>
        <pt x="473" y="28" on="0"/>
        <pt x="465" y="73" on="1"/>
        <pt x="439" y="214" on="1"/>
        <pt x="216" y="214" on="1"/>
        <pt x="147" y="79" on="1"/>
        <pt x="209" y="79" on="1"/>
        <pt x="219" y="80" on="0"/>
        <pt x="224" y="74" on="0"/>
        <pt x="222" y="65" on="1"/>
        <pt x="212" y="15" on="1"/>
        <pt x="210" y="0" on="0"/>
        <pt x="193" y="0" on="1"/>
      </contour>
      <contour>
        <pt x="430" y="289" on="1"/>
        <pt x="390" y="564" on="1"/>
        <pt x="251" y="289" on="1"/>
      </contour>
      <contour>
        <pt x="262" y="817" on="0"/>
        <pt x="314" y="858" on="0"/>
        <pt x="370" y="858" on="0"/>
        <pt x="494" y="817" on="0"/>
        <pt x="517" y="817" on="1"/>
        <pt x="552" y="817" on="0"/>
        <pt x="556" y="844" on="1"/>
        <pt x="558" y="857" on="0"/>
        <pt x="573" y="857" on="1"/>
        <pt x="597" y="857" on="1"/>
        <pt x="607" y="857" on="0"/>
        <pt x="607" y="847" on="1"/>
        <pt x="607" y="744" on="0"/>
        <pt x="513" y="744" on="1"/>
        <pt x="480" y="744" on="0"/>
        <pt x="356" y="782" on="0"/>
        <pt x="341" y="782" on="1"/>
        <pt x="311" y="782" on="0"/>
        <pt x="307" y="760" on="1"/>
        <pt x="306" y="753" on="0"/>
        <pt x="302" y="750" on="0"/>
        <pt x="294" y="750" on="1"/>
        <pt x="263" y="750" on="1"/>
        <pt x="252" y="750" on="0"/>
        <pt x="252" y="759" on="1"/>
        <pt x="252" y="761" on="0"/>
        <pt x="253" y="764" on="1"/>
      </contour>
    </TTGlyph>
    <TTGlyph name="B" xMin="60" yMin="0" xMax="567" yMax="685">
      <contour>
        <pt x="74" y="0" on="1"/>
        <pt x="60" y="0" on="0"/>
        <pt x="60" y="8" on="1"/>
        <pt x="60" y="11" on="0"/>
        <pt x="61" y="15" on="1"/>
        <pt x="161" y="598" on="1"/>
        <pt x="110" y="598" on="1"/>
        <pt x="100" y="597" on="0"/>
        <pt x="95" y="603" on="0"/>
        <pt x="97" y="612" on="1"/>
        <pt x="106" y="664" on="1"/>
        <pt x="108" y="679" on="0"/>
        <pt x="125" y="680" on="1"/>
        <pt x="310" y="685" on="0"/>
        <pt x="334" y="685" on="1"/>
        <pt x="454" y="685" on="0"/>
        <pt x="567" y="605" on="0"/>
        <pt x="567" y="538" on="1"/>
        <pt x="567" y="415" on="0"/>
        <pt x="420" y="367" on="1"/>
        <pt x="485" y="356" on="0"/>
        <pt x="553" y="273" on="0"/>
        <pt x="553" y="217" on="1"/>
        <pt x="553" y="118" on="0"/>
        <pt x="404" y="11" on="0"/>
        <pt x="291" y="4" on="1"/>
        <pt x="234" y="0" on="0"/>
        <pt x="146" y="0" on="1"/>
      </contour>
      <contour>
        <pt x="299" y="315" on="1"/>
        <pt x="227" y="315" on="1"/>
        <pt x="184" y="79" on="1"/>
        <pt x="233" y="79" on="1"/>
        <pt x="318" y="79" on="0"/>
        <pt x="372" y="100" on="1"/>
        <pt x="438" y="124" on="0"/>
        <pt x="438" y="213" on="1"/>
        <pt x="438" y="262" on="0"/>
        <pt x="368" y="315" on="0"/>
      </contour>
      <contour>
        <pt x="313" y="602" on="1"/>
        <pt x="277" y="602" on="1"/>
        <pt x="241" y="398" on="1"/>
        <pt x="279" y="398" on="1"/>
        <pt x="352" y="398" on="0"/>
        <pt x="449" y="456" on="0"/>
        <pt x="449" y="521" on="1"/>
        <pt x="449" y="568" on="0"/>
        <pt x="377" y="602" on="0"/>
      </contour>
    </TTGlyph>
    <TTGlyph name="C" xMin="50" yMin="-12" xMax="645" yMax="696">
      <contour>
        <pt x="339" y="-12" on="1"/>
        <pt x="193" y="-12" on="0"/>
        <pt x="50" y="138" on="0"/>
        <pt x="50" y="272" on="1"/>
        <pt x="50" y="429" on="0"/>
        <pt x="143" y="557" on="1"/>
        <pt x="188" y="619" on="0"/>
        <pt x="339" y="696" on="0"/>
        <pt x="542" y="696" on="0"/>
        <pt x="634" y="644" on="1"/>
        <pt x="645" y="639" on="0"/>
        <pt x="645" y="625" on="0"/>
        <pt x="644" y="621" on="1"/>
        <pt x="622" y="496" on="1"/>
        <pt x="620" y="481" on="0"/>
        <pt x="603" y="481" on="1"/>
        <pt x="549" y="481" on="1"/>
        <pt x="539" y="481" on="0"/>
        <pt x="534" y="487" on="0"/>
        <pt x="536" y="496" on="1"/>
        <pt x="552" y="567" on="1"/>
        <pt x="500" y="608" on="0"/>
        <pt x="353" y="608" on="0"/>
        <pt x="253" y="551" on="0"/>
        <pt x="226" y="502" on="1"/>
        <pt x="173" y="408" on="0"/>
        <pt x="173" y="282" on="1"/>
        <pt x="173" y="187" on="0"/>
        <pt x="261" y="76" on="0"/>
        <pt x="437" y="76" on="0"/>
        <pt x="471" y="105" on="1"/>
        <pt x="480" y="170" on="1"/>
        <pt x="482" y="180" on="0"/>
        <pt x="488" y="186" on="0"/>
        <pt x="498" y="186" on="1"/>
        <pt x="553" y="186" on="1"/>
        <pt x="563" y="186" on="0"/>
        <pt x="568" y="180" on="0"/>
        <pt x="566" y="171" on="1"/>
        <pt x="544" y="46" on="1"/>
        <pt x="540" y="30" on="0"/>
        <pt x="527" y="24" on="1"/>
        <pt x="446" y="-12" on="0"/>
      </contour>
    </TTGlyph>
    <TTGlyph name="Cacute" xMin="50" yMin="-12" xMax="645" yMax="858">
      <contour>
        <pt x="339" y="-12" on="1"/>
        <pt x="193" y="-12" on="0"/>
        <pt x="50" y="138" on="0"/>
        <pt x="50" y="272" on="1"/>
        <pt x="50" y="429" on="0"/>
        <pt x="143" y="557" on="1"/>
        <pt x="188" y="619" on="0"/>
        <pt x="339" y="696" on="0"/>
        <pt x="542" y="696" on="0"/>
        <pt x="634" y="644" on="1"/>
        <pt x="645" y="639" on="0"/>
        <pt x="645" y="625" on="0"/>
        <pt x="644" y="621" on="1"/>
        <pt x="622" y="496" on="1"/>
        <pt x="620" y="481" on="0"/>
        <pt x="603" y="481" on="1"/>
        <pt x="549" y="481" on="1"/>
        <pt x="539" y="481" on="0"/>
        <pt x="534" y="487" on="0"/>
        <pt x="536" y="496" on="1"/>
        <pt x="552" y="567" on="1"/>
        <pt x="500" y="608" on="0"/>
        <pt x="353" y="608" on="0"/>
        <pt x="253" y="551" on="0"/>
        <pt x="226" y="502" on="1"/>
        <pt x="173" y="408" on="0"/>
        <pt x="173" y="282" on="1"/>
        <pt x="173" y="187" on="0"/>
        <pt x="261" y="76" on="0"/>
        <pt x="437" y="76" on="0"/>
        <pt x="471" y="105" on="1"/>
        <pt x="480" y="170" on="1"/>
        <pt x="482" y="180" on="0"/>
        <pt x="488" y="186" on="0"/>
        <pt x="498" y="186" on="1"/>
        <pt x="553" y="186" on="1"/>
        <pt x="563" y="186" on="0"/>
        <pt x="568" y="180" on="0"/>
        <pt x="566" y="171" on="1"/>
        <pt x="544" y="46" on="1"/>
        <pt x="540" y="30" on="0"/>
        <pt x="527" y="24" on="1"/>
        <pt x="446" y="-12" on="0"/>
      </contour>
      <contour>
        <pt x="388" y="746" on="1"/>
        <pt x="450" y="844" on="1"/>
        <pt x="458" y="858" on="0"/>
        <pt x="474" y="858" on="1"/>
        <pt x="555" y="858" on="1"/>
        <pt x="563" y="858" on="0"/>
        <pt x="563" y="851" on="0"/>
        <pt x="558" y="846" on="1"/>
        <pt x="471" y="744" on="1"/>
        <pt x="460" y="732" on="0"/>
        <pt x="445" y="732" on="1"/>
        <pt x="394" y="732" on="1"/>
        <pt x="385" y="732" on="0"/>
        <pt x="385" y="741" on="0"/>
      </contour>
    </TTGlyph>
    <TTGlyph name="Ccaron" xMin="50" yMin="-12" xMax="645" yMax="863">
      <contour>
        <pt x="339" y="-12" on="1"/>
        <pt x="193" y="-12" on="0"/>
        <pt x="50" y="138" on="0"/>
        <pt x="50" y="272" on="1"/>
        <pt x="50" y="429" on="0"/>
        <pt x="143" y="557" on="1"/>
        <pt x="188" y="619" on="0"/>
        <pt x="339" y="696" on="0"/>
        <pt x="542" y="696" on="0"/>
        <pt x="634" y="644" on="1"/>
        <pt x="645" y="639" on="0"/>
        <pt x="645" y="625" on="0"/>
        <pt x="644" y="621" on="1"/>
        <pt x="622" y="496" on="1"/>
        <pt x="620" y="481" on="0"/>
        <pt x="603" y="481" on="1"/>
        <pt x="549" y="481" on="1"/>
        <pt x="539" y="481" on="0"/>
        <pt x="534" y="487" on="0"/>
        <pt x="536" y="496" on="1"/>
        <pt x="552" y="567" on="1"/>
        <pt x="500" y="608" on="0"/>
        <pt x="353" y="608" on="0"/>
        <pt x="253" y="551" on="0"/>
        <pt x="226" y="502" on="1"/>
        <pt x="173" y="408" on="0"/>
        <pt x="173" y="282" on="1"/>
        <pt x="173" y="187" on="0"/>
        <pt x="261" y="76" on="0"/>
        <pt x="437" y="76" on="0"/>
        <pt x="471" y="105" on="1"/>
        <pt x="480" y="170" on="1"/>
        <pt x="482" y="180" on="0"/>
        <pt x="488" y="186" on="0"/>
        <pt x="498" y="186" on="1"/>
        <pt x="553" y="186" on="1"/>
        <pt x="563" y="186" on="0"/>
        <pt x="568" y="180" on="0"/>
        <pt x="566" y="171" on="1"/>
        <pt x="544" y="46" on="1"/>
        <pt x="540" y="30" on="0"/>
        <pt x="527" y="24" on="1"/>
        <pt x="446" y="-12" on="0"/>
      </contour>
      <contour>
        <pt x="547" y="863" on="1"/>
        <pt x="606" y="863" on="1"/>
        <pt x="614" y="863" on="0"/>
        <pt x="614" y="856" on="0"/>
        <pt x="610" y="851" on="1"/>
        <pt x="509" y="744" on="1"/>
        <pt x="498" y="732" on="0"/>
        <pt x="483" y="732" on="1"/>
        <pt x="407" y="732" on="1"/>
        <pt x="392" y="732" on="0"/>
        <pt x="385" y="744" on="1"/>
        <pt x="322" y="851" on="1"/>
        <pt x="319" y="855" on="0"/>
        <pt x="319" y="863" on="0"/>
        <pt x="330" y="863" on="1"/>
        <pt x="383" y="863" on="1"/>
        <pt x="399" y="863" on="0"/>
        <pt x="406" y="851" on="1"/>
        <pt x="451" y="780" on="1"/>
        <pt x="521" y="851" on="1"/>
        <pt x="532" y="863" on="0"/>
      </contour>
    </TTGlyph>
    <TTGlyph name="Ccedilla" xMin="50" yMin="-218" xMax="645" yMax="696">
      <contour>
        <pt x="527" y="24" on="1"/>
        <pt x="455" y="-8" on="0"/>
        <pt x="357" y="-12" on="1"/>
        <pt x="341" y="-32" on="1"/>
        <pt x="355" y="-46" on="1"/>
        <pt x="383" y="-76" on="0"/>
        <pt x="383" y="-98" on="1"/>
        <pt x="383" y="-154" on="0"/>
        <pt x="268" y="-214" on="1"/>
        <pt x="262" y="-218" on="0"/>
        <pt x="259" y="-218" on="1"/>
        <pt x="251" y="-218" on="0"/>
        <pt x="237" y="-191" on="0"/>
        <pt x="249" y="-181" on="1"/>
        <pt x="298" y="-146" on="0"/>
        <pt x="298" y="-120" on="1"/>
        <pt x="298" y="-105" on="0"/>
        <pt x="280" y="-87" on="1"/>
        <pt x="271" y="-78" on="1"/>
        <pt x="264" y="-71" on="0"/>
        <pt x="272" y="-61" on="1"/>
        <pt x="314" y="-11" on="1"/>
        <pt x="180" y="-4" on="0"/>
        <pt x="50" y="143" on="0"/>
        <pt x="50" y="272" on="1"/>
        <pt x="50" y="429" on="0"/>
        <pt x="143" y="557" on="1"/>
        <pt x="188" y="619" on="0"/>
        <pt x="339" y="696" on="0"/>
        <pt x="542" y="696" on="0"/>
        <pt x="634" y="644" on="1"/>
        <pt x="645" y="639" on="0"/>
        <pt x="645" y="625" on="0"/>
        <pt x="644" y="621" on="1"/>
        <pt x="622" y="496" on="1"/>
        <pt x="620" y="481" on="0"/>
        <pt x="603" y="481" on="1"/>
        <pt x="549" y="481" on="1"/>
        <pt x="539" y="481" on="0"/>
        <pt x="534" y="487" on="0"/>
        <pt x="536" y="496" on="1"/>
        <pt x="552" y="567" on="1"/>
        <pt x="500" y="608" on="0"/>
        <pt x="353" y="608" on="0"/>
        <pt x="253" y="551" on="0"/>
        <pt x="226" y="502" on="1"/>
        <pt x="173" y="408" on="0"/>
        <pt x="173" y="282" on="1"/>
        <pt x="173" y="187" on="0"/>
        <pt x="261" y="76" on="0"/>
        <pt x="437" y="76" on="0"/>
        <pt x="471" y="105" on="1"/>
        <pt x="480" y="170" on="1"/>
        <pt x="482" y="180" on="0"/>
        <pt x="488" y="186" on="0"/>
        <pt x="498" y="186" on="1"/>
        <pt x="553" y="186" on="1"/>
        <pt x="563" y="186" on="0"/>
        <pt x="568" y="180" on="0"/>
        <pt x="566" y="171" on="1"/>
        <pt x="544" y="46" on="1"/>
        <pt x="540" y="30" on="0"/>
      </contour>
    </TTGlyph>
    <TTGlyph name="Ccircumflex" xMin="50" yMin="-12" xMax="645" yMax="863">
      <contour>
        <pt x="339" y="-12" on="1"/>
        <pt x="193" y="-12" on="0"/>
        <pt x="50" y="138" on="0"/>
        <pt x="50" y="272" on="1"/>
        <pt x="50" y="429" on="0"/>
        <pt x="143" y="557" on="1"/>
        <pt x="188" y="619" on="0"/>
        <pt x="339" y="696" on="0"/>
        <pt x="542" y="696" on="0"/>
        <pt x="634" y="644" on="1"/>
        <pt x="645" y="639" on="0"/>
        <pt x="645" y="625" on="0"/>
        <pt x="644" y="621" on="1"/>
        <pt x="622" y="496" on="1"/>
        <pt x="620" y="481" on="0"/>
        <pt x="603" y="481" on="1"/>
        <pt x="549" y="481" on="1"/>
        <pt x="539" y="481" on="0"/>
        <pt x="534" y="487" on="0"/>
        <pt x="536" y="496" on="1"/>
        <pt x="552" y="567" on="1"/>
        <pt x="500" y="608" on="0"/>
        <pt x="353" y="608" on="0"/>
        <pt x="253" y="551" on="0"/>
        <pt x="226" y="502" on="1"/>
        <pt x="173" y="408" on="0"/>
        <pt x="173" y="282" on="1"/>
        <pt x="173" y="187" on="0"/>
        <pt x="261" y="76" on="0"/>
        <pt x="437" y="76" on="0"/>
        <pt x="471" y="105" on="1"/>
        <pt x="480" y="170" on="1"/>
        <pt x="482" y="180" on="0"/>
        <pt x="488" y="186" on="0"/>
        <pt x="498" y="186" on="1"/>
        <pt x="553" y="186" on="1"/>
        <pt x="563" y="186" on="0"/>
        <pt x="568" y="180" on="0"/>
        <pt x="566" y="171" on="1"/>
        <pt x="544" y="46" on="1"/>
        <pt x="540" y="30" on="0"/>
        <pt x="527" y="24" on="1"/>
        <pt x="446" y="-12" on="0"/>
      </contour>
      <contour>
        <pt x="359" y="732" on="1"/>
        <pt x="296" y="732" on="1"/>
        <pt x="288" y="732" on="0"/>
        <pt x="288" y="739" on="0"/>
        <pt x="292" y="744" on="1"/>
        <pt x="393" y="851" on="1"/>
        <pt x="404" y="863" on="0"/>
        <pt x="419" y="863" on="1"/>
        <pt x="495" y="863" on="1"/>
        <pt x="510" y="863" on="0"/>
        <pt x="517" y="851" on="1"/>
        <pt x="580" y="744" on="1"/>
        <pt x="583" y="740" on="0"/>
        <pt x="583" y="732" on="0"/>
        <pt x="572" y="732" on="1"/>
        <pt x="520" y="732" on="1"/>
        <pt x="504" y="732" on="0"/>
        <pt x="497" y="744" on="1"/>
        <pt x="452" y="815" on="1"/>
        <pt x="385" y="744" on="1"/>
        <pt x="374" y="732" on="0"/>
      </contour>
    </TTGlyph>
    <TTGlyph name="Cdotaccent" xMin="50" yMin="-12" xMax="645" yMax="873">
      <contour>
        <pt x="339" y="-12" on="1"/>
        <pt x="193" y="-12" on="0"/>
        <pt x="50" y="138" on="0"/>
        <pt x="50" y="272" on="1"/>
        <pt x="50" y="429" on="0"/>
        <pt x="143" y="557" on="1"/>
        <pt x="188" y="619" on="0"/>
        <pt x="339" y="696" on="0"/>
        <pt x="542" y="696" on="0"/>
        <pt x="634" y="644" on="1"/>
        <pt x="645" y="639" on="0"/>
        <pt x="645" y="625" on="0"/>
        <pt x="644" y="621" on="1"/>
        <pt x="622" y="496" on="1"/>
        <pt x="620" y="481" on="0"/>
        <pt x="603" y="481" on="1"/>
        <pt x="549" y="481" on="1"/>
        <pt x="539" y="481" on="0"/>
        <pt x="534" y="487" on="0"/>
        <pt x="536" y="496" on="1"/>
        <pt x="552" y="567" on="1"/>
        <pt x="500" y="608" on="0"/>
        <pt x="353" y="608" on="0"/>
        <pt x="253" y="551" on="0"/>
        <pt x="226" y="502" on="1"/>
        <pt x="173" y="408" on="0"/>
        <pt x="173" y="282" on="1"/>
        <pt x="173" y="187" on="0"/>
        <pt x="261" y="76" on="0"/>
        <pt x="437" y="76" on="0"/>
        <pt x="471" y="105" on="1"/>
        <pt x="480" y="170" on="1"/>
        <pt x="482" y="180" on="0"/>
        <pt x="488" y="186" on="0"/>
        <pt x="498" y="186" on="1"/>
        <pt x="553" y="186" on="1"/>
        <pt x="563" y="186" on="0"/>
        <pt x="568" y="180" on="0"/>
        <pt x="566" y="171" on="1"/>
        <pt x="544" y="46" on="1"/>
        <pt x="540" y="30" on="0"/>
        <pt x="527" y="24" on="1"/>
        <pt x="446" y="-12" on="0"/>
      </contour>
      <contour>
        <pt x="521" y="773" on="0"/>
        <pt x="476" y="730" on="0"/>
        <pt x="412" y="730" on="0"/>
        <pt x="376" y="768" on="0"/>
        <pt x="376" y="829" on="0"/>
        <pt x="423" y="873" on="0"/>
        <pt x="485" y="873" on="0"/>
        <pt x="521" y="835" on="0"/>
      </contour>
    </TTGlyph>
    <TTGlyph name="D" xMin="60" yMin="0" xMax="657" yMax="685">
      <contour>
        <pt x="74" y="0" on="1"/>
        <pt x="60" y="0" on="0"/>
        <pt x="60" y="8" on="1"/>
        <pt x="60" y="11" on="0"/>
        <pt x="61" y="15" on="1"/>
        <pt x="161" y="598" on="1"/>
        <pt x="110" y="598" on="1"/>
        <pt x="100" y="597" on="0"/>
        <pt x="95" y="603" on="0"/>
        <pt x="97" y="612" on="1"/>
        <pt x="106" y="664" on="1"/>
        <pt x="108" y="679" on="0"/>
        <pt x="125" y="680" on="1"/>
        <pt x="315" y="685" on="0"/>
        <pt x="401" y="685" on="0"/>
        <pt x="500" y="661" on="0"/>
        <pt x="598" y="606" on="0"/>
        <pt x="657" y="495" on="0"/>
        <pt x="657" y="418" on="1"/>
        <pt x="657" y="227" on="0"/>
        <pt x="427" y="0" on="0"/>
        <pt x="213" y="0" on="1"/>
      </contour>
      <contour>
        <pt x="275" y="602" on="1"/>
        <pt x="184" y="79" on="1"/>
        <pt x="250" y="79" on="1"/>
        <pt x="324" y="79" on="0"/>
        <pt x="437" y="133" on="0"/>
        <pt x="470" y="179" on="1"/>
        <pt x="534" y="270" on="0"/>
        <pt x="534" y="505" on="0"/>
        <pt x="436" y="602" on="0"/>
        <pt x="339" y="602" on="1"/>
      </contour>
    </TTGlyph>
    <TTGlyph name="Dcaron" xMin="60" yMin="0" xMax="657" yMax="863">
      <contour>
        <pt x="74" y="0" on="1"/>
        <pt x="60" y="0" on="0"/>
        <pt x="60" y="8" on="1"/>
        <pt x="60" y="11" on="0"/>
        <pt x="61" y="15" on="1"/>
        <pt x="161" y="598" on="1"/>
        <pt x="110" y="598" on="1"/>
        <pt x="100" y="597" on="0"/>
        <pt x="95" y="603" on="0"/>
        <pt x="97" y="612" on="1"/>
        <pt x="106" y="664" on="1"/>
        <pt x="108" y="679" on="0"/>
        <pt x="125" y="680" on="1"/>
        <pt x="315" y="685" on="0"/>
        <pt x="401" y="685" on="0"/>
        <pt x="500" y="661" on="0"/>
        <pt x="598" y="606" on="0"/>
        <pt x="657" y="495" on="0"/>
        <pt x="657" y="418" on="1"/>
        <pt x="657" y="227" on="0"/>
        <pt x="427" y="0" on="0"/>
        <pt x="213" y="0" on="1"/>
      </contour>
      <contour>
        <pt x="275" y="602" on="1"/>
        <pt x="184" y="79" on="1"/>
        <pt x="250" y="79" on="1"/>
        <pt x="324" y="79" on="0"/>
        <pt x="437" y="133" on="0"/>
        <pt x="470" y="179" on="1"/>
        <pt x="534" y="270" on="0"/>
        <pt x="534" y="505" on="0"/>
        <pt x="436" y="602" on="0"/>
        <pt x="339" y="602" on="1"/>
      </contour>
      <contour>
        <pt x="481" y="863" on="1"/>
        <pt x="540" y="863" on="1"/>
        <pt x="548" y="863" on="0"/>
        <pt x="548" y="856" on="0"/>
        <pt x="544" y="851" on="1"/>
        <pt x="443" y="744" on="1"/>
        <pt x="432" y="732" on="0"/>
        <pt x="417" y="732" on="1"/>
        <pt x="341" y="732" on="1"/>
        <pt x="327" y="732" on="0"/>
        <pt x="319" y="744" on="1"/>
        <pt x="256" y="851" on="1"/>
        <pt x="253" y="855" on="0"/>
        <pt x="253" y="863" on="0"/>
        <pt x="264" y="863" on="1"/>
        <pt x="317" y="863" on="1"/>
        <pt x="333" y="863" on="0"/>
        <pt x="340" y="851" on="1"/>
        <pt x="385" y="780" on="1"/>
        <pt x="455" y="851" on="1"/>
        <pt x="466" y="863" on="0"/>
      </contour>
    </TTGlyph>
    <TTGlyph name="Dcroat" xMin="51" yMin="0" xMax="660" yMax="685">
      <contour>
        <pt x="65" y="314" on="1"/>
        <pt x="51" y="314" on="0"/>
        <pt x="51" y="322" on="1"/>
        <pt x="51" y="325" on="0"/>
        <pt x="52" y="329" on="1"/>
        <pt x="55" y="352" on="1"/>
        <pt x="57" y="361" on="0"/>
        <pt x="64" y="367" on="0"/>
        <pt x="74" y="367" on="1"/>
        <pt x="124" y="367" on="1"/>
        <pt x="165" y="598" on="1"/>
        <pt x="113" y="598" on="1"/>
        <pt x="103" y="597" on="0"/>
        <pt x="98" y="603" on="0"/>
        <pt x="100" y="612" on="1"/>
        <pt x="109" y="664" on="1"/>
        <pt x="111" y="679" on="0"/>
        <pt x="128" y="680" on="1"/>
        <pt x="318" y="685" on="0"/>
        <pt x="404" y="685" on="0"/>
        <pt x="503" y="661" on="0"/>
        <pt x="601" y="606" on="0"/>
        <pt x="660" y="495" on="0"/>
        <pt x="660" y="418" on="1"/>
        <pt x="660" y="227" on="0"/>
        <pt x="430" y="0" on="0"/>
        <pt x="216" y="0" on="1"/>
        <pt x="77" y="0" on="1"/>
        <pt x="67" y="0" on="0"/>
        <pt x="62" y="6" on="0"/>
        <pt x="64" y="15" on="1"/>
        <pt x="115" y="314" on="1"/>
      </contour>
      <contour>
        <pt x="228" y="314" on="1"/>
        <pt x="187" y="79" on="1"/>
        <pt x="253" y="79" on="1"/>
        <pt x="327" y="79" on="0"/>
        <pt x="440" y="133" on="0"/>
        <pt x="472" y="179" on="1"/>
        <pt x="537" y="270" on="0"/>
        <pt x="537" y="505" on="0"/>
        <pt x="439" y="602" on="0"/>
        <pt x="342" y="602" on="1"/>
        <pt x="278" y="602" on="1"/>
        <pt x="237" y="367" on="1"/>
        <pt x="390" y="367" on="1"/>
        <pt x="400" y="367" on="0"/>
        <pt x="405" y="361" on="0"/>
        <pt x="403" y="352" on="1"/>
        <pt x="400" y="329" on="1"/>
        <pt x="398" y="320" on="0"/>
        <pt x="391" y="314" on="0"/>
        <pt x="381" y="314" on="1"/>
      </contour>
    </TTGlyph>
    <TTGlyph name="Delta" xMin="36" yMin="0" xMax="669" yMax="679">
      <contour>
        <pt x="668" y="15" on="1"/>
        <pt x="668" y="0" on="0"/>
        <pt x="653" y="0" on="1"/>
        <pt x="51" y="0" on="1"/>
        <pt x="37" y="0" on="0"/>
        <pt x="37" y="10" on="1"/>
        <pt x="37" y="14" on="0"/>
        <pt x="38" y="18" on="1"/>
        <pt x="281" y="665" on="1"/>
        <pt x="287" y="679" on="0"/>
        <pt x="301" y="679" on="1"/>
        <pt x="404" y="679" on="1"/>
        <pt x="418" y="679" on="0"/>
        <pt x="424" y="665" on="1"/>
        <pt x="666" y="23" on="1"/>
        <pt x="668" y="19" on="0"/>
      </contour>
      <contour>
        <pt x="349" y="583" on="1"/>
        <pt x="168" y="79" on="1"/>
        <pt x="532" y="79" on="1"/>
      </contour>
    </TTGlyph>
    <TTGlyph name="E" xMin="-8" yMin="0" xMax="577" yMax="679">
      <contour>
        <pt x="563" y="679" on="1"/>
        <pt x="577" y="679" on="0"/>
        <pt x="577" y="671" on="1"/>
        <pt x="577" y="668" on="0"/>
        <pt x="576" y="664" on="1"/>
        <pt x="553" y="530" on="1"/>
        <pt x="552" y="521" on="0"/>
        <pt x="544" y="515" on="0"/>
        <pt x="534" y="515" on="1"/>
        <pt x="480" y="515" on="1"/>
        <pt x="470" y="515" on="0"/>
        <pt x="465" y="521" on="0"/>
        <pt x="467" y="530" on="1"/>
        <pt x="483" y="599" on="1"/>
        <pt x="276" y="599" on="1"/>
        <pt x="238" y="386" on="1"/>
        <pt x="431" y="386" on="1"/>
        <pt x="441" y="386" on="0"/>
        <pt x="446" y="380" on="0"/>
        <pt x="444" y="371" on="1"/>
        <pt x="436" y="323" on="1"/>
        <pt x="434" y="308" on="0"/>
        <pt x="417" y="308" on="1"/>
        <pt x="225" y="308" on="1"/>
        <pt x="184" y="79" on="1"/>
        <pt x="413" y="79" on="1"/>
        <pt x="422" y="148" on="1"/>
        <pt x="424" y="158" on="0"/>
        <pt x="430" y="164" on="0"/>
        <pt x="440" y="164" on="1"/>
        <pt x="494" y="164" on="1"/>
        <pt x="504" y="164" on="0"/>
        <pt x="509" y="158" on="0"/>
        <pt x="507" y="149" on="1"/>
        <pt x="483" y="15" on="1"/>
        <pt x="482" y="6" on="0"/>
        <pt x="474" y="0" on="0"/>
        <pt x="464" y="0" on="1"/>
        <pt x="6" y="0" on="1"/>
        <pt x="-8" y="0" on="0"/>
        <pt x="-8" y="8" on="1"/>
        <pt x="-8" y="11" on="0"/>
        <pt x="-7" y="15" on="1"/>
        <pt x="1" y="65" on="1"/>
        <pt x="3" y="74" on="0"/>
        <pt x="10" y="80" on="0"/>
        <pt x="20" y="79" on="1"/>
        <pt x="72" y="79" on="1"/>
        <pt x="162" y="598" on="1"/>
        <pt x="110" y="598" on="1"/>
        <pt x="100" y="597" on="0"/>
        <pt x="95" y="603" on="0"/>
        <pt x="97" y="612" on="1"/>
        <pt x="106" y="664" on="1"/>
        <pt x="108" y="679" on="0"/>
        <pt x="125" y="679" on="1"/>
      </contour>
    </TTGlyph>
    <TTGlyph name="Eacute" xMin="-8" yMin="0" xMax="577" yMax="858">
      <contour>
        <pt x="563" y="679" on="1"/>
        <pt x="577" y="679" on="0"/>
        <pt x="577" y="671" on="1"/>
        <pt x="577" y="668" on="0"/>
        <pt x="576" y="664" on="1"/>
        <pt x="553" y="530" on="1"/>
        <pt x="552" y="521" on="0"/>
        <pt x="544" y="515" on="0"/>
        <pt x="534" y="515" on="1"/>
        <pt x="480" y="515" on="1"/>
        <pt x="470" y="515" on="0"/>
        <pt x="465" y="521" on="0"/>
        <pt x="467" y="530" on="1"/>
        <pt x="483" y="599" on="1"/>
        <pt x="276" y="599" on="1"/>
        <pt x="238" y="386" on="1"/>
        <pt x="431" y="386" on="1"/>
        <pt x="441" y="386" on="0"/>
        <pt x="446" y="380" on="0"/>
        <pt x="444" y="371" on="1"/>
        <pt x="436" y="323" on="1"/>
        <pt x="434" y="308" on="0"/>
        <pt x="417" y="308" on="1"/>
        <pt x="225" y="308" on="1"/>
        <pt x="184" y="79" on="1"/>
        <pt x="413" y="79" on="1"/>
        <pt x="422" y="148" on="1"/>
        <pt x="424" y="158" on="0"/>
        <pt x="430" y="164" on="0"/>
        <pt x="440" y="164" on="1"/>
        <pt x="494" y="164" on="1"/>
        <pt x="504" y="164" on="0"/>
        <pt x="509" y="158" on="0"/>
        <pt x="507" y="149" on="1"/>
        <pt x="483" y="15" on="1"/>
        <pt x="482" y="6" on="0"/>
        <pt x="474" y="0" on="0"/>
        <pt x="464" y="0" on="1"/>
        <pt x="6" y="0" on="1"/>
        <pt x="-8" y="0" on="0"/>
        <pt x="-8" y="8" on="1"/>
        <pt x="-8" y="11" on="0"/>
        <pt x="-7" y="15" on="1"/>
        <pt x="1" y="65" on="1"/>
        <pt x="3" y="74" on="0"/>
        <pt x="10" y="80" on="0"/>
        <pt x="20" y="79" on="1"/>
        <pt x="72" y="79" on="1"/>
        <pt x="162" y="598" on="1"/>
        <pt x="110" y="598" on="1"/>
        <pt x="100" y="597" on="0"/>
        <pt x="95" y="603" on="0"/>
        <pt x="97" y="612" on="1"/>
        <pt x="106" y="664" on="1"/>
        <pt x="108" y="679" on="0"/>
        <pt x="125" y="679" on="1"/>
      </contour>
      <contour>
        <pt x="303" y="746" on="1"/>
        <pt x="365" y="844" on="1"/>
        <pt x="373" y="858" on="0"/>
        <pt x="389" y="858" on="1"/>
        <pt x="470" y="858" on="1"/>
        <pt x="478" y="858" on="0"/>
        <pt x="478" y="851" on="0"/>
        <pt x="473" y="846" on="1"/>
        <pt x="386" y="744" on="1"/>
        <pt x="376" y="732" on="0"/>
        <pt x="360" y="732" on="1"/>
        <pt x="309" y="732" on="1"/>
        <pt x="300" y="732" on="0"/>
        <pt x="300" y="741" on="0"/>
      </contour>
    </TTGlyph>
    <TTGlyph name="Ebreve" xMin="-8" yMin="0" xMax="577" yMax="872">
      <contour>
        <pt x="563" y="679" on="1"/>
        <pt x="577" y="679" on="0"/>
        <pt x="577" y="671" on="1"/>
        <pt x="577" y="668" on="0"/>
        <pt x="576" y="664" on="1"/>
        <pt x="553" y="530" on="1"/>
        <pt x="552" y="521" on="0"/>
        <pt x="544" y="515" on="0"/>
        <pt x="534" y="515" on="1"/>
        <pt x="480" y="515" on="1"/>
        <pt x="470" y="515" on="0"/>
        <pt x="465" y="521" on="0"/>
        <pt x="467" y="530" on="1"/>
        <pt x="483" y="599" on="1"/>
        <pt x="276" y="599" on="1"/>
        <pt x="238" y="386" on="1"/>
        <pt x="431" y="386" on="1"/>
        <pt x="441" y="386" on="0"/>
        <pt x="446" y="380" on="0"/>
        <pt x="444" y="371" on="1"/>
        <pt x="436" y="323" on="1"/>
        <pt x="434" y="308" on="0"/>
        <pt x="417" y="308" on="1"/>
        <pt x="225" y="308" on="1"/>
        <pt x="184" y="79" on="1"/>
        <pt x="413" y="79" on="1"/>
        <pt x="422" y="148" on="1"/>
        <pt x="424" y="158" on="0"/>
        <pt x="430" y="164" on="0"/>
        <pt x="440" y="164" on="1"/>
        <pt x="494" y="164" on="1"/>
        <pt x="504" y="164" on="0"/>
        <pt x="509" y="158" on="0"/>
        <pt x="507" y="149" on="1"/>
        <pt x="483" y="15" on="1"/>
        <pt x="482" y="6" on="0"/>
        <pt x="474" y="0" on="0"/>
        <pt x="464" y="0" on="1"/>
        <pt x="6" y="0" on="1"/>
        <pt x="-8" y="0" on="0"/>
        <pt x="-8" y="8" on="1"/>
        <pt x="-8" y="11" on="0"/>
        <pt x="-7" y="15" on="1"/>
        <pt x="1" y="65" on="1"/>
        <pt x="3" y="74" on="0"/>
        <pt x="10" y="80" on="0"/>
        <pt x="20" y="79" on="1"/>
        <pt x="72" y="79" on="1"/>
        <pt x="162" y="598" on="1"/>
        <pt x="110" y="598" on="1"/>
        <pt x="100" y="597" on="0"/>
        <pt x="95" y="603" on="0"/>
        <pt x="97" y="612" on="1"/>
        <pt x="106" y="664" on="1"/>
        <pt x="108" y="679" on="0"/>
        <pt x="125" y="679" on="1"/>
      </contour>
      <contour>
        <pt x="533" y="872" on="1"/>
        <pt x="546" y="872" on="0"/>
        <pt x="546" y="864" on="1"/>
        <pt x="546" y="861" on="0"/>
        <pt x="545" y="857" on="1"/>
        <pt x="521" y="735" on="0"/>
        <pt x="366" y="735" on="1"/>
        <pt x="293" y="735" on="0"/>
        <pt x="216" y="789" on="0"/>
        <pt x="216" y="839" on="1"/>
        <pt x="216" y="863" on="0"/>
        <pt x="225" y="872" on="0"/>
        <pt x="235" y="872" on="1"/>
        <pt x="265" y="872" on="1"/>
        <pt x="274" y="872" on="0"/>
        <pt x="280" y="866" on="0"/>
        <pt x="281" y="856" on="1"/>
        <pt x="282" y="830" on="0"/>
        <pt x="328" y="811" on="0"/>
        <pt x="377" y="811" on="1"/>
        <pt x="463" y="811" on="0"/>
        <pt x="482" y="857" on="1"/>
        <pt x="488" y="872" on="0"/>
        <pt x="504" y="872" on="1"/>
      </contour>
    </TTGlyph>
    <TTGlyph name="Ecaron" xMin="-8" yMin="0" xMax="577" yMax="863">
      <contour>
        <pt x="563" y="679" on="1"/>
        <pt x="577" y="679" on="0"/>
        <pt x="577" y="671" on="1"/>
        <pt x="577" y="668" on="0"/>
        <pt x="576" y="664" on="1"/>
        <pt x="553" y="530" on="1"/>
        <pt x="552" y="521" on="0"/>
        <pt x="544" y="515" on="0"/>
        <pt x="534" y="515" on="1"/>
        <pt x="480" y="515" on="1"/>
        <pt x="470" y="515" on="0"/>
        <pt x="465" y="521" on="0"/>
        <pt x="467" y="530" on="1"/>
        <pt x="483" y="599" on="1"/>
        <pt x="276" y="599" on="1"/>
        <pt x="238" y="386" on="1"/>
        <pt x="431" y="386" on="1"/>
        <pt x="441" y="386" on="0"/>
        <pt x="446" y="380" on="0"/>
        <pt x="444" y="371" on="1"/>
        <pt x="436" y="323" on="1"/>
        <pt x="434" y="308" on="0"/>
        <pt x="417" y="308" on="1"/>
        <pt x="225" y="308" on="1"/>
        <pt x="184" y="79" on="1"/>
        <pt x="413" y="79" on="1"/>
        <pt x="422" y="148" on="1"/>
        <pt x="424" y="158" on="0"/>
        <pt x="430" y="164" on="0"/>
        <pt x="440" y="164" on="1"/>
        <pt x="494" y="164" on="1"/>
        <pt x="504" y="164" on="0"/>
        <pt x="509" y="158" on="0"/>
        <pt x="507" y="149" on="1"/>
        <pt x="483" y="15" on="1"/>
        <pt x="482" y="6" on="0"/>
        <pt x="474" y="0" on="0"/>
        <pt x="464" y="0" on="1"/>
        <pt x="6" y="0" on="1"/>
        <pt x="-8" y="0" on="0"/>
        <pt x="-8" y="8" on="1"/>
        <pt x="-8" y="11" on="0"/>
        <pt x="-7" y="15" on="1"/>
        <pt x="1" y="65" on="1"/>
        <pt x="3" y="74" on="0"/>
        <pt x="10" y="80" on="0"/>
        <pt x="20" y="79" on="1"/>
        <pt x="72" y="79" on="1"/>
        <pt x="162" y="598" on="1"/>
        <pt x="110" y="598" on="1"/>
        <pt x="100" y="597" on="0"/>
        <pt x="95" y="603" on="0"/>
        <pt x="97" y="612" on="1"/>
        <pt x="106" y="664" on="1"/>
        <pt x="108" y="679" on="0"/>
        <pt x="125" y="679" on="1"/>
      </contour>
      <contour>
        <pt x="459" y="863" on="1"/>
        <pt x="518" y="863" on="1"/>
        <pt x="526" y="863" on="0"/>
        <pt x="526" y="856" on="0"/>
        <pt x="522" y="851" on="1"/>
        <pt x="421" y="744" on="1"/>
        <pt x="410" y="732" on="0"/>
        <pt x="395" y="732" on="1"/>
        <pt x="319" y="732" on="1"/>
        <pt x="304" y="732" on="0"/>
        <pt x="297" y="744" on="1"/>
        <pt x="234" y="851" on="1"/>
        <pt x="232" y="855" on="0"/>
        <pt x="232" y="857" on="1"/>
        <pt x="232" y="863" on="0"/>
        <pt x="242" y="863" on="1"/>
        <pt x="295" y="863" on="1"/>
        <pt x="311" y="863" on="0"/>
        <pt x="318" y="851" on="1"/>
        <pt x="363" y="780" on="1"/>
        <pt x="433" y="851" on="1"/>
        <pt x="444" y="863" on="0"/>
      </contour>
    </TTGlyph>
    <TTGlyph name="Ecircumflex" xMin="-8" yMin="0" xMax="577" yMax="863">
      <contour>
        <pt x="563" y="679" on="1"/>
        <pt x="577" y="679" on="0"/>
        <pt x="577" y="671" on="1"/>
        <pt x="577" y="668" on="0"/>
        <pt x="576" y="664" on="1"/>
        <pt x="553" y="530" on="1"/>
        <pt x="552" y="521" on="0"/>
        <pt x="544" y="515" on="0"/>
        <pt x="534" y="515" on="1"/>
        <pt x="480" y="515" on="1"/>
        <pt x="470" y="515" on="0"/>
        <pt x="465" y="521" on="0"/>
        <pt x="467" y="530" on="1"/>
        <pt x="483" y="599" on="1"/>
        <pt x="276" y="599" on="1"/>
        <pt x="238" y="386" on="1"/>
        <pt x="431" y="386" on="1"/>
        <pt x="441" y="386" on="0"/>
        <pt x="446" y="380" on="0"/>
        <pt x="444" y="371" on="1"/>
        <pt x="436" y="323" on="1"/>
        <pt x="434" y="308" on="0"/>
        <pt x="417" y="308" on="1"/>
        <pt x="225" y="308" on="1"/>
        <pt x="184" y="79" on="1"/>
        <pt x="413" y="79" on="1"/>
        <pt x="422" y="148" on="1"/>
        <pt x="424" y="158" on="0"/>
        <pt x="430" y="164" on="0"/>
        <pt x="440" y="164" on="1"/>
        <pt x="494" y="164" on="1"/>
        <pt x="504" y="164" on="0"/>
        <pt x="509" y="158" on="0"/>
        <pt x="507" y="149" on="1"/>
        <pt x="483" y="15" on="1"/>
        <pt x="482" y="6" on="0"/>
        <pt x="474" y="0" on="0"/>
        <pt x="464" y="0" on="1"/>
        <pt x="6" y="0" on="1"/>
        <pt x="-8" y="0" on="0"/>
        <pt x="-8" y="8" on="1"/>
        <pt x="-8" y="11" on="0"/>
        <pt x="-7" y="15" on="1"/>
        <pt x="1" y="65" on="1"/>
        <pt x="3" y="74" on="0"/>
        <pt x="10" y="80" on="0"/>
        <pt x="20" y="79" on="1"/>
        <pt x="72" y="79" on="1"/>
        <pt x="162" y="598" on="1"/>
        <pt x="110" y="598" on="1"/>
        <pt x="100" y="597" on="0"/>
        <pt x="95" y="603" on="0"/>
        <pt x="97" y="612" on="1"/>
        <pt x="106" y="664" on="1"/>
        <pt x="108" y="679" on="0"/>
        <pt x="125" y="679" on="1"/>
      </contour>
      <contour>
        <pt x="288" y="732" on="1"/>
        <pt x="225" y="732" on="1"/>
        <pt x="216" y="732" on="0"/>
        <pt x="216" y="739" on="0"/>
        <pt x="221" y="744" on="1"/>
        <pt x="322" y="851" on="1"/>
        <pt x="332" y="863" on="0"/>
        <pt x="348" y="863" on="1"/>
        <pt x="424" y="863" on="1"/>
        <pt x="438" y="863" on="0"/>
        <pt x="446" y="851" on="1"/>
        <pt x="509" y="744" on="1"/>
        <pt x="511" y="740" on="0"/>
        <pt x="511" y="738" on="1"/>
        <pt x="511" y="732" on="0"/>
        <pt x="501" y="732" on="1"/>
        <pt x="449" y="732" on="1"/>
        <pt x="433" y="732" on="0"/>
        <pt x="426" y="744" on="1"/>
        <pt x="381" y="815" on="1"/>
        <pt x="314" y="744" on="1"/>
        <pt x="304" y="732" on="0"/>
      </contour>
    </TTGlyph>
    <TTGlyph name="Edieresis" xMin="-8" yMin="0" xMax="577" yMax="860">
      <contour>
        <pt x="563" y="679" on="1"/>
        <pt x="577" y="679" on="0"/>
        <pt x="577" y="671" on="1"/>
        <pt x="577" y="668" on="0"/>
        <pt x="576" y="664" on="1"/>
        <pt x="553" y="530" on="1"/>
        <pt x="552" y="521" on="0"/>
        <pt x="544" y="515" on="0"/>
        <pt x="534" y="515" on="1"/>
        <pt x="480" y="515" on="1"/>
        <pt x="470" y="515" on="0"/>
        <pt x="465" y="521" on="0"/>
        <pt x="467" y="530" on="1"/>
        <pt x="483" y="599" on="1"/>
        <pt x="276" y="599" on="1"/>
        <pt x="238" y="386" on="1"/>
        <pt x="431" y="386" on="1"/>
        <pt x="441" y="386" on="0"/>
        <pt x="446" y="380" on="0"/>
        <pt x="444" y="371" on="1"/>
        <pt x="436" y="323" on="1"/>
        <pt x="434" y="308" on="0"/>
        <pt x="417" y="308" on="1"/>
        <pt x="225" y="308" on="1"/>
        <pt x="184" y="79" on="1"/>
        <pt x="413" y="79" on="1"/>
        <pt x="422" y="148" on="1"/>
        <pt x="424" y="158" on="0"/>
        <pt x="430" y="164" on="0"/>
        <pt x="440" y="164" on="1"/>
        <pt x="494" y="164" on="1"/>
        <pt x="504" y="164" on="0"/>
        <pt x="509" y="158" on="0"/>
        <pt x="507" y="149" on="1"/>
        <pt x="483" y="15" on="1"/>
        <pt x="482" y="6" on="0"/>
        <pt x="474" y="0" on="0"/>
        <pt x="464" y="0" on="1"/>
        <pt x="6" y="0" on="1"/>
        <pt x="-8" y="0" on="0"/>
        <pt x="-8" y="8" on="1"/>
        <pt x="-8" y="11" on="0"/>
        <pt x="-7" y="15" on="1"/>
        <pt x="1" y="65" on="1"/>
        <pt x="3" y="74" on="0"/>
        <pt x="10" y="80" on="0"/>
        <pt x="20" y="79" on="1"/>
        <pt x="72" y="79" on="1"/>
        <pt x="162" y="598" on="1"/>
        <pt x="110" y="598" on="1"/>
        <pt x="100" y="597" on="0"/>
        <pt x="95" y="603" on="0"/>
        <pt x="97" y="612" on="1"/>
        <pt x="106" y="664" on="1"/>
        <pt x="108" y="679" on="0"/>
        <pt x="125" y="679" on="1"/>
      </contour>
      <contour>
        <pt x="535" y="779" on="0"/>
        <pt x="496" y="738" on="0"/>
        <pt x="440" y="738" on="0"/>
        <pt x="409" y="768" on="0"/>
        <pt x="409" y="822" on="0"/>
        <pt x="448" y="860" on="0"/>
        <pt x="505" y="860" on="0"/>
        <pt x="535" y="833" on="0"/>
      </contour>
      <contour>
        <pt x="332" y="779" on="0"/>
        <pt x="293" y="738" on="0"/>
        <pt x="237" y="738" on="0"/>
        <pt x="206" y="768" on="0"/>
        <pt x="206" y="822" on="0"/>
        <pt x="244" y="860" on="0"/>
        <pt x="302" y="860" on="0"/>
        <pt x="332" y="833" on="0"/>
      </contour>
    </TTGlyph>
    <TTGlyph name="Edotaccent" xMin="-8" yMin="0" xMax="577" yMax="873">
      <contour>
        <pt x="563" y="679" on="1"/>
        <pt x="577" y="679" on="0"/>
        <pt x="577" y="671" on="1"/>
        <pt x="577" y="668" on="0"/>
        <pt x="576" y="664" on="1"/>
        <pt x="553" y="530" on="1"/>
        <pt x="552" y="521" on="0"/>
        <pt x="544" y="515" on="0"/>
        <pt x="534" y="515" on="1"/>
        <pt x="480" y="515" on="1"/>
        <pt x="470" y="515" on="0"/>
        <pt x="465" y="521" on="0"/>
        <pt x="467" y="530" on="1"/>
        <pt x="483" y="599" on="1"/>
        <pt x="276" y="599" on="1"/>
        <pt x="238" y="386" on="1"/>
        <pt x="431" y="386" on="1"/>
        <pt x="441" y="386" on="0"/>
        <pt x="446" y="380" on="0"/>
        <pt x="444" y="371" on="1"/>
        <pt x="436" y="323" on="1"/>
        <pt x="434" y="308" on="0"/>
        <pt x="417" y="308" on="1"/>
        <pt x="225" y="308" on="1"/>
        <pt x="184" y="79" on="1"/>
        <pt x="413" y="79" on="1"/>
        <pt x="422" y="148" on="1"/>
        <pt x="424" y="158" on="0"/>
        <pt x="430" y="164" on="0"/>
        <pt x="440" y="164" on="1"/>
        <pt x="494" y="164" on="1"/>
        <pt x="504" y="164" on="0"/>
        <pt x="509" y="158" on="0"/>
        <pt x="507" y="149" on="1"/>
        <pt x="483" y="15" on="1"/>
        <pt x="482" y="6" on="0"/>
        <pt x="474" y="0" on="0"/>
        <pt x="464" y="0" on="1"/>
        <pt x="6" y="0" on="1"/>
        <pt x="-8" y="0" on="0"/>
        <pt x="-8" y="8" on="1"/>
        <pt x="-8" y="11" on="0"/>
        <pt x="-7" y="15" on="1"/>
        <pt x="1" y="65" on="1"/>
        <pt x="3" y="74" on="0"/>
        <pt x="10" y="80" on="0"/>
        <pt x="20" y="79" on="1"/>
        <pt x="72" y="79" on="1"/>
        <pt x="162" y="598" on="1"/>
        <pt x="110" y="598" on="1"/>
        <pt x="100" y="597" on="0"/>
        <pt x="95" y="603" on="0"/>
        <pt x="97" y="612" on="1"/>
        <pt x="106" y="664" on="1"/>
        <pt x="108" y="679" on="0"/>
        <pt x="125" y="679" on="1"/>
      </contour>
      <contour>
        <pt x="441" y="773" on="0"/>
        <pt x="396" y="730" on="0"/>
        <pt x="332" y="730" on="0"/>
        <pt x="296" y="768" on="0"/>
        <pt x="296" y="829" on="0"/>
        <pt x="343" y="873" on="0"/>
        <pt x="405" y="873" on="0"/>
        <pt x="441" y="835" on="0"/>
      </contour>
    </TTGlyph>
    <TTGlyph name="Egrave" xMin="-8" yMin="0" xMax="577" yMax="858">
      <contour>
        <pt x="563" y="679" on="1"/>
        <pt x="577" y="679" on="0"/>
        <pt x="577" y="671" on="1"/>
        <pt x="577" y="668" on="0"/>
        <pt x="576" y="664" on="1"/>
        <pt x="553" y="530" on="1"/>
        <pt x="552" y="521" on="0"/>
        <pt x="544" y="515" on="0"/>
        <pt x="534" y="515" on="1"/>
        <pt x="480" y="515" on="1"/>
        <pt x="470" y="515" on="0"/>
        <pt x="465" y="521" on="0"/>
        <pt x="467" y="530" on="1"/>
        <pt x="483" y="599" on="1"/>
        <pt x="276" y="599" on="1"/>
        <pt x="238" y="386" on="1"/>
        <pt x="431" y="386" on="1"/>
        <pt x="441" y="386" on="0"/>
        <pt x="446" y="380" on="0"/>
        <pt x="444" y="371" on="1"/>
        <pt x="436" y="323" on="1"/>
        <pt x="434" y="308" on="0"/>
        <pt x="417" y="308" on="1"/>
        <pt x="225" y="308" on="1"/>
        <pt x="184" y="79" on="1"/>
        <pt x="413" y="79" on="1"/>
        <pt x="422" y="148" on="1"/>
        <pt x="424" y="158" on="0"/>
        <pt x="430" y="164" on="0"/>
        <pt x="440" y="164" on="1"/>
        <pt x="494" y="164" on="1"/>
        <pt x="504" y="164" on="0"/>
        <pt x="509" y="158" on="0"/>
        <pt x="507" y="149" on="1"/>
        <pt x="483" y="15" on="1"/>
        <pt x="482" y="6" on="0"/>
        <pt x="474" y="0" on="0"/>
        <pt x="464" y="0" on="1"/>
        <pt x="6" y="0" on="1"/>
        <pt x="-8" y="0" on="0"/>
        <pt x="-8" y="8" on="1"/>
        <pt x="-8" y="11" on="0"/>
        <pt x="-7" y="15" on="1"/>
        <pt x="1" y="65" on="1"/>
        <pt x="3" y="74" on="0"/>
        <pt x="10" y="80" on="0"/>
        <pt x="20" y="79" on="1"/>
        <pt x="72" y="79" on="1"/>
        <pt x="162" y="598" on="1"/>
        <pt x="110" y="598" on="1"/>
        <pt x="100" y="597" on="0"/>
        <pt x="95" y="603" on="0"/>
        <pt x="97" y="612" on="1"/>
        <pt x="106" y="664" on="1"/>
        <pt x="108" y="679" on="0"/>
        <pt x="125" y="679" on="1"/>
      </contour>
      <contour>
        <pt x="407" y="740" on="1"/>
        <pt x="407" y="732" on="0"/>
        <pt x="394" y="732" on="1"/>
        <pt x="358" y="732" on="1"/>
        <pt x="343" y="732" on="0"/>
        <pt x="335" y="746" on="1"/>
        <pt x="285" y="844" on="1"/>
        <pt x="283" y="848" on="0"/>
        <pt x="283" y="851" on="1"/>
        <pt x="283" y="858" on="0"/>
        <pt x="294" y="858" on="1"/>
        <pt x="360" y="858" on="1"/>
        <pt x="376" y="858" on="0"/>
        <pt x="380" y="843" on="1"/>
        <pt x="406" y="747" on="1"/>
        <pt x="407" y="742" on="0"/>
      </contour>
    </TTGlyph>
    <TTGlyph name="Emacron" xMin="-8" yMin="0" xMax="577" yMax="841">
      <contour>
        <pt x="563" y="679" on="1"/>
        <pt x="577" y="679" on="0"/>
        <pt x="577" y="671" on="1"/>
        <pt x="577" y="668" on="0"/>
        <pt x="576" y="664" on="1"/>
        <pt x="553" y="530" on="1"/>
        <pt x="552" y="521" on="0"/>
        <pt x="544" y="515" on="0"/>
        <pt x="534" y="515" on="1"/>
        <pt x="480" y="515" on="1"/>
        <pt x="470" y="515" on="0"/>
        <pt x="465" y="521" on="0"/>
        <pt x="467" y="530" on="1"/>
        <pt x="483" y="599" on="1"/>
        <pt x="276" y="599" on="1"/>
        <pt x="238" y="386" on="1"/>
        <pt x="431" y="386" on="1"/>
        <pt x="441" y="386" on="0"/>
        <pt x="446" y="380" on="0"/>
        <pt x="444" y="371" on="1"/>
        <pt x="436" y="323" on="1"/>
        <pt x="434" y="308" on="0"/>
        <pt x="417" y="308" on="1"/>
        <pt x="225" y="308" on="1"/>
        <pt x="184" y="79" on="1"/>
        <pt x="413" y="79" on="1"/>
        <pt x="422" y="148" on="1"/>
        <pt x="424" y="158" on="0"/>
        <pt x="430" y="164" on="0"/>
        <pt x="440" y="164" on="1"/>
        <pt x="494" y="164" on="1"/>
        <pt x="504" y="164" on="0"/>
        <pt x="509" y="158" on="0"/>
        <pt x="507" y="149" on="1"/>
        <pt x="483" y="15" on="1"/>
        <pt x="482" y="6" on="0"/>
        <pt x="474" y="0" on="0"/>
        <pt x="464" y="0" on="1"/>
        <pt x="6" y="0" on="1"/>
        <pt x="-8" y="0" on="0"/>
        <pt x="-8" y="8" on="1"/>
        <pt x="-8" y="11" on="0"/>
        <pt x="-7" y="15" on="1"/>
        <pt x="1" y="65" on="1"/>
        <pt x="3" y="74" on="0"/>
        <pt x="10" y="80" on="0"/>
        <pt x="20" y="79" on="1"/>
        <pt x="72" y="79" on="1"/>
        <pt x="162" y="598" on="1"/>
        <pt x="110" y="598" on="1"/>
        <pt x="100" y="597" on="0"/>
        <pt x="95" y="603" on="0"/>
        <pt x="97" y="612" on="1"/>
        <pt x="106" y="664" on="1"/>
        <pt x="108" y="679" on="0"/>
        <pt x="125" y="679" on="1"/>
      </contour>
      <contour>
        <pt x="521" y="841" on="1"/>
        <pt x="535" y="841" on="0"/>
        <pt x="535" y="833" on="1"/>
        <pt x="535" y="830" on="0"/>
        <pt x="534" y="826" on="1"/>
        <pt x="526" y="775" on="1"/>
        <pt x="524" y="766" on="0"/>
        <pt x="517" y="760" on="0"/>
        <pt x="507" y="760" on="1"/>
        <pt x="241" y="760" on="1"/>
        <pt x="227" y="760" on="0"/>
        <pt x="227" y="768" on="1"/>
        <pt x="227" y="771" on="0"/>
        <pt x="228" y="775" on="1"/>
        <pt x="236" y="826" on="1"/>
        <pt x="238" y="835" on="0"/>
        <pt x="245" y="841" on="0"/>
        <pt x="255" y="841" on="1"/>
      </contour>
    </TTGlyph>
    <TTGlyph name="Eng" xMin="-8" yMin="-240" xMax="780" yMax="679">
      <contour>
        <pt x="766" y="679" on="1"/>
        <pt x="780" y="679" on="0"/>
        <pt x="780" y="671" on="1"/>
        <pt x="780" y="668" on="0"/>
        <pt x="779" y="664" on="1"/>
        <pt x="771" y="612" on="1"/>
        <pt x="769" y="603" on="0"/>
        <pt x="762" y="597" on="0"/>
        <pt x="752" y="598" on="1"/>
        <pt x="701" y="599" on="1"/>
        <pt x="587" y="-42" on="1"/>
        <pt x="569" y="-140" on="0"/>
        <pt x="474" y="-240" on="0"/>
        <pt x="378" y="-240" on="1"/>
        <pt x="306" y="-240" on="0"/>
        <pt x="244" y="-214" on="1"/>
        <pt x="230" y="-208" on="0"/>
        <pt x="235" y="-193" on="1"/>
        <pt x="255" y="-142" on="1"/>
        <pt x="261" y="-128" on="0"/>
        <pt x="276" y="-133" on="1"/>
        <pt x="323" y="-150" on="0"/>
        <pt x="420" y="-150" on="0"/>
        <pt x="467" y="-91" on="0"/>
        <pt x="480" y="-18" on="1"/>
        <pt x="485" y="13" on="1"/>
        <pt x="237" y="514" on="1"/>
        <pt x="159" y="79" on="1"/>
        <pt x="240" y="80" on="1"/>
        <pt x="250" y="81" on="0"/>
        <pt x="255" y="75" on="0"/>
        <pt x="253" y="66" on="1"/>
        <pt x="245" y="15" on="1"/>
        <pt x="243" y="6" on="0"/>
        <pt x="236" y="0" on="0"/>
        <pt x="226" y="0" on="1"/>
        <pt x="6" y="0" on="1"/>
        <pt x="-8" y="0" on="0"/>
        <pt x="-8" y="8" on="1"/>
        <pt x="-8" y="11" on="0"/>
        <pt x="-7" y="15" on="1"/>
        <pt x="2" y="66" on="1"/>
        <pt x="4" y="75" on="0"/>
        <pt x="11" y="81" on="0"/>
        <pt x="21" y="80" on="1"/>
        <pt x="73" y="80" on="1"/>
        <pt x="163" y="599" on="1"/>
        <pt x="110" y="598" on="1"/>
        <pt x="100" y="597" on="0"/>
        <pt x="95" y="603" on="0"/>
        <pt x="97" y="612" on="1"/>
        <pt x="106" y="664" on="1"/>
        <pt x="108" y="679" on="0"/>
        <pt x="125" y="679" on="1"/>
        <pt x="270" y="679" on="1"/>
        <pt x="285" y="679" on="0"/>
        <pt x="293" y="665" on="1"/>
        <pt x="534" y="161" on="1"/>
        <pt x="614" y="599" on="1"/>
        <pt x="564" y="598" on="1"/>
        <pt x="554" y="597" on="0"/>
        <pt x="549" y="603" on="0"/>
        <pt x="551" y="612" on="1"/>
        <pt x="559" y="664" on="1"/>
        <pt x="561" y="673" on="0"/>
        <pt x="568" y="679" on="0"/>
        <pt x="578" y="679" on="1"/>
      </contour>
    </TTGlyph>
    <TTGlyph name="Eogonek" xMin="-8" yMin="-231" xMax="577" yMax="679">
      <contour>
        <pt x="563" y="679" on="1"/>
        <pt x="577" y="679" on="0"/>
        <pt x="577" y="671" on="1"/>
        <pt x="577" y="668" on="0"/>
        <pt x="576" y="664" on="1"/>
        <pt x="553" y="530" on="1"/>
        <pt x="552" y="521" on="0"/>
        <pt x="544" y="515" on="0"/>
        <pt x="534" y="515" on="1"/>
        <pt x="480" y="515" on="1"/>
        <pt x="470" y="515" on="0"/>
        <pt x="465" y="521" on="0"/>
        <pt x="467" y="530" on="1"/>
        <pt x="483" y="599" on="1"/>
        <pt x="276" y="599" on="1"/>
        <pt x="238" y="386" on="1"/>
        <pt x="431" y="386" on="1"/>
        <pt x="441" y="386" on="0"/>
        <pt x="446" y="380" on="0"/>
        <pt x="444" y="371" on="1"/>
        <pt x="436" y="323" on="1"/>
        <pt x="434" y="308" on="0"/>
        <pt x="417" y="308" on="1"/>
        <pt x="225" y="308" on="1"/>
        <pt x="184" y="79" on="1"/>
        <pt x="413" y="79" on="1"/>
        <pt x="422" y="148" on="1"/>
        <pt x="424" y="158" on="0"/>
        <pt x="430" y="164" on="0"/>
        <pt x="440" y="164" on="1"/>
        <pt x="494" y="164" on="1"/>
        <pt x="504" y="164" on="0"/>
        <pt x="509" y="158" on="0"/>
        <pt x="507" y="149" on="1"/>
        <pt x="483" y="15" on="1"/>
        <pt x="482" y="6" on="0"/>
        <pt x="474" y="0" on="0"/>
        <pt x="464" y="0" on="1"/>
        <pt x="436" y="0" on="1"/>
        <pt x="395" y="-23" on="0"/>
        <pt x="328" y="-102" on="0"/>
        <pt x="328" y="-165" on="0"/>
        <pt x="357" y="-165" on="1"/>
        <pt x="374" y="-165" on="0"/>
        <pt x="409" y="-148" on="0"/>
        <pt x="415" y="-162" on="1"/>
        <pt x="422" y="-177" on="1"/>
        <pt x="427" y="-185" on="0"/>
        <pt x="424" y="-194" on="0"/>
        <pt x="416" y="-199" on="1"/>
        <pt x="365" y="-231" on="0"/>
        <pt x="276" y="-231" on="0"/>
        <pt x="237" y="-189" on="0"/>
        <pt x="237" y="-157" on="1"/>
        <pt x="237" y="-73" on="0"/>
        <pt x="357" y="0" on="1"/>
        <pt x="6" y="0" on="1"/>
        <pt x="-8" y="0" on="0"/>
        <pt x="-8" y="8" on="1"/>
        <pt x="-8" y="11" on="0"/>
        <pt x="-7" y="15" on="1"/>
        <pt x="1" y="65" on="1"/>
        <pt x="3" y="74" on="0"/>
        <pt x="10" y="80" on="0"/>
        <pt x="20" y="79" on="1"/>
        <pt x="72" y="79" on="1"/>
        <pt x="162" y="598" on="1"/>
        <pt x="110" y="598" on="1"/>
        <pt x="100" y="597" on="0"/>
        <pt x="95" y="603" on="0"/>
        <pt x="97" y="612" on="1"/>
        <pt x="106" y="664" on="1"/>
        <pt x="108" y="679" on="0"/>
        <pt x="125" y="679" on="1"/>
      </contour>
    </TTGlyph>
    <TTGlyph name="Eth" xMin="51" yMin="0" xMax="660" yMax="685">
      <contour>
        <pt x="65" y="314" on="1"/>
        <pt x="51" y="314" on="0"/>
        <pt x="51" y="322" on="1"/>
        <pt x="51" y="325" on="0"/>
        <pt x="52" y="329" on="1"/>
        <pt x="55" y="352" on="1"/>
        <pt x="57" y="361" on="0"/>
        <pt x="64" y="367" on="0"/>
        <pt x="74" y="367" on="1"/>
        <pt x="124" y="367" on="1"/>
        <pt x="165" y="598" on="1"/>
        <pt x="113" y="598" on="1"/>
        <pt x="103" y="597" on="0"/>
        <pt x="98" y="603" on="0"/>
        <pt x="100" y="612" on="1"/>
        <pt x="109" y="664" on="1"/>
        <pt x="111" y="679" on="0"/>
        <pt x="128" y="680" on="1"/>
        <pt x="318" y="685" on="0"/>
        <pt x="404" y="685" on="0"/>
        <pt x="503" y="661" on="0"/>
        <pt x="601" y="606" on="0"/>
        <pt x="660" y="495" on="0"/>
        <pt x="660" y="418" on="1"/>
        <pt x="660" y="227" on="0"/>
        <pt x="430" y="0" on="0"/>
        <pt x="216" y="0" on="1"/>
        <pt x="77" y="0" on="1"/>
        <pt x="67" y="0" on="0"/>
        <pt x="62" y="6" on="0"/>
        <pt x="64" y="15" on="1"/>
        <pt x="115" y="314" on="1"/>
      </contour>
      <contour>
        <pt x="228" y="314" on="1"/>
        <pt x="187" y="79" on="1"/>
        <pt x="253" y="79" on="1"/>
        <pt x="327" y="79" on="0"/>
        <pt x="440" y="133" on="0"/>
        <pt x="472" y="179" on="1"/>
        <pt x="537" y="270" on="0"/>
        <pt x="537" y="505" on="0"/>
        <pt x="439" y="602" on="0"/>
        <pt x="342" y="602" on="1"/>
        <pt x="278" y="602" on="1"/>
        <pt x="237" y="367" on="1"/>
        <pt x="390" y="367" on="1"/>
        <pt x="400" y="367" on="0"/>
        <pt x="405" y="361" on="0"/>
        <pt x="403" y="352" on="1"/>
        <pt x="400" y="329" on="1"/>
        <pt x="398" y="320" on="0"/>
        <pt x="391" y="314" on="0"/>
        <pt x="381" y="314" on="1"/>
      </contour>
    </TTGlyph>
    <TTGlyph name="Euro" xMin="5" yMin="-12" xMax="532" yMax="531">
      <contour>
        <pt x="18" y="182" on="1"/>
        <pt x="5" y="182" on="0"/>
        <pt x="5" y="190" on="1"/>
        <pt x="5" y="193" on="0"/>
        <pt x="6" y="197" on="1"/>
        <pt x="13" y="220" on="1"/>
        <pt x="17" y="235" on="0"/>
        <pt x="33" y="235" on="1"/>
        <pt x="79" y="235" on="1"/>
        <pt x="80" y="252" on="0"/>
        <pt x="86" y="274" on="1"/>
        <pt x="43" y="274" on="1"/>
        <pt x="34" y="274" on="0"/>
        <pt x="29" y="280" on="0"/>
        <pt x="32" y="289" on="1"/>
        <pt x="38" y="312" on="1"/>
        <pt x="43" y="327" on="0"/>
        <pt x="59" y="327" on="1"/>
        <pt x="98" y="327" on="1"/>
        <pt x="125" y="429" on="0"/>
        <pt x="275" y="531" on="0"/>
        <pt x="453" y="531" on="0"/>
        <pt x="521" y="492" on="1"/>
        <pt x="534" y="485" on="0"/>
        <pt x="532" y="469" on="1"/>
        <pt x="516" y="375" on="1"/>
        <pt x="514" y="366" on="0"/>
        <pt x="507" y="360" on="0"/>
        <pt x="497" y="360" on="1"/>
        <pt x="448" y="360" on="1"/>
        <pt x="438" y="360" on="0"/>
        <pt x="434" y="366" on="0"/>
        <pt x="436" y="375" on="1"/>
        <pt x="449" y="429" on="1"/>
        <pt x="437" y="441" on="0"/>
        <pt x="379" y="461" on="0"/>
        <pt x="349" y="461" on="1"/>
        <pt x="232" y="461" on="0"/>
        <pt x="198" y="327" on="1"/>
        <pt x="394" y="327" on="1"/>
        <pt x="403" y="327" on="0"/>
        <pt x="408" y="321" on="0"/>
        <pt x="405" y="312" on="1"/>
        <pt x="397" y="289" on="1"/>
        <pt x="392" y="274" on="0"/>
        <pt x="376" y="274" on="1"/>
        <pt x="186" y="274" on="1"/>
        <pt x="182" y="258" on="0"/>
        <pt x="180" y="235" on="1"/>
        <pt x="363" y="235" on="1"/>
        <pt x="372" y="235" on="0"/>
        <pt x="377" y="229" on="0"/>
        <pt x="374" y="220" on="1"/>
        <pt x="367" y="197" on="1"/>
        <pt x="362" y="182" on="0"/>
        <pt x="346" y="182" on="1"/>
        <pt x="177" y="182" on="1"/>
        <pt x="182" y="61" on="0"/>
        <pt x="301" y="61" on="1"/>
        <pt x="352" y="61" on="0"/>
        <pt x="386" y="80" on="1"/>
        <pt x="391" y="136" on="1"/>
        <pt x="393" y="146" on="0"/>
        <pt x="399" y="152" on="0"/>
        <pt x="409" y="152" on="1"/>
        <pt x="460" y="152" on="1"/>
        <pt x="470" y="152" on="0"/>
        <pt x="475" y="146" on="0"/>
        <pt x="473" y="137" on="1"/>
        <pt x="458" y="44" on="1"/>
        <pt x="454" y="28" on="0"/>
        <pt x="441" y="22" on="1"/>
        <pt x="366" y="-12" on="0"/>
        <pt x="284" y="-12" on="1"/>
        <pt x="180" y="-12" on="0"/>
        <pt x="79" y="105" on="0"/>
        <pt x="76" y="182" on="1"/>
      </contour>
    </TTGlyph>
    <TTGlyph name="F" xMin="-8" yMin="0" xMax="587" yMax="679">
      <contour>
        <pt x="573" y="679" on="1"/>
        <pt x="587" y="679" on="0"/>
        <pt x="587" y="671" on="1"/>
        <pt x="587" y="668" on="0"/>
        <pt x="586" y="664" on="1"/>
        <pt x="563" y="530" on="1"/>
        <pt x="562" y="521" on="0"/>
        <pt x="554" y="515" on="0"/>
        <pt x="544" y="515" on="1"/>
        <pt x="490" y="515" on="1"/>
        <pt x="480" y="515" on="0"/>
        <pt x="475" y="521" on="0"/>
        <pt x="477" y="530" on="1"/>
        <pt x="493" y="599" on="1"/>
        <pt x="276" y="599" on="1"/>
        <pt x="238" y="391" on="1"/>
        <pt x="431" y="391" on="1"/>
        <pt x="441" y="391" on="0"/>
        <pt x="446" y="385" on="0"/>
        <pt x="444" y="376" on="1"/>
        <pt x="436" y="328" on="1"/>
        <pt x="434" y="313" on="0"/>
        <pt x="417" y="313" on="1"/>
        <pt x="225" y="313" on="1"/>
        <pt x="183" y="79" on="1"/>
        <pt x="276" y="79" on="1"/>
        <pt x="286" y="80" on="0"/>
        <pt x="291" y="74" on="0"/>
        <pt x="289" y="65" on="1"/>
        <pt x="281" y="15" on="1"/>
        <pt x="279" y="6" on="0"/>
        <pt x="272" y="0" on="0"/>
        <pt x="262" y="0" on="1"/>
        <pt x="6" y="0" on="1"/>
        <pt x="-8" y="0" on="0"/>
        <pt x="-8" y="8" on="1"/>
        <pt x="-8" y="11" on="0"/>
        <pt x="-7" y="15" on="1"/>
        <pt x="1" y="65" on="1"/>
        <pt x="3" y="74" on="0"/>
        <pt x="10" y="80" on="0"/>
        <pt x="20" y="79" on="1"/>
        <pt x="71" y="79" on="1"/>
        <pt x="162" y="598" on="1"/>
        <pt x="110" y="598" on="1"/>
        <pt x="100" y="597" on="0"/>
        <pt x="95" y="603" on="0"/>
        <pt x="97" y="612" on="1"/>
        <pt x="106" y="664" on="1"/>
        <pt x="108" y="679" on="0"/>
        <pt x="125" y="679" on="1"/>
      </contour>
    </TTGlyph>
    <TTGlyph name="G" xMin="50" yMin="-12" xMax="675" yMax="696">
      <contour>
        <pt x="661" y="314" on="1"/>
        <pt x="675" y="314" on="0"/>
        <pt x="675" y="306" on="1"/>
        <pt x="675" y="303" on="0"/>
        <pt x="674" y="299" on="1"/>
        <pt x="665" y="248" on="1"/>
        <pt x="663" y="239" on="0"/>
        <pt x="656" y="233" on="0"/>
        <pt x="646" y="234" on="1"/>
        <pt x="605" y="234" on="1"/>
        <pt x="572" y="46" on="1"/>
        <pt x="568" y="31" on="0"/>
        <pt x="555" y="25" on="1"/>
        <pt x="469" y="-12" on="0"/>
        <pt x="353" y="-12" on="1"/>
        <pt x="150" y="-12" on="0"/>
        <pt x="86" y="108" on="1"/>
        <pt x="50" y="174" on="0"/>
        <pt x="50" y="273" on="1"/>
        <pt x="50" y="446" on="0"/>
        <pt x="261" y="696" on="0"/>
        <pt x="435" y="696" on="1"/>
        <pt x="549" y="696" on="0"/>
        <pt x="634" y="645" on="1"/>
        <pt x="648" y="636" on="0"/>
        <pt x="644" y="621" on="1"/>
        <pt x="622" y="496" on="1"/>
        <pt x="620" y="481" on="0"/>
        <pt x="603" y="481" on="1"/>
        <pt x="549" y="481" on="1"/>
        <pt x="539" y="481" on="0"/>
        <pt x="534" y="487" on="0"/>
        <pt x="536" y="496" on="1"/>
        <pt x="552" y="568" on="1"/>
        <pt x="488" y="609" on="0"/>
        <pt x="336" y="609" on="0"/>
        <pt x="278" y="561" on="1"/>
        <pt x="172" y="472" on="0"/>
        <pt x="172" y="282" on="1"/>
        <pt x="172" y="192" on="0"/>
        <pt x="265" y="78" on="0"/>
        <pt x="366" y="78" on="1"/>
        <pt x="433" y="78" on="0"/>
        <pt x="479" y="101" on="1"/>
        <pt x="504" y="234" on="1"/>
        <pt x="440" y="234" on="1"/>
        <pt x="430" y="233" on="0"/>
        <pt x="425" y="239" on="0"/>
        <pt x="427" y="248" on="1"/>
        <pt x="436" y="299" on="1"/>
        <pt x="438" y="314" on="0"/>
        <pt x="455" y="314" on="1"/>
      </contour>
    </TTGlyph>
    <TTGlyph name="Gbreve" xMin="50" yMin="-12" xMax="675" yMax="872">
      <contour>
        <pt x="661" y="314" on="1"/>
        <pt x="675" y="314" on="0"/>
        <pt x="675" y="306" on="1"/>
        <pt x="675" y="303" on="0"/>
        <pt x="674" y="299" on="1"/>
        <pt x="665" y="248" on="1"/>
        <pt x="663" y="239" on="0"/>
        <pt x="656" y="233" on="0"/>
        <pt x="646" y="234" on="1"/>
        <pt x="605" y="234" on="1"/>
        <pt x="572" y="46" on="1"/>
        <pt x="568" y="31" on="0"/>
        <pt x="555" y="25" on="1"/>
        <pt x="469" y="-12" on="0"/>
        <pt x="353" y="-12" on="1"/>
        <pt x="150" y="-12" on="0"/>
        <pt x="86" y="108" on="1"/>
        <pt x="50" y="174" on="0"/>
        <pt x="50" y="273" on="1"/>
        <pt x="50" y="446" on="0"/>
        <pt x="261" y="696" on="0"/>
        <pt x="435" y="696" on="1"/>
        <pt x="549" y="696" on="0"/>
        <pt x="634" y="645" on="1"/>
        <pt x="648" y="636" on="0"/>
        <pt x="644" y="621" on="1"/>
        <pt x="622" y="496" on="1"/>
        <pt x="620" y="481" on="0"/>
        <pt x="603" y="481" on="1"/>
        <pt x="549" y="481" on="1"/>
        <pt x="539" y="481" on="0"/>
        <pt x="534" y="487" on="0"/>
        <pt x="536" y="496" on="1"/>
        <pt x="552" y="568" on="1"/>
        <pt x="488" y="609" on="0"/>
        <pt x="336" y="609" on="0"/>
        <pt x="278" y="561" on="1"/>
        <pt x="172" y="472" on="0"/>
        <pt x="172" y="282" on="1"/>
        <pt x="172" y="192" on="0"/>
        <pt x="265" y="78" on="0"/>
        <pt x="366" y="78" on="1"/>
        <pt x="433" y="78" on="0"/>
        <pt x="479" y="101" on="1"/>
        <pt x="504" y="234" on="1"/>
        <pt x="440" y="234" on="1"/>
        <pt x="430" y="233" on="0"/>
        <pt x="425" y="239" on="0"/>
        <pt x="427" y="248" on="1"/>
        <pt x="436" y="299" on="1"/>
        <pt x="438" y="314" on="0"/>
        <pt x="455" y="314" on="1"/>
      </contour>
      <contour>
        <pt x="624" y="872" on="1"/>
        <pt x="637" y="872" on="0"/>
        <pt x="637" y="864" on="1"/>
        <pt x="637" y="861" on="0"/>
        <pt x="636" y="857" on="1"/>
        <pt x="612" y="735" on="0"/>
        <pt x="457" y="735" on="1"/>
        <pt x="384" y="735" on="0"/>
        <pt x="307" y="789" on="0"/>
        <pt x="307" y="839" on="1"/>
        <pt x="307" y="850" on="0"/>
        <pt x="308" y="857" on="1"/>
        <pt x="310" y="872" on="0"/>
        <pt x="326" y="872" on="1"/>
        <pt x="356" y="872" on="1"/>
        <pt x="365" y="872" on="0"/>
        <pt x="371" y="866" on="0"/>
        <pt x="372" y="856" on="1"/>
        <pt x="373" y="830" on="0"/>
        <pt x="419" y="811" on="0"/>
        <pt x="468" y="811" on="1"/>
        <pt x="554" y="811" on="0"/>
        <pt x="573" y="857" on="1"/>
        <pt x="579" y="872" on="0"/>
        <pt x="595" y="872" on="1"/>
      </contour>
    </TTGlyph>
    <TTGlyph name="Gcircumflex" xMin="50" yMin="-12" xMax="675" yMax="863">
      <contour>
        <pt x="661" y="314" on="1"/>
        <pt x="675" y="314" on="0"/>
        <pt x="675" y="306" on="1"/>
        <pt x="675" y="303" on="0"/>
        <pt x="674" y="299" on="1"/>
        <pt x="665" y="248" on="1"/>
        <pt x="663" y="239" on="0"/>
        <pt x="656" y="233" on="0"/>
        <pt x="646" y="234" on="1"/>
        <pt x="605" y="234" on="1"/>
        <pt x="572" y="46" on="1"/>
        <pt x="568" y="31" on="0"/>
        <pt x="555" y="25" on="1"/>
        <pt x="469" y="-12" on="0"/>
        <pt x="353" y="-12" on="1"/>
        <pt x="150" y="-12" on="0"/>
        <pt x="86" y="108" on="1"/>
        <pt x="50" y="174" on="0"/>
        <pt x="50" y="273" on="1"/>
        <pt x="50" y="446" on="0"/>
        <pt x="261" y="696" on="0"/>
        <pt x="435" y="696" on="1"/>
        <pt x="549" y="696" on="0"/>
        <pt x="634" y="645" on="1"/>
        <pt x="648" y="636" on="0"/>
        <pt x="644" y="621" on="1"/>
        <pt x="622" y="496" on="1"/>
        <pt x="620" y="481" on="0"/>
        <pt x="603" y="481" on="1"/>
        <pt x="549" y="481" on="1"/>
        <pt x="539" y="481" on="0"/>
        <pt x="534" y="487" on="0"/>
        <pt x="536" y="496" on="1"/>
        <pt x="552" y="568" on="1"/>
        <pt x="488" y="609" on="0"/>
        <pt x="336" y="609" on="0"/>
        <pt x="278" y="561" on="1"/>
        <pt x="172" y="472" on="0"/>
        <pt x="172" y="282" on="1"/>
        <pt x="172" y="192" on="0"/>
        <pt x="265" y="78" on="0"/>
        <pt x="366" y="78" on="1"/>
        <pt x="433" y="78" on="0"/>
        <pt x="479" y="101" on="1"/>
        <pt x="504" y="234" on="1"/>
        <pt x="440" y="234" on="1"/>
        <pt x="430" y="233" on="0"/>
        <pt x="425" y="239" on="0"/>
        <pt x="427" y="248" on="1"/>
        <pt x="436" y="299" on="1"/>
        <pt x="438" y="314" on="0"/>
        <pt x="455" y="314" on="1"/>
      </contour>
      <contour>
        <pt x="375" y="732" on="1"/>
        <pt x="312" y="732" on="1"/>
        <pt x="304" y="732" on="0"/>
        <pt x="304" y="739" on="0"/>
        <pt x="308" y="744" on="1"/>
        <pt x="409" y="851" on="1"/>
        <pt x="420" y="863" on="0"/>
        <pt x="435" y="863" on="1"/>
        <pt x="511" y="863" on="1"/>
        <pt x="526" y="863" on="0"/>
        <pt x="533" y="851" on="1"/>
        <pt x="596" y="744" on="1"/>
        <pt x="598" y="740" on="0"/>
        <pt x="598" y="738" on="1"/>
        <pt x="598" y="732" on="0"/>
        <pt x="588" y="732" on="1"/>
        <pt x="536" y="732" on="1"/>
        <pt x="520" y="732" on="0"/>
        <pt x="513" y="744" on="1"/>
        <pt x="468" y="815" on="1"/>
        <pt x="401" y="744" on="1"/>
        <pt x="390" y="732" on="0"/>
      </contour>
    </TTGlyph>
    <TTGlyph name="Gcommaaccent" xMin="50" yMin="-285" xMax="675" yMax="696">
      <contour>
        <pt x="661" y="314" on="1"/>
        <pt x="675" y="314" on="0"/>
        <pt x="675" y="306" on="1"/>
        <pt x="675" y="303" on="0"/>
        <pt x="674" y="299" on="1"/>
        <pt x="665" y="248" on="1"/>
        <pt x="663" y="239" on="0"/>
        <pt x="656" y="233" on="0"/>
        <pt x="646" y="234" on="1"/>
        <pt x="605" y="234" on="1"/>
        <pt x="572" y="46" on="1"/>
        <pt x="568" y="31" on="0"/>
        <pt x="555" y="25" on="1"/>
        <pt x="469" y="-12" on="0"/>
        <pt x="353" y="-12" on="1"/>
        <pt x="150" y="-12" on="0"/>
        <pt x="86" y="108" on="1"/>
        <pt x="50" y="174" on="0"/>
        <pt x="50" y="273" on="1"/>
        <pt x="50" y="446" on="0"/>
        <pt x="261" y="696" on="0"/>
        <pt x="435" y="696" on="1"/>
        <pt x="549" y="696" on="0"/>
        <pt x="634" y="645" on="1"/>
        <pt x="648" y="636" on="0"/>
        <pt x="644" y="621" on="1"/>
        <pt x="622" y="496" on="1"/>
        <pt x="620" y="481" on="0"/>
        <pt x="603" y="481" on="1"/>
        <pt x="549" y="481" on="1"/>
        <pt x="539" y="481" on="0"/>
        <pt x="534" y="487" on="0"/>
        <pt x="536" y="496" on="1"/>
        <pt x="552" y="568" on="1"/>
        <pt x="488" y="609" on="0"/>
        <pt x="336" y="609" on="0"/>
        <pt x="278" y="561" on="1"/>
        <pt x="172" y="472" on="0"/>
        <pt x="172" y="282" on="1"/>
        <pt x="172" y="192" on="0"/>
        <pt x="265" y="78" on="0"/>
        <pt x="366" y="78" on="1"/>
        <pt x="433" y="78" on="0"/>
        <pt x="479" y="101" on="1"/>
        <pt x="504" y="234" on="1"/>
        <pt x="440" y="234" on="1"/>
        <pt x="430" y="233" on="0"/>
        <pt x="425" y="239" on="0"/>
        <pt x="427" y="248" on="1"/>
        <pt x="436" y="299" on="1"/>
        <pt x="438" y="314" on="0"/>
        <pt x="455" y="314" on="1"/>
      </contour>
      <contour>
        <pt x="323" y="-226" on="1"/>
        <pt x="279" y="-277" on="1"/>
        <pt x="273" y="-285" on="0"/>
        <pt x="267" y="-285" on="1"/>
        <pt x="265" y="-285" on="0"/>
        <pt x="247" y="-278" on="1"/>
        <pt x="238" y="-272" on="0"/>
        <pt x="238" y="-260" on="0"/>
        <pt x="240" y="-256" on="1"/>
        <pt x="271" y="-192" on="1"/>
        <pt x="250" y="-167" on="0"/>
        <pt x="250" y="-108" on="0"/>
        <pt x="286" y="-70" on="0"/>
        <pt x="342" y="-70" on="0"/>
        <pt x="374" y="-102" on="0"/>
        <pt x="374" y="-145" on="0"/>
        <pt x="356" y="-184" on="0"/>
        <pt x="343" y="-201" on="0"/>
      </contour>
    </TTGlyph>
    <TTGlyph name="Gdotaccent" xMin="50" yMin="-12" xMax="675" yMax="873">
      <contour>
        <pt x="661" y="314" on="1"/>
        <pt x="675" y="314" on="0"/>
        <pt x="675" y="306" on="1"/>
        <pt x="675" y="303" on="0"/>
        <pt x="674" y="299" on="1"/>
        <pt x="665" y="248" on="1"/>
        <pt x="663" y="239" on="0"/>
        <pt x="656" y="233" on="0"/>
        <pt x="646" y="234" on="1"/>
        <pt x="605" y="234" on="1"/>
        <pt x="572" y="46" on="1"/>
        <pt x="568" y="31" on="0"/>
        <pt x="555" y="25" on="1"/>
        <pt x="469" y="-12" on="0"/>
        <pt x="353" y="-12" on="1"/>
        <pt x="150" y="-12" on="0"/>
        <pt x="86" y="108" on="1"/>
        <pt x="50" y="174" on="0"/>
        <pt x="50" y="273" on="1"/>
        <pt x="50" y="446" on="0"/>
        <pt x="261" y="696" on="0"/>
        <pt x="435" y="696" on="1"/>
        <pt x="549" y="696" on="0"/>
        <pt x="634" y="645" on="1"/>
        <pt x="648" y="636" on="0"/>
        <pt x="644" y="621" on="1"/>
        <pt x="622" y="496" on="1"/>
        <pt x="620" y="481" on="0"/>
        <pt x="603" y="481" on="1"/>
        <pt x="549" y="481" on="1"/>
        <pt x="539" y="481" on="0"/>
        <pt x="534" y="487" on="0"/>
        <pt x="536" y="496" on="1"/>
        <pt x="552" y="568" on="1"/>
        <pt x="488" y="609" on="0"/>
        <pt x="336" y="609" on="0"/>
        <pt x="278" y="561" on="1"/>
        <pt x="172" y="472" on="0"/>
        <pt x="172" y="282" on="1"/>
        <pt x="172" y="192" on="0"/>
        <pt x="265" y="78" on="0"/>
        <pt x="366" y="78" on="1"/>
        <pt x="433" y="78" on="0"/>
        <pt x="479" y="101" on="1"/>
        <pt x="504" y="234" on="1"/>
        <pt x="440" y="234" on="1"/>
        <pt x="430" y="233" on="0"/>
        <pt x="425" y="239" on="0"/>
        <pt x="427" y="248" on="1"/>
        <pt x="436" y="299" on="1"/>
        <pt x="438" y="314" on="0"/>
        <pt x="455" y="314" on="1"/>
      </contour>
      <contour>
        <pt x="531" y="773" on="0"/>
        <pt x="486" y="730" on="0"/>
        <pt x="422" y="730" on="0"/>
        <pt x="386" y="768" on="0"/>
        <pt x="386" y="829" on="0"/>
        <pt x="433" y="873" on="0"/>
        <pt x="495" y="873" on="0"/>
        <pt x="531" y="835" on="0"/>
      </contour>
    </TTGlyph>
    <TTGlyph name="H" xMin="-8" yMin="-12" xMax="770" yMax="679">
      <contour>
        <pt x="6" y="0" on="1"/>
        <pt x="-8" y="0" on="0"/>
        <pt x="-8" y="8" on="1"/>
        <pt x="-8" y="11" on="0"/>
        <pt x="-7" y="15" on="1"/>
        <pt x="1" y="65" on="1"/>
        <pt x="3" y="79" on="0"/>
        <pt x="20" y="79" on="1"/>
        <pt x="71" y="79" on="1"/>
        <pt x="163" y="598" on="1"/>
        <pt x="110" y="598" on="1"/>
        <pt x="100" y="597" on="0"/>
        <pt x="95" y="603" on="0"/>
        <pt x="97" y="612" on="1"/>
        <pt x="106" y="664" on="1"/>
        <pt x="108" y="679" on="0"/>
        <pt x="125" y="679" on="1"/>
        <pt x="341" y="679" on="1"/>
        <pt x="351" y="679" on="0"/>
        <pt x="356" y="673" on="0"/>
        <pt x="354" y="664" on="1"/>
        <pt x="345" y="612" on="1"/>
        <pt x="343" y="603" on="0"/>
        <pt x="336" y="597" on="0"/>
        <pt x="326" y="598" on="1"/>
        <pt x="275" y="598" on="1"/>
        <pt x="238" y="392" on="1"/>
        <pt x="541" y="392" on="1"/>
        <pt x="578" y="598" on="1"/>
        <pt x="525" y="598" on="1"/>
        <pt x="515" y="597" on="0"/>
        <pt x="510" y="603" on="0"/>
        <pt x="512" y="612" on="1"/>
        <pt x="521" y="664" on="1"/>
        <pt x="522" y="673" on="0"/>
        <pt x="530" y="679" on="0"/>
        <pt x="540" y="679" on="1"/>
        <pt x="756" y="679" on="1"/>
        <pt x="770" y="679" on="0"/>
        <pt x="770" y="671" on="1"/>
        <pt x="770" y="668" on="0"/>
        <pt x="769" y="664" on="1"/>
        <pt x="760" y="612" on="1"/>
        <pt x="758" y="603" on="0"/>
        <pt x="751" y="597" on="0"/>
        <pt x="741" y="598" on="1"/>
        <pt x="690" y="598" on="1"/>
        <pt x="601" y="100" on="1"/>
        <pt x="600" y="93" on="0"/>
        <pt x="600" y="88" on="1"/>
        <pt x="600" y="69" on="0"/>
        <pt x="617" y="69" on="1"/>
        <pt x="629" y="69" on="0"/>
        <pt x="662" y="83" on="0"/>
        <pt x="668" y="70" on="1"/>
        <pt x="676" y="54" on="1"/>
        <pt x="683" y="41" on="0"/>
        <pt x="671" y="31" on="1"/>
        <pt x="617" y="-12" on="0"/>
        <pt x="562" y="-12" on="1"/>
        <pt x="485" y="-12" on="0"/>
        <pt x="485" y="57" on="1"/>
        <pt x="485" y="69" on="0"/>
        <pt x="487" y="83" on="1"/>
        <pt x="527" y="306" on="1"/>
        <pt x="224" y="306" on="1"/>
        <pt x="183" y="79" on="1"/>
        <pt x="235" y="79" on="1"/>
        <pt x="245" y="79" on="0"/>
        <pt x="250" y="74" on="0"/>
        <pt x="249" y="65" on="1"/>
        <pt x="240" y="15" on="1"/>
        <pt x="238" y="0" on="0"/>
        <pt x="222" y="0" on="1"/>
      </contour>
    </TTGlyph>
    <TTGlyph name="Hbar" xMin="-8" yMin="-12" xMax="770" yMax="679">
      <contour>
        <pt x="6" y="0" on="1"/>
        <pt x="-8" y="0" on="0"/>
        <pt x="-8" y="8" on="1"/>
        <pt x="-8" y="11" on="0"/>
        <pt x="-7" y="15" on="1"/>
        <pt x="1" y="65" on="1"/>
        <pt x="3" y="74" on="0"/>
        <pt x="10" y="80" on="0"/>
        <pt x="20" y="79" on="1"/>
        <pt x="71" y="79" on="1"/>
        <pt x="143" y="486" on="1"/>
        <pt x="90" y="486" on="1"/>
        <pt x="80" y="486" on="0"/>
        <pt x="75" y="492" on="0"/>
        <pt x="77" y="501" on="1"/>
        <pt x="80" y="524" on="1"/>
        <pt x="82" y="533" on="0"/>
        <pt x="89" y="539" on="0"/>
        <pt x="99" y="539" on="1"/>
        <pt x="152" y="539" on="1"/>
        <pt x="163" y="598" on="1"/>
        <pt x="110" y="598" on="1"/>
        <pt x="100" y="597" on="0"/>
        <pt x="95" y="603" on="0"/>
        <pt x="97" y="612" on="1"/>
        <pt x="106" y="664" on="1"/>
        <pt x="108" y="679" on="0"/>
        <pt x="125" y="679" on="1"/>
        <pt x="341" y="679" on="1"/>
        <pt x="351" y="679" on="0"/>
        <pt x="356" y="673" on="0"/>
        <pt x="354" y="664" on="1"/>
        <pt x="345" y="612" on="1"/>
        <pt x="343" y="603" on="0"/>
        <pt x="336" y="597" on="0"/>
        <pt x="326" y="598" on="1"/>
        <pt x="275" y="598" on="1"/>
        <pt x="264" y="539" on="1"/>
        <pt x="567" y="539" on="1"/>
        <pt x="578" y="598" on="1"/>
        <pt x="525" y="598" on="1"/>
        <pt x="515" y="597" on="0"/>
        <pt x="510" y="603" on="0"/>
        <pt x="512" y="612" on="1"/>
        <pt x="521" y="664" on="1"/>
        <pt x="522" y="673" on="0"/>
        <pt x="530" y="679" on="0"/>
        <pt x="540" y="679" on="1"/>
        <pt x="756" y="679" on="1"/>
        <pt x="770" y="679" on="0"/>
        <pt x="770" y="671" on="1"/>
        <pt x="770" y="668" on="0"/>
        <pt x="769" y="664" on="1"/>
        <pt x="760" y="612" on="1"/>
        <pt x="758" y="603" on="0"/>
        <pt x="751" y="597" on="0"/>
        <pt x="741" y="598" on="1"/>
        <pt x="690" y="598" on="1"/>
        <pt x="679" y="539" on="1"/>
        <pt x="731" y="539" on="1"/>
        <pt x="741" y="539" on="0"/>
        <pt x="746" y="533" on="0"/>
        <pt x="744" y="524" on="1"/>
        <pt x="741" y="501" on="1"/>
        <pt x="739" y="492" on="0"/>
        <pt x="732" y="486" on="0"/>
        <pt x="722" y="486" on="1"/>
        <pt x="670" y="486" on="1"/>
        <pt x="601" y="100" on="1"/>
        <pt x="600" y="93" on="0"/>
        <pt x="600" y="88" on="1"/>
        <pt x="600" y="69" on="0"/>
        <pt x="617" y="69" on="1"/>
        <pt x="629" y="69" on="0"/>
        <pt x="662" y="83" on="0"/>
        <pt x="668" y="70" on="1"/>
        <pt x="676" y="54" on="1"/>
        <pt x="683" y="41" on="0"/>
        <pt x="671" y="31" on="1"/>
        <pt x="617" y="-12" on="0"/>
        <pt x="562" y="-12" on="1"/>
        <pt x="485" y="-12" on="0"/>
        <pt x="485" y="57" on="1"/>
        <pt x="485" y="69" on="0"/>
        <pt x="487" y="83" on="1"/>
        <pt x="527" y="306" on="1"/>
        <pt x="224" y="306" on="1"/>
        <pt x="183" y="79" on="1"/>
        <pt x="235" y="79" on="1"/>
        <pt x="245" y="80" on="0"/>
        <pt x="250" y="74" on="0"/>
        <pt x="249" y="65" on="1"/>
        <pt x="240" y="15" on="1"/>
        <pt x="238" y="0" on="0"/>
        <pt x="222" y="0" on="1"/>
      </contour>
      <contour>
        <pt x="238" y="392" on="1"/>
        <pt x="541" y="392" on="1"/>
        <pt x="558" y="486" on="1"/>
        <pt x="255" y="486" on="1"/>
      </contour>
    </TTGlyph>
    <TTGlyph name="Hcircumflex" xMin="-8" yMin="-12" xMax="770" yMax="863">
      <contour>
        <pt x="6" y="0" on="1"/>
        <pt x="-8" y="0" on="0"/>
        <pt x="-8" y="8" on="1"/>
        <pt x="-8" y="11" on="0"/>
        <pt x="-7" y="15" on="1"/>
        <pt x="1" y="65" on="1"/>
        <pt x="3" y="79" on="0"/>
        <pt x="20" y="79" on="1"/>
        <pt x="71" y="79" on="1"/>
        <pt x="163" y="598" on="1"/>
        <pt x="110" y="598" on="1"/>
        <pt x="100" y="597" on="0"/>
        <pt x="95" y="603" on="0"/>
        <pt x="97" y="612" on="1"/>
        <pt x="106" y="664" on="1"/>
        <pt x="108" y="679" on="0"/>
        <pt x="125" y="679" on="1"/>
        <pt x="341" y="679" on="1"/>
        <pt x="351" y="679" on="0"/>
        <pt x="356" y="673" on="0"/>
        <pt x="354" y="664" on="1"/>
        <pt x="345" y="612" on="1"/>
        <pt x="343" y="603" on="0"/>
        <pt x="336" y="597" on="0"/>
        <pt x="326" y="598" on="1"/>
        <pt x="275" y="598" on="1"/>
        <pt x="238" y="392" on="1"/>
        <pt x="541" y="392" on="1"/>
        <pt x="578" y="598" on="1"/>
        <pt x="525" y="598" on="1"/>
        <pt x="515" y="597" on="0"/>
        <pt x="510" y="603" on="0"/>
        <pt x="512" y="612" on="1"/>
        <pt x="521" y="664" on="1"/>
        <pt x="522" y="673" on="0"/>
        <pt x="530" y="679" on="0"/>
        <pt x="540" y="679" on="1"/>
        <pt x="756" y="679" on="1"/>
        <pt x="770" y="679" on="0"/>
        <pt x="770" y="671" on="1"/>
        <pt x="770" y="668" on="0"/>
        <pt x="769" y="664" on="1"/>
        <pt x="760" y="612" on="1"/>
        <pt x="758" y="603" on="0"/>
        <pt x="751" y="597" on="0"/>
        <pt x="741" y="598" on="1"/>
        <pt x="690" y="598" on="1"/>
        <pt x="601" y="100" on="1"/>
        <pt x="600" y="93" on="0"/>
        <pt x="600" y="88" on="1"/>
        <pt x="600" y="69" on="0"/>
        <pt x="617" y="69" on="1"/>
        <pt x="629" y="69" on="0"/>
        <pt x="662" y="83" on="0"/>
        <pt x="668" y="70" on="1"/>
        <pt x="676" y="54" on="1"/>
        <pt x="683" y="41" on="0"/>
        <pt x="671" y="31" on="1"/>
        <pt x="617" y="-12" on="0"/>
        <pt x="562" y="-12" on="1"/>
        <pt x="485" y="-12" on="0"/>
        <pt x="485" y="57" on="1"/>
        <pt x="485" y="69" on="0"/>
        <pt x="487" y="83" on="1"/>
        <pt x="527" y="306" on="1"/>
        <pt x="224" y="306" on="1"/>
        <pt x="183" y="79" on="1"/>
        <pt x="235" y="79" on="1"/>
        <pt x="245" y="79" on="0"/>
        <pt x="250" y="74" on="0"/>
        <pt x="249" y="65" on="1"/>
        <pt x="240" y="15" on="1"/>
        <pt x="238" y="0" on="0"/>
        <pt x="222" y="0" on="1"/>
      </contour>
      <contour>
        <pt x="370" y="732" on="1"/>
        <pt x="307" y="732" on="1"/>
        <pt x="298" y="732" on="0"/>
        <pt x="298" y="739" on="0"/>
        <pt x="303" y="744" on="1"/>
        <pt x="404" y="851" on="1"/>
        <pt x="414" y="863" on="0"/>
        <pt x="430" y="863" on="1"/>
        <pt x="506" y="863" on="1"/>
        <pt x="520" y="863" on="0"/>
        <pt x="528" y="851" on="1"/>
        <pt x="591" y="744" on="1"/>
        <pt x="593" y="740" on="0"/>
        <pt x="593" y="738" on="1"/>
        <pt x="593" y="732" on="0"/>
        <pt x="583" y="732" on="1"/>
        <pt x="531" y="732" on="1"/>
        <pt x="515" y="732" on="0"/>
        <pt x="508" y="744" on="1"/>
        <pt x="463" y="815" on="1"/>
        <pt x="396" y="744" on="1"/>
        <pt x="386" y="732" on="0"/>
      </contour>
    </TTGlyph>
    <TTGlyph name="I" xMin="-7" yMin="0" xMax="355" yMax="679">
      <contour>
        <pt x="341" y="679" on="1"/>
        <pt x="355" y="679" on="0"/>
        <pt x="355" y="671" on="1"/>
        <pt x="355" y="668" on="0"/>
        <pt x="354" y="664" on="1"/>
        <pt x="346" y="612" on="1"/>
        <pt x="344" y="603" on="0"/>
        <pt x="337" y="597" on="0"/>
        <pt x="327" y="598" on="1"/>
        <pt x="275" y="598" on="1"/>
        <pt x="184" y="79" on="1"/>
        <pt x="236" y="79" on="1"/>
        <pt x="246" y="80" on="0"/>
        <pt x="251" y="74" on="0"/>
        <pt x="249" y="65" on="1"/>
        <pt x="241" y="15" on="1"/>
        <pt x="239" y="6" on="0"/>
        <pt x="232" y="0" on="0"/>
        <pt x="222" y="0" on="1"/>
        <pt x="7" y="0" on="1"/>
        <pt x="-7" y="0" on="0"/>
        <pt x="-7" y="8" on="1"/>
        <pt x="-7" y="11" on="0"/>
        <pt x="-6" y="15" on="1"/>
        <pt x="2" y="65" on="1"/>
        <pt x="4" y="74" on="0"/>
        <pt x="11" y="80" on="0"/>
        <pt x="21" y="79" on="1"/>
        <pt x="72" y="79" on="1"/>
        <pt x="162" y="598" on="1"/>
        <pt x="111" y="598" on="1"/>
        <pt x="101" y="597" on="0"/>
        <pt x="96" y="603" on="0"/>
        <pt x="98" y="612" on="1"/>
        <pt x="106" y="664" on="1"/>
        <pt x="108" y="673" on="0"/>
        <pt x="115" y="679" on="0"/>
        <pt x="125" y="679" on="1"/>
      </contour>
    </TTGlyph>
    <TTGlyph name="IJ" xMin="-7" yMin="-240" xMax="751" yMax="679">
      <contour>
        <pt x="7" y="0" on="1"/>
        <pt x="-7" y="0" on="0"/>
        <pt x="-7" y="8" on="1"/>
        <pt x="-7" y="11" on="0"/>
        <pt x="-6" y="15" on="1"/>
        <pt x="2" y="65" on="1"/>
        <pt x="4" y="74" on="0"/>
        <pt x="11" y="80" on="0"/>
        <pt x="21" y="79" on="1"/>
        <pt x="72" y="79" on="1"/>
        <pt x="162" y="598" on="1"/>
        <pt x="111" y="598" on="1"/>
        <pt x="101" y="597" on="0"/>
        <pt x="96" y="603" on="0"/>
        <pt x="98" y="612" on="1"/>
        <pt x="106" y="664" on="1"/>
        <pt x="108" y="673" on="0"/>
        <pt x="115" y="679" on="0"/>
        <pt x="125" y="679" on="1"/>
        <pt x="341" y="679" on="1"/>
        <pt x="351" y="679" on="0"/>
        <pt x="356" y="673" on="0"/>
        <pt x="354" y="664" on="1"/>
        <pt x="346" y="612" on="1"/>
        <pt x="344" y="603" on="0"/>
        <pt x="337" y="597" on="0"/>
        <pt x="327" y="598" on="1"/>
        <pt x="275" y="598" on="1"/>
        <pt x="184" y="79" on="1"/>
        <pt x="236" y="79" on="1"/>
        <pt x="246" y="80" on="0"/>
        <pt x="251" y="74" on="0"/>
        <pt x="249" y="65" on="1"/>
        <pt x="241" y="15" on="1"/>
        <pt x="239" y="6" on="0"/>
        <pt x="232" y="0" on="0"/>
        <pt x="222" y="0" on="1"/>
      </contour>
      <contour>
        <pt x="737" y="679" on="1"/>
        <pt x="751" y="679" on="0"/>
        <pt x="751" y="671" on="1"/>
        <pt x="751" y="668" on="0"/>
        <pt x="750" y="664" on="1"/>
        <pt x="626" y="-42" on="1"/>
        <pt x="608" y="-140" on="0"/>
        <pt x="513" y="-240" on="0"/>
        <pt x="417" y="-240" on="1"/>
        <pt x="345" y="-240" on="0"/>
        <pt x="283" y="-214" on="1"/>
        <pt x="273" y="-210" on="0"/>
        <pt x="273" y="-197" on="0"/>
        <pt x="274" y="-193" on="1"/>
        <pt x="290" y="-152" on="1"/>
        <pt x="296" y="-138" on="0"/>
        <pt x="311" y="-143" on="1"/>
        <pt x="358" y="-160" on="0"/>
        <pt x="454" y="-160" on="0"/>
        <pt x="506" y="-92" on="0"/>
        <pt x="519" y="-18" on="1"/>
        <pt x="627" y="599" on="1"/>
        <pt x="496" y="599" on="1"/>
        <pt x="486" y="531" on="1"/>
        <pt x="484" y="516" on="0"/>
        <pt x="468" y="516" on="1"/>
        <pt x="409" y="516" on="1"/>
        <pt x="399" y="516" on="0"/>
        <pt x="394" y="522" on="0"/>
        <pt x="396" y="531" on="1"/>
        <pt x="419" y="664" on="1"/>
        <pt x="420" y="673" on="0"/>
        <pt x="428" y="679" on="0"/>
        <pt x="438" y="679" on="1"/>
      </contour>
    </TTGlyph>
    <TTGlyph name="Iacute" xMin="-7" yMin="0" xMax="376" yMax="858">
      <contour>
        <pt x="7" y="0" on="1"/>
        <pt x="-7" y="0" on="0"/>
        <pt x="-7" y="8" on="1"/>
        <pt x="-7" y="11" on="0"/>
        <pt x="-6" y="15" on="1"/>
        <pt x="2" y="65" on="1"/>
        <pt x="4" y="74" on="0"/>
        <pt x="11" y="80" on="0"/>
        <pt x="21" y="79" on="1"/>
        <pt x="72" y="79" on="1"/>
        <pt x="162" y="598" on="1"/>
        <pt x="111" y="598" on="1"/>
        <pt x="101" y="597" on="0"/>
        <pt x="96" y="603" on="0"/>
        <pt x="98" y="612" on="1"/>
        <pt x="106" y="664" on="1"/>
        <pt x="108" y="673" on="0"/>
        <pt x="115" y="679" on="0"/>
        <pt x="125" y="679" on="1"/>
        <pt x="341" y="679" on="1"/>
        <pt x="351" y="679" on="0"/>
        <pt x="356" y="673" on="0"/>
        <pt x="354" y="664" on="1"/>
        <pt x="346" y="612" on="1"/>
        <pt x="344" y="603" on="0"/>
        <pt x="337" y="597" on="0"/>
        <pt x="327" y="598" on="1"/>
        <pt x="275" y="598" on="1"/>
        <pt x="184" y="79" on="1"/>
        <pt x="236" y="79" on="1"/>
        <pt x="246" y="80" on="0"/>
        <pt x="251" y="74" on="0"/>
        <pt x="249" y="65" on="1"/>
        <pt x="241" y="15" on="1"/>
        <pt x="239" y="6" on="0"/>
        <pt x="232" y="0" on="0"/>
        <pt x="222" y="0" on="1"/>
      </contour>
      <contour>
        <pt x="200" y="746" on="1"/>
        <pt x="262" y="844" on="1"/>
        <pt x="270" y="858" on="0"/>
        <pt x="286" y="858" on="1"/>
        <pt x="367" y="858" on="1"/>
        <pt x="375" y="858" on="0"/>
        <pt x="375" y="851" on="0"/>
        <pt x="370" y="846" on="1"/>
        <pt x="283" y="744" on="1"/>
        <pt x="272" y="732" on="0"/>
        <pt x="257" y="732" on="1"/>
        <pt x="206" y="732" on="1"/>
        <pt x="197" y="732" on="0"/>
        <pt x="197" y="741" on="0"/>
      </contour>
    </TTGlyph>
    <TTGlyph name="Ibreve" xMin="-7" yMin="0" xMax="437" yMax="872">
      <contour>
        <pt x="7" y="0" on="1"/>
        <pt x="-7" y="0" on="0"/>
        <pt x="-7" y="8" on="1"/>
        <pt x="-7" y="11" on="0"/>
        <pt x="-6" y="15" on="1"/>
        <pt x="2" y="65" on="1"/>
        <pt x="4" y="74" on="0"/>
        <pt x="11" y="80" on="0"/>
        <pt x="21" y="79" on="1"/>
        <pt x="72" y="79" on="1"/>
        <pt x="162" y="598" on="1"/>
        <pt x="111" y="598" on="1"/>
        <pt x="101" y="597" on="0"/>
        <pt x="96" y="603" on="0"/>
        <pt x="98" y="612" on="1"/>
        <pt x="106" y="664" on="1"/>
        <pt x="108" y="673" on="0"/>
        <pt x="115" y="679" on="0"/>
        <pt x="125" y="679" on="1"/>
        <pt x="341" y="679" on="1"/>
        <pt x="351" y="679" on="0"/>
        <pt x="356" y="673" on="0"/>
        <pt x="354" y="664" on="1"/>
        <pt x="346" y="612" on="1"/>
        <pt x="344" y="603" on="0"/>
        <pt x="337" y="597" on="0"/>
        <pt x="327" y="598" on="1"/>
        <pt x="275" y="598" on="1"/>
        <pt x="184" y="79" on="1"/>
        <pt x="236" y="79" on="1"/>
        <pt x="246" y="80" on="0"/>
        <pt x="251" y="74" on="0"/>
        <pt x="249" y="65" on="1"/>
        <pt x="241" y="15" on="1"/>
        <pt x="239" y="6" on="0"/>
        <pt x="232" y="0" on="0"/>
        <pt x="222" y="0" on="1"/>
      </contour>
      <contour>
        <pt x="424" y="872" on="1"/>
        <pt x="437" y="872" on="0"/>
        <pt x="437" y="864" on="1"/>
        <pt x="437" y="861" on="0"/>
        <pt x="436" y="857" on="1"/>
        <pt x="412" y="735" on="0"/>
        <pt x="257" y="735" on="1"/>
        <pt x="184" y="735" on="0"/>
        <pt x="107" y="789" on="0"/>
        <pt x="107" y="839" on="1"/>
        <pt x="107" y="850" on="0"/>
        <pt x="108" y="857" on="1"/>
        <pt x="110" y="872" on="0"/>
        <pt x="126" y="872" on="1"/>
        <pt x="156" y="872" on="1"/>
        <pt x="165" y="872" on="0"/>
        <pt x="171" y="866" on="0"/>
        <pt x="172" y="856" on="1"/>
        <pt x="173" y="830" on="0"/>
        <pt x="219" y="811" on="0"/>
        <pt x="268" y="811" on="1"/>
        <pt x="354" y="811" on="0"/>
        <pt x="373" y="857" on="1"/>
        <pt x="379" y="872" on="0"/>
        <pt x="395" y="872" on="1"/>
      </contour>
    </TTGlyph>
    <TTGlyph name="Icircumflex" xMin="-7" yMin="0" xMax="390" yMax="863">
      <contour>
        <pt x="7" y="0" on="1"/>
        <pt x="-7" y="0" on="0"/>
        <pt x="-7" y="8" on="1"/>
        <pt x="-7" y="11" on="0"/>
        <pt x="-6" y="15" on="1"/>
        <pt x="2" y="65" on="1"/>
        <pt x="4" y="74" on="0"/>
        <pt x="11" y="80" on="0"/>
        <pt x="21" y="79" on="1"/>
        <pt x="72" y="79" on="1"/>
        <pt x="162" y="598" on="1"/>
        <pt x="111" y="598" on="1"/>
        <pt x="101" y="597" on="0"/>
        <pt x="96" y="603" on="0"/>
        <pt x="98" y="612" on="1"/>
        <pt x="106" y="664" on="1"/>
        <pt x="108" y="673" on="0"/>
        <pt x="115" y="679" on="0"/>
        <pt x="125" y="679" on="1"/>
        <pt x="341" y="679" on="1"/>
        <pt x="351" y="679" on="0"/>
        <pt x="356" y="673" on="0"/>
        <pt x="354" y="664" on="1"/>
        <pt x="346" y="612" on="1"/>
        <pt x="344" y="603" on="0"/>
        <pt x="337" y="597" on="0"/>
        <pt x="327" y="598" on="1"/>
        <pt x="275" y="598" on="1"/>
        <pt x="184" y="79" on="1"/>
        <pt x="236" y="79" on="1"/>
        <pt x="246" y="80" on="0"/>
        <pt x="251" y="74" on="0"/>
        <pt x="249" y="65" on="1"/>
        <pt x="241" y="15" on="1"/>
        <pt x="239" y="6" on="0"/>
        <pt x="232" y="0" on="0"/>
        <pt x="222" y="0" on="1"/>
      </contour>
      <contour>
        <pt x="166" y="732" on="1"/>
        <pt x="103" y="732" on="1"/>
        <pt x="94" y="732" on="0"/>
        <pt x="94" y="739" on="0"/>
        <pt x="99" y="744" on="1"/>
        <pt x="200" y="851" on="1"/>
        <pt x="210" y="863" on="0"/>
        <pt x="226" y="863" on="1"/>
        <pt x="302" y="863" on="1"/>
        <pt x="316" y="863" on="0"/>
        <pt x="324" y="851" on="1"/>
        <pt x="387" y="744" on="1"/>
        <pt x="389" y="740" on="0"/>
        <pt x="389" y="738" on="1"/>
        <pt x="389" y="732" on="0"/>
        <pt x="379" y="732" on="1"/>
        <pt x="327" y="732" on="1"/>
        <pt x="311" y="732" on="0"/>
        <pt x="304" y="744" on="1"/>
        <pt x="259" y="815" on="1"/>
        <pt x="192" y="744" on="1"/>
        <pt x="182" y="732" on="0"/>
      </contour>
    </TTGlyph>
    <TTGlyph name="Idieresis" xMin="-7" yMin="0" xMax="421" yMax="860">
      <contour>
        <pt x="7" y="0" on="1"/>
        <pt x="-7" y="0" on="0"/>
        <pt x="-7" y="8" on="1"/>
        <pt x="-7" y="11" on="0"/>
        <pt x="-6" y="15" on="1"/>
        <pt x="2" y="65" on="1"/>
        <pt x="4" y="74" on="0"/>
        <pt x="11" y="80" on="0"/>
        <pt x="21" y="79" on="1"/>
        <pt x="72" y="79" on="1"/>
        <pt x="162" y="598" on="1"/>
        <pt x="111" y="598" on="1"/>
        <pt x="101" y="597" on="0"/>
        <pt x="96" y="603" on="0"/>
        <pt x="98" y="612" on="1"/>
        <pt x="106" y="664" on="1"/>
        <pt x="108" y="673" on="0"/>
        <pt x="115" y="679" on="0"/>
        <pt x="125" y="679" on="1"/>
        <pt x="341" y="679" on="1"/>
        <pt x="351" y="679" on="0"/>
        <pt x="356" y="673" on="0"/>
        <pt x="354" y="664" on="1"/>
        <pt x="346" y="612" on="1"/>
        <pt x="344" y="603" on="0"/>
        <pt x="337" y="597" on="0"/>
        <pt x="327" y="598" on="1"/>
        <pt x="275" y="598" on="1"/>
        <pt x="184" y="79" on="1"/>
        <pt x="236" y="79" on="1"/>
        <pt x="246" y="80" on="0"/>
        <pt x="251" y="74" on="0"/>
        <pt x="249" y="65" on="1"/>
        <pt x="241" y="15" on="1"/>
        <pt x="239" y="6" on="0"/>
        <pt x="232" y="0" on="0"/>
        <pt x="222" y="0" on="1"/>
      </contour>
      <contour>
        <pt x="421" y="779" on="0"/>
        <pt x="382" y="738" on="0"/>
        <pt x="326" y="738" on="0"/>
        <pt x="295" y="768" on="0"/>
        <pt x="295" y="822" on="0"/>
        <pt x="334" y="860" on="0"/>
        <pt x="391" y="860" on="0"/>
        <pt x="421" y="833" on="0"/>
      </contour>
      <contour>
        <pt x="218" y="779" on="0"/>
        <pt x="179" y="738" on="0"/>
        <pt x="123" y="738" on="0"/>
        <pt x="92" y="768" on="0"/>
        <pt x="92" y="822" on="0"/>
        <pt x="130" y="860" on="0"/>
        <pt x="188" y="860" on="0"/>
        <pt x="218" y="833" on="0"/>
      </contour>
    </TTGlyph>
    <TTGlyph name="Idotaccent" xMin="-7" yMin="0" xMax="355" yMax="873">
      <contour>
        <pt x="341" y="679" on="1"/>
        <pt x="355" y="679" on="0"/>
        <pt x="355" y="671" on="1"/>
        <pt x="355" y="668" on="0"/>
        <pt x="354" y="664" on="1"/>
        <pt x="346" y="612" on="1"/>
        <pt x="344" y="603" on="0"/>
        <pt x="337" y="597" on="0"/>
        <pt x="327" y="598" on="1"/>
        <pt x="275" y="598" on="1"/>
        <pt x="184" y="79" on="1"/>
        <pt x="236" y="79" on="1"/>
        <pt x="246" y="80" on="0"/>
        <pt x="251" y="74" on="0"/>
        <pt x="249" y="65" on="1"/>
        <pt x="241" y="15" on="1"/>
        <pt x="239" y="6" on="0"/>
        <pt x="232" y="0" on="0"/>
        <pt x="222" y="0" on="1"/>
        <pt x="7" y="0" on="1"/>
        <pt x="-7" y="0" on="0"/>
        <pt x="-7" y="8" on="1"/>
        <pt x="-7" y="11" on="0"/>
        <pt x="-6" y="15" on="1"/>
        <pt x="2" y="65" on="1"/>
        <pt x="4" y="74" on="0"/>
        <pt x="11" y="80" on="0"/>
        <pt x="21" y="79" on="1"/>
        <pt x="72" y="79" on="1"/>
        <pt x="162" y="598" on="1"/>
        <pt x="111" y="598" on="1"/>
        <pt x="101" y="597" on="0"/>
        <pt x="96" y="603" on="0"/>
        <pt x="98" y="612" on="1"/>
        <pt x="106" y="664" on="1"/>
        <pt x="108" y="673" on="0"/>
        <pt x="115" y="679" on="0"/>
        <pt x="125" y="679" on="1"/>
      </contour>
      <contour>
        <pt x="318" y="773" on="0"/>
        <pt x="273" y="730" on="0"/>
        <pt x="209" y="730" on="0"/>
        <pt x="173" y="768" on="0"/>
        <pt x="173" y="829" on="0"/>
        <pt x="220" y="873" on="0"/>
        <pt x="282" y="873" on="0"/>
        <pt x="318" y="835" on="0"/>
      </contour>
    </TTGlyph>
    <TTGlyph name="Igrave" xMin="-7" yMin="0" xMax="355" yMax="858">
      <contour>
        <pt x="341" y="679" on="1"/>
        <pt x="355" y="679" on="0"/>
        <pt x="355" y="671" on="1"/>
        <pt x="355" y="668" on="0"/>
        <pt x="354" y="664" on="1"/>
        <pt x="346" y="612" on="1"/>
        <pt x="344" y="603" on="0"/>
        <pt x="337" y="597" on="0"/>
        <pt x="327" y="598" on="1"/>
        <pt x="275" y="598" on="1"/>
        <pt x="184" y="79" on="1"/>
        <pt x="236" y="79" on="1"/>
        <pt x="246" y="80" on="0"/>
        <pt x="251" y="74" on="0"/>
        <pt x="249" y="65" on="1"/>
        <pt x="241" y="15" on="1"/>
        <pt x="239" y="6" on="0"/>
        <pt x="232" y="0" on="0"/>
        <pt x="222" y="0" on="1"/>
        <pt x="7" y="0" on="1"/>
        <pt x="-7" y="0" on="0"/>
        <pt x="-7" y="8" on="1"/>
        <pt x="-7" y="11" on="0"/>
        <pt x="-6" y="15" on="1"/>
        <pt x="2" y="65" on="1"/>
        <pt x="4" y="74" on="0"/>
        <pt x="11" y="80" on="0"/>
        <pt x="21" y="79" on="1"/>
        <pt x="72" y="79" on="1"/>
        <pt x="162" y="598" on="1"/>
        <pt x="111" y="598" on="1"/>
        <pt x="101" y="597" on="0"/>
        <pt x="96" y="603" on="0"/>
        <pt x="98" y="612" on="1"/>
        <pt x="106" y="664" on="1"/>
        <pt x="108" y="673" on="0"/>
        <pt x="115" y="679" on="0"/>
        <pt x="125" y="679" on="1"/>
      </contour>
      <contour>
        <pt x="290" y="740" on="1"/>
        <pt x="290" y="732" on="0"/>
        <pt x="277" y="732" on="1"/>
        <pt x="241" y="732" on="1"/>
        <pt x="226" y="732" on="0"/>
        <pt x="218" y="746" on="1"/>
        <pt x="168" y="844" on="1"/>
        <pt x="166" y="848" on="0"/>
        <pt x="166" y="851" on="1"/>
        <pt x="166" y="858" on="0"/>
        <pt x="177" y="858" on="1"/>
        <pt x="243" y="858" on="1"/>
        <pt x="259" y="858" on="0"/>
        <pt x="263" y="843" on="1"/>
        <pt x="289" y="747" on="1"/>
        <pt x="290" y="742" on="0"/>
      </contour>
    </TTGlyph>
    <TTGlyph name="Imacron" xMin="-7" yMin="0" xMax="409" yMax="841">
      <contour>
        <pt x="7" y="0" on="1"/>
        <pt x="-7" y="0" on="0"/>
        <pt x="-7" y="8" on="1"/>
        <pt x="-7" y="11" on="0"/>
        <pt x="-6" y="15" on="1"/>
        <pt x="2" y="65" on="1"/>
        <pt x="4" y="74" on="0"/>
        <pt x="11" y="80" on="0"/>
        <pt x="21" y="79" on="1"/>
        <pt x="72" y="79" on="1"/>
        <pt x="162" y="598" on="1"/>
        <pt x="111" y="598" on="1"/>
        <pt x="101" y="597" on="0"/>
        <pt x="96" y="603" on="0"/>
        <pt x="98" y="612" on="1"/>
        <pt x="106" y="664" on="1"/>
        <pt x="108" y="673" on="0"/>
        <pt x="115" y="679" on="0"/>
        <pt x="125" y="679" on="1"/>
        <pt x="341" y="679" on="1"/>
        <pt x="351" y="679" on="0"/>
        <pt x="356" y="673" on="0"/>
        <pt x="354" y="664" on="1"/>
        <pt x="346" y="612" on="1"/>
        <pt x="344" y="603" on="0"/>
        <pt x="337" y="597" on="0"/>
        <pt x="327" y="598" on="1"/>
        <pt x="275" y="598" on="1"/>
        <pt x="184" y="79" on="1"/>
        <pt x="236" y="79" on="1"/>
        <pt x="246" y="80" on="0"/>
        <pt x="251" y="74" on="0"/>
        <pt x="249" y="65" on="1"/>
        <pt x="241" y="15" on="1"/>
        <pt x="239" y="6" on="0"/>
        <pt x="232" y="0" on="0"/>
        <pt x="222" y="0" on="1"/>
      </contour>
      <contour>
        <pt x="395" y="841" on="1"/>
        <pt x="409" y="841" on="0"/>
        <pt x="409" y="833" on="1"/>
        <pt x="409" y="830" on="0"/>
        <pt x="408" y="826" on="1"/>
        <pt x="400" y="775" on="1"/>
        <pt x="398" y="766" on="0"/>
        <pt x="391" y="760" on="0"/>
        <pt x="381" y="760" on="1"/>
        <pt x="115" y="760" on="1"/>
        <pt x="101" y="760" on="0"/>
        <pt x="101" y="768" on="1"/>
        <pt x="101" y="771" on="0"/>
        <pt x="102" y="775" on="1"/>
        <pt x="110" y="826" on="1"/>
        <pt x="112" y="835" on="0"/>
        <pt x="119" y="841" on="0"/>
        <pt x="129" y="841" on="1"/>
      </contour>
    </TTGlyph>
    <TTGlyph name="Iogonek" xMin="-7" yMin="-231" xMax="355" yMax="679">
      <contour>
        <pt x="341" y="679" on="1"/>
        <pt x="355" y="679" on="0"/>
        <pt x="355" y="671" on="1"/>
        <pt x="355" y="668" on="0"/>
        <pt x="354" y="664" on="1"/>
        <pt x="346" y="612" on="1"/>
        <pt x="344" y="603" on="0"/>
        <pt x="337" y="597" on="0"/>
        <pt x="327" y="598" on="1"/>
        <pt x="275" y="598" on="1"/>
        <pt x="184" y="79" on="1"/>
        <pt x="236" y="79" on="1"/>
        <pt x="246" y="80" on="0"/>
        <pt x="251" y="74" on="0"/>
        <pt x="249" y="65" on="1"/>
        <pt x="241" y="15" on="1"/>
        <pt x="239" y="6" on="0"/>
        <pt x="232" y="0" on="0"/>
        <pt x="222" y="0" on="1"/>
        <pt x="204" y="0" on="1"/>
        <pt x="163" y="-23" on="0"/>
        <pt x="96" y="-102" on="0"/>
        <pt x="96" y="-165" on="0"/>
        <pt x="125" y="-165" on="1"/>
        <pt x="142" y="-165" on="0"/>
        <pt x="177" y="-148" on="0"/>
        <pt x="183" y="-162" on="1"/>
        <pt x="190" y="-177" on="1"/>
        <pt x="195" y="-185" on="0"/>
        <pt x="192" y="-194" on="0"/>
        <pt x="184" y="-199" on="1"/>
        <pt x="133" y="-231" on="0"/>
        <pt x="44" y="-231" on="0"/>
        <pt x="5" y="-189" on="0"/>
        <pt x="5" y="-157" on="1"/>
        <pt x="5" y="-73" on="0"/>
        <pt x="125" y="0" on="1"/>
        <pt x="7" y="0" on="1"/>
        <pt x="-7" y="0" on="0"/>
        <pt x="-7" y="8" on="1"/>
        <pt x="-7" y="11" on="0"/>
        <pt x="-6" y="15" on="1"/>
        <pt x="2" y="65" on="1"/>
        <pt x="4" y="74" on="0"/>
        <pt x="11" y="80" on="0"/>
        <pt x="21" y="79" on="1"/>
        <pt x="72" y="79" on="1"/>
        <pt x="162" y="598" on="1"/>
        <pt x="111" y="598" on="1"/>
        <pt x="101" y="597" on="0"/>
        <pt x="96" y="603" on="0"/>
        <pt x="98" y="612" on="1"/>
        <pt x="106" y="664" on="1"/>
        <pt x="108" y="673" on="0"/>
        <pt x="115" y="679" on="0"/>
        <pt x="125" y="679" on="1"/>
      </contour>
    </TTGlyph>
    <TTGlyph name="Itilde" xMin="-7" yMin="0" xMax="432" yMax="858">
      <contour>
        <pt x="7" y="0" on="1"/>
        <pt x="-7" y="0" on="0"/>
        <pt x="-7" y="8" on="1"/>
        <pt x="-7" y="11" on="0"/>
        <pt x="-6" y="15" on="1"/>
        <pt x="2" y="65" on="1"/>
        <pt x="4" y="74" on="0"/>
        <pt x="11" y="80" on="0"/>
        <pt x="21" y="79" on="1"/>
        <pt x="72" y="79" on="1"/>
        <pt x="162" y="598" on="1"/>
        <pt x="111" y="598" on="1"/>
        <pt x="101" y="597" on="0"/>
        <pt x="96" y="603" on="0"/>
        <pt x="98" y="612" on="1"/>
        <pt x="106" y="664" on="1"/>
        <pt x="108" y="673" on="0"/>
        <pt x="115" y="679" on="0"/>
        <pt x="125" y="679" on="1"/>
        <pt x="341" y="679" on="1"/>
        <pt x="351" y="679" on="0"/>
        <pt x="356" y="673" on="0"/>
        <pt x="354" y="664" on="1"/>
        <pt x="346" y="612" on="1"/>
        <pt x="344" y="603" on="0"/>
        <pt x="337" y="597" on="0"/>
        <pt x="327" y="598" on="1"/>
        <pt x="275" y="598" on="1"/>
        <pt x="184" y="79" on="1"/>
        <pt x="236" y="79" on="1"/>
        <pt x="246" y="80" on="0"/>
        <pt x="251" y="74" on="0"/>
        <pt x="249" y="65" on="1"/>
        <pt x="241" y="15" on="1"/>
        <pt x="239" y="6" on="0"/>
        <pt x="232" y="0" on="0"/>
        <pt x="222" y="0" on="1"/>
      </contour>
      <contour>
        <pt x="86" y="817" on="0"/>
        <pt x="138" y="858" on="0"/>
        <pt x="194" y="858" on="0"/>
        <pt x="318" y="817" on="0"/>
        <pt x="341" y="817" on="1"/>
        <pt x="376" y="817" on="0"/>
        <pt x="380" y="844" on="1"/>
        <pt x="382" y="857" on="0"/>
        <pt x="397" y="857" on="1"/>
        <pt x="421" y="857" on="1"/>
        <pt x="431" y="857" on="0"/>
        <pt x="431" y="847" on="1"/>
        <pt x="431" y="744" on="0"/>
        <pt x="337" y="744" on="1"/>
        <pt x="304" y="744" on="0"/>
        <pt x="180" y="782" on="0"/>
        <pt x="165" y="782" on="1"/>
        <pt x="135" y="782" on="0"/>
        <pt x="131" y="760" on="1"/>
        <pt x="130" y="753" on="0"/>
        <pt x="126" y="750" on="0"/>
        <pt x="118" y="750" on="1"/>
        <pt x="87" y="750" on="1"/>
        <pt x="76" y="750" on="0"/>
        <pt x="76" y="759" on="1"/>
        <pt x="76" y="761" on="0"/>
        <pt x="77" y="764" on="1"/>
      </contour>
    </TTGlyph>
    <TTGlyph name="J" xMin="-37" yMin="-240" xMax="442" yMax="679">
      <contour>
        <pt x="428" y="679" on="1"/>
        <pt x="442" y="679" on="0"/>
        <pt x="442" y="671" on="1"/>
        <pt x="442" y="668" on="0"/>
        <pt x="441" y="664" on="1"/>
        <pt x="317" y="-42" on="1"/>
        <pt x="299" y="-140" on="0"/>
        <pt x="204" y="-240" on="0"/>
        <pt x="108" y="-240" on="1"/>
        <pt x="36" y="-240" on="0"/>
        <pt x="-26" y="-214" on="1"/>
        <pt x="-36" y="-210" on="0"/>
        <pt x="-36" y="-197" on="0"/>
        <pt x="-35" y="-193" on="1"/>
        <pt x="-19" y="-152" on="1"/>
        <pt x="-13" y="-138" on="0"/>
        <pt x="2" y="-143" on="1"/>
        <pt x="49" y="-160" on="0"/>
        <pt x="145" y="-160" on="0"/>
        <pt x="197" y="-92" on="0"/>
        <pt x="210" y="-18" on="1"/>
        <pt x="318" y="599" on="1"/>
        <pt x="187" y="599" on="1"/>
        <pt x="177" y="531" on="1"/>
        <pt x="175" y="522" on="0"/>
        <pt x="169" y="516" on="0"/>
        <pt x="159" y="516" on="1"/>
        <pt x="100" y="516" on="1"/>
        <pt x="90" y="516" on="0"/>
        <pt x="85" y="522" on="0"/>
        <pt x="87" y="531" on="1"/>
        <pt x="110" y="664" on="1"/>
        <pt x="112" y="679" on="0"/>
        <pt x="129" y="679" on="1"/>
      </contour>
    </TTGlyph>
    <TTGlyph name="Jcircumflex" xMin="-37" yMin="-240" xMax="442" yMax="863">
      <contour>
        <pt x="428" y="679" on="1"/>
        <pt x="442" y="679" on="0"/>
        <pt x="442" y="671" on="1"/>
        <pt x="442" y="668" on="0"/>
        <pt x="441" y="664" on="1"/>
        <pt x="317" y="-42" on="1"/>
        <pt x="299" y="-140" on="0"/>
        <pt x="204" y="-240" on="0"/>
        <pt x="108" y="-240" on="1"/>
        <pt x="36" y="-240" on="0"/>
        <pt x="-26" y="-214" on="1"/>
        <pt x="-36" y="-210" on="0"/>
        <pt x="-36" y="-197" on="0"/>
        <pt x="-35" y="-193" on="1"/>
        <pt x="-19" y="-152" on="1"/>
        <pt x="-13" y="-138" on="0"/>
        <pt x="2" y="-143" on="1"/>
        <pt x="49" y="-160" on="0"/>
        <pt x="145" y="-160" on="0"/>
        <pt x="197" y="-92" on="0"/>
        <pt x="210" y="-18" on="1"/>
        <pt x="318" y="599" on="1"/>
        <pt x="187" y="599" on="1"/>
        <pt x="177" y="531" on="1"/>
        <pt x="175" y="522" on="0"/>
        <pt x="169" y="516" on="0"/>
        <pt x="159" y="516" on="1"/>
        <pt x="100" y="516" on="1"/>
        <pt x="90" y="516" on="0"/>
        <pt x="85" y="522" on="0"/>
        <pt x="87" y="531" on="1"/>
        <pt x="110" y="664" on="1"/>
        <pt x="112" y="679" on="0"/>
        <pt x="129" y="679" on="1"/>
      </contour>
      <contour>
        <pt x="203" y="732" on="1"/>
        <pt x="140" y="732" on="1"/>
        <pt x="132" y="732" on="0"/>
        <pt x="132" y="739" on="0"/>
        <pt x="136" y="744" on="1"/>
        <pt x="237" y="851" on="1"/>
        <pt x="248" y="863" on="0"/>
        <pt x="263" y="863" on="1"/>
        <pt x="339" y="863" on="1"/>
        <pt x="354" y="863" on="0"/>
        <pt x="361" y="851" on="1"/>
        <pt x="424" y="744" on="1"/>
        <pt x="427" y="740" on="0"/>
        <pt x="427" y="732" on="0"/>
        <pt x="416" y="732" on="1"/>
        <pt x="364" y="732" on="1"/>
        <pt x="348" y="732" on="0"/>
        <pt x="341" y="744" on="1"/>
        <pt x="296" y="815" on="1"/>
        <pt x="229" y="744" on="1"/>
        <pt x="219" y="732" on="0"/>
      </contour>
    </TTGlyph>
    <TTGlyph name="K" xMin="-8" yMin="-12" xMax="668" yMax="679">
      <contour>
        <pt x="6" y="0" on="1"/>
        <pt x="-8" y="0" on="0"/>
        <pt x="-8" y="8" on="1"/>
        <pt x="-8" y="11" on="0"/>
        <pt x="-7" y="15" on="1"/>
        <pt x="1" y="65" on="1"/>
        <pt x="3" y="74" on="0"/>
        <pt x="10" y="80" on="0"/>
        <pt x="20" y="79" on="1"/>
        <pt x="71" y="79" on="1"/>
        <pt x="162" y="598" on="1"/>
        <pt x="110" y="598" on="1"/>
        <pt x="100" y="597" on="0"/>
        <pt x="95" y="603" on="0"/>
        <pt x="97" y="612" on="1"/>
        <pt x="105" y="664" on="1"/>
        <pt x="107" y="673" on="0"/>
        <pt x="114" y="679" on="0"/>
        <pt x="124" y="679" on="1"/>
        <pt x="340" y="679" on="1"/>
        <pt x="350" y="679" on="0"/>
        <pt x="355" y="673" on="0"/>
        <pt x="353" y="664" on="1"/>
        <pt x="345" y="612" on="1"/>
        <pt x="343" y="603" on="0"/>
        <pt x="336" y="597" on="0"/>
        <pt x="326" y="598" on="1"/>
        <pt x="274" y="598" on="1"/>
        <pt x="236" y="384" on="1"/>
        <pt x="287" y="384" on="1"/>
        <pt x="487" y="598" on="1"/>
        <pt x="442" y="598" on="1"/>
        <pt x="432" y="597" on="0"/>
        <pt x="427" y="603" on="0"/>
        <pt x="428" y="612" on="1"/>
        <pt x="437" y="664" on="1"/>
        <pt x="439" y="673" on="0"/>
        <pt x="445" y="679" on="0"/>
        <pt x="455" y="679" on="1"/>
        <pt x="654" y="679" on="1"/>
        <pt x="668" y="679" on="0"/>
        <pt x="668" y="671" on="1"/>
        <pt x="668" y="668" on="0"/>
        <pt x="667" y="664" on="1"/>
        <pt x="657" y="612" on="1"/>
        <pt x="655" y="603" on="0"/>
        <pt x="648" y="597" on="0"/>
        <pt x="638" y="598" on="1"/>
        <pt x="586" y="598" on="1"/>
        <pt x="364" y="363" on="1"/>
        <pt x="510" y="94" on="1"/>
        <pt x="529" y="60" on="0"/>
        <pt x="566" y="60" on="0"/>
        <pt x="596" y="73" on="0"/>
        <pt x="603" y="59" on="1"/>
        <pt x="613" y="43" on="1"/>
        <pt x="618" y="35" on="0"/>
        <pt x="615" y="26" on="0"/>
        <pt x="607" y="21" on="1"/>
        <pt x="558" y="-12" on="0"/>
        <pt x="466" y="-12" on="0"/>
        <pt x="419" y="22" on="0"/>
        <pt x="394" y="69" on="1"/>
        <pt x="270" y="302" on="1"/>
        <pt x="222" y="302" on="1"/>
        <pt x="183" y="79" on="1"/>
        <pt x="235" y="79" on="1"/>
        <pt x="245" y="80" on="0"/>
        <pt x="250" y="74" on="0"/>
        <pt x="248" y="65" on="1"/>
        <pt x="240" y="15" on="1"/>
        <pt x="238" y="6" on="0"/>
        <pt x="231" y="0" on="0"/>
        <pt x="221" y="0" on="1"/>
      </contour>
    </TTGlyph>
    <TTGlyph name="Kcommaaccent" xMin="-8" yMin="-285" xMax="668" yMax="679">
      <contour>
        <pt x="6" y="0" on="1"/>
        <pt x="-8" y="0" on="0"/>
        <pt x="-8" y="8" on="1"/>
        <pt x="-8" y="11" on="0"/>
        <pt x="-7" y="15" on="1"/>
        <pt x="1" y="65" on="1"/>
        <pt x="3" y="74" on="0"/>
        <pt x="10" y="80" on="0"/>
        <pt x="20" y="79" on="1"/>
        <pt x="71" y="79" on="1"/>
        <pt x="162" y="598" on="1"/>
        <pt x="110" y="598" on="1"/>
        <pt x="100" y="597" on="0"/>
        <pt x="95" y="603" on="0"/>
        <pt x="97" y="612" on="1"/>
        <pt x="105" y="664" on="1"/>
        <pt x="107" y="673" on="0"/>
        <pt x="114" y="679" on="0"/>
        <pt x="124" y="679" on="1"/>
        <pt x="340" y="679" on="1"/>
        <pt x="350" y="679" on="0"/>
        <pt x="355" y="673" on="0"/>
        <pt x="353" y="664" on="1"/>
        <pt x="345" y="612" on="1"/>
        <pt x="343" y="603" on="0"/>
        <pt x="336" y="597" on="0"/>
        <pt x="326" y="598" on="1"/>
        <pt x="274" y="598" on="1"/>
        <pt x="236" y="384" on="1"/>
        <pt x="287" y="384" on="1"/>
        <pt x="487" y="598" on="1"/>
        <pt x="442" y="598" on="1"/>
        <pt x="432" y="597" on="0"/>
        <pt x="427" y="603" on="0"/>
        <pt x="428" y="612" on="1"/>
        <pt x="437" y="664" on="1"/>
        <pt x="439" y="673" on="0"/>
        <pt x="445" y="679" on="0"/>
        <pt x="455" y="679" on="1"/>
        <pt x="654" y="679" on="1"/>
        <pt x="668" y="679" on="0"/>
        <pt x="668" y="671" on="1"/>
        <pt x="668" y="668" on="0"/>
        <pt x="667" y="664" on="1"/>
        <pt x="657" y="612" on="1"/>
        <pt x="655" y="603" on="0"/>
        <pt x="648" y="597" on="0"/>
        <pt x="638" y="598" on="1"/>
        <pt x="586" y="598" on="1"/>
        <pt x="364" y="363" on="1"/>
        <pt x="510" y="94" on="1"/>
        <pt x="529" y="60" on="0"/>
        <pt x="566" y="60" on="0"/>
        <pt x="596" y="73" on="0"/>
        <pt x="603" y="59" on="1"/>
        <pt x="613" y="43" on="1"/>
        <pt x="618" y="35" on="0"/>
        <pt x="615" y="26" on="0"/>
        <pt x="607" y="21" on="1"/>
        <pt x="558" y="-12" on="0"/>
        <pt x="466" y="-12" on="0"/>
        <pt x="419" y="22" on="0"/>
        <pt x="394" y="69" on="1"/>
        <pt x="270" y="302" on="1"/>
        <pt x="222" y="302" on="1"/>
        <pt x="183" y="79" on="1"/>
        <pt x="235" y="79" on="1"/>
        <pt x="245" y="80" on="0"/>
        <pt x="250" y="74" on="0"/>
        <pt x="248" y="65" on="1"/>
        <pt x="240" y="15" on="1"/>
        <pt x="238" y="6" on="0"/>
        <pt x="231" y="0" on="0"/>
        <pt x="221" y="0" on="1"/>
      </contour>
      <contour>
        <pt x="285" y="-226" on="1"/>
        <pt x="241" y="-277" on="1"/>
        <pt x="235" y="-285" on="0"/>
        <pt x="229" y="-285" on="1"/>
        <pt x="227" y="-285" on="0"/>
        <pt x="209" y="-278" on="1"/>
        <pt x="200" y="-272" on="0"/>
        <pt x="200" y="-260" on="0"/>
        <pt x="202" y="-256" on="1"/>
        <pt x="233" y="-192" on="1"/>
        <pt x="212" y="-167" on="0"/>
        <pt x="212" y="-108" on="0"/>
        <pt x="248" y="-70" on="0"/>
        <pt x="304" y="-70" on="0"/>
        <pt x="336" y="-102" on="0"/>
        <pt x="336" y="-145" on="0"/>
        <pt x="318" y="-184" on="0"/>
        <pt x="305" y="-201" on="0"/>
      </contour>
    </TTGlyph>
    <TTGlyph name="L" xMin="-8" yMin="-53" xMax="487" yMax="679">
      <contour>
        <pt x="6" y="0" on="1"/>
        <pt x="-8" y="0" on="0"/>
        <pt x="-8" y="8" on="1"/>
        <pt x="-8" y="11" on="0"/>
        <pt x="-7" y="15" on="1"/>
        <pt x="1" y="65" on="1"/>
        <pt x="3" y="74" on="0"/>
        <pt x="10" y="80" on="0"/>
        <pt x="20" y="79" on="1"/>
        <pt x="72" y="79" on="1"/>
        <pt x="162" y="598" on="1"/>
        <pt x="110" y="598" on="1"/>
        <pt x="100" y="597" on="0"/>
        <pt x="95" y="603" on="0"/>
        <pt x="97" y="612" on="1"/>
        <pt x="106" y="664" on="1"/>
        <pt x="108" y="679" on="0"/>
        <pt x="125" y="679" on="1"/>
        <pt x="341" y="679" on="1"/>
        <pt x="351" y="679" on="0"/>
        <pt x="356" y="673" on="0"/>
        <pt x="354" y="664" on="1"/>
        <pt x="345" y="612" on="1"/>
        <pt x="343" y="603" on="0"/>
        <pt x="336" y="597" on="0"/>
        <pt x="326" y="598" on="1"/>
        <pt x="275" y="598" on="1"/>
        <pt x="184" y="80" on="1"/>
        <pt x="391" y="80" on="1"/>
        <pt x="401" y="149" on="1"/>
        <pt x="403" y="158" on="0"/>
        <pt x="409" y="164" on="0"/>
        <pt x="419" y="164" on="1"/>
        <pt x="473" y="164" on="1"/>
        <pt x="487" y="164" on="0"/>
        <pt x="487" y="156" on="1"/>
        <pt x="487" y="153" on="0"/>
        <pt x="486" y="149" on="1"/>
        <pt x="453" y="-38" on="1"/>
        <pt x="452" y="-47" on="0"/>
        <pt x="444" y="-53" on="0"/>
        <pt x="434" y="-53" on="1"/>
        <pt x="380" y="-53" on="1"/>
        <pt x="370" y="-53" on="0"/>
        <pt x="366" y="-47" on="0"/>
        <pt x="368" y="-38" on="1"/>
        <pt x="378" y="0" on="1"/>
      </contour>
    </TTGlyph>
    <TTGlyph name="Lacute" xMin="-8" yMin="-53" xMax="487" yMax="858">
      <contour>
        <pt x="6" y="0" on="1"/>
        <pt x="-8" y="0" on="0"/>
        <pt x="-8" y="8" on="1"/>
        <pt x="-8" y="11" on="0"/>
        <pt x="-7" y="15" on="1"/>
        <pt x="1" y="65" on="1"/>
        <pt x="3" y="74" on="0"/>
        <pt x="10" y="80" on="0"/>
        <pt x="20" y="79" on="1"/>
        <pt x="72" y="79" on="1"/>
        <pt x="162" y="598" on="1"/>
        <pt x="110" y="598" on="1"/>
        <pt x="100" y="597" on="0"/>
        <pt x="95" y="603" on="0"/>
        <pt x="97" y="612" on="1"/>
        <pt x="106" y="664" on="1"/>
        <pt x="108" y="679" on="0"/>
        <pt x="125" y="679" on="1"/>
        <pt x="341" y="679" on="1"/>
        <pt x="351" y="679" on="0"/>
        <pt x="356" y="673" on="0"/>
        <pt x="354" y="664" on="1"/>
        <pt x="345" y="612" on="1"/>
        <pt x="343" y="603" on="0"/>
        <pt x="336" y="597" on="0"/>
        <pt x="326" y="598" on="1"/>
        <pt x="275" y="598" on="1"/>
        <pt x="184" y="80" on="1"/>
        <pt x="391" y="80" on="1"/>
        <pt x="401" y="149" on="1"/>
        <pt x="403" y="158" on="0"/>
        <pt x="409" y="164" on="0"/>
        <pt x="419" y="164" on="1"/>
        <pt x="473" y="164" on="1"/>
        <pt x="487" y="164" on="0"/>
        <pt x="487" y="156" on="1"/>
        <pt x="487" y="153" on="0"/>
        <pt x="486" y="149" on="1"/>
        <pt x="453" y="-38" on="1"/>
        <pt x="452" y="-47" on="0"/>
        <pt x="444" y="-53" on="0"/>
        <pt x="434" y="-53" on="1"/>
        <pt x="380" y="-53" on="1"/>
        <pt x="370" y="-53" on="0"/>
        <pt x="366" y="-47" on="0"/>
        <pt x="368" y="-38" on="1"/>
        <pt x="378" y="0" on="1"/>
      </contour>
      <contour>
        <pt x="196" y="746" on="1"/>
        <pt x="258" y="844" on="1"/>
        <pt x="266" y="858" on="0"/>
        <pt x="282" y="858" on="1"/>
        <pt x="363" y="858" on="1"/>
        <pt x="371" y="858" on="0"/>
        <pt x="371" y="851" on="0"/>
        <pt x="366" y="846" on="1"/>
        <pt x="279" y="744" on="1"/>
        <pt x="268" y="732" on="0"/>
        <pt x="253" y="732" on="1"/>
        <pt x="202" y="732" on="1"/>
        <pt x="193" y="732" on="0"/>
        <pt x="193" y="741" on="0"/>
      </contour>
    </TTGlyph>
    <TTGlyph name="Lcaron" xMin="-8" yMin="-53" xMax="539" yMax="679">
      <contour>
        <pt x="6" y="0" on="1"/>
        <pt x="-8" y="0" on="0"/>
        <pt x="-8" y="8" on="1"/>
        <pt x="-8" y="11" on="0"/>
        <pt x="-7" y="15" on="1"/>
        <pt x="1" y="65" on="1"/>
        <pt x="3" y="74" on="0"/>
        <pt x="10" y="80" on="0"/>
        <pt x="20" y="79" on="1"/>
        <pt x="72" y="79" on="1"/>
        <pt x="162" y="598" on="1"/>
        <pt x="110" y="598" on="1"/>
        <pt x="100" y="597" on="0"/>
        <pt x="95" y="603" on="0"/>
        <pt x="97" y="612" on="1"/>
        <pt x="106" y="664" on="1"/>
        <pt x="108" y="679" on="0"/>
        <pt x="125" y="679" on="1"/>
        <pt x="341" y="679" on="1"/>
        <pt x="351" y="679" on="0"/>
        <pt x="356" y="673" on="0"/>
        <pt x="354" y="664" on="1"/>
        <pt x="345" y="612" on="1"/>
        <pt x="343" y="603" on="0"/>
        <pt x="336" y="597" on="0"/>
        <pt x="326" y="598" on="1"/>
        <pt x="275" y="598" on="1"/>
        <pt x="184" y="80" on="1"/>
        <pt x="391" y="80" on="1"/>
        <pt x="401" y="149" on="1"/>
        <pt x="403" y="158" on="0"/>
        <pt x="409" y="164" on="0"/>
        <pt x="419" y="164" on="1"/>
        <pt x="473" y="164" on="1"/>
        <pt x="483" y="164" on="0"/>
        <pt x="488" y="158" on="0"/>
        <pt x="486" y="149" on="1"/>
        <pt x="453" y="-38" on="1"/>
        <pt x="452" y="-47" on="0"/>
        <pt x="444" y="-53" on="0"/>
        <pt x="434" y="-53" on="1"/>
        <pt x="380" y="-53" on="1"/>
        <pt x="370" y="-53" on="0"/>
        <pt x="366" y="-47" on="0"/>
        <pt x="368" y="-38" on="1"/>
        <pt x="378" y="0" on="1"/>
      </contour>
      <contour>
        <pt x="438" y="664" on="1"/>
        <pt x="441" y="679" on="0"/>
        <pt x="456" y="679" on="1"/>
        <pt x="528" y="679" on="1"/>
        <pt x="539" y="679" on="0"/>
        <pt x="539" y="670" on="1"/>
        <pt x="539" y="667" on="0"/>
        <pt x="538" y="664" on="1"/>
        <pt x="473" y="474" on="1"/>
        <pt x="468" y="459" on="0"/>
        <pt x="452" y="459" on="1"/>
        <pt x="417" y="459" on="1"/>
        <pt x="404" y="459" on="0"/>
        <pt x="404" y="469" on="1"/>
        <pt x="404" y="472" on="0"/>
        <pt x="405" y="474" on="1"/>
      </contour>
    </TTGlyph>
    <TTGlyph name="Lcommaaccent" xMin="-8" yMin="-285" xMax="487" yMax="679">
      <contour>
        <pt x="6" y="0" on="1"/>
        <pt x="-8" y="0" on="0"/>
        <pt x="-8" y="8" on="1"/>
        <pt x="-8" y="11" on="0"/>
        <pt x="-7" y="15" on="1"/>
        <pt x="1" y="65" on="1"/>
        <pt x="3" y="74" on="0"/>
        <pt x="10" y="80" on="0"/>
        <pt x="20" y="79" on="1"/>
        <pt x="72" y="79" on="1"/>
        <pt x="162" y="598" on="1"/>
        <pt x="110" y="598" on="1"/>
        <pt x="100" y="597" on="0"/>
        <pt x="95" y="603" on="0"/>
        <pt x="97" y="612" on="1"/>
        <pt x="106" y="664" on="1"/>
        <pt x="108" y="679" on="0"/>
        <pt x="125" y="679" on="1"/>
        <pt x="341" y="679" on="1"/>
        <pt x="351" y="679" on="0"/>
        <pt x="356" y="673" on="0"/>
        <pt x="354" y="664" on="1"/>
        <pt x="345" y="612" on="1"/>
        <pt x="343" y="603" on="0"/>
        <pt x="336" y="597" on="0"/>
        <pt x="326" y="598" on="1"/>
        <pt x="275" y="598" on="1"/>
        <pt x="184" y="80" on="1"/>
        <pt x="391" y="80" on="1"/>
        <pt x="401" y="149" on="1"/>
        <pt x="403" y="158" on="0"/>
        <pt x="409" y="164" on="0"/>
        <pt x="419" y="164" on="1"/>
        <pt x="473" y="164" on="1"/>
        <pt x="487" y="164" on="0"/>
        <pt x="487" y="156" on="1"/>
        <pt x="487" y="153" on="0"/>
        <pt x="486" y="149" on="1"/>
        <pt x="453" y="-38" on="1"/>
        <pt x="452" y="-47" on="0"/>
        <pt x="444" y="-53" on="0"/>
        <pt x="434" y="-53" on="1"/>
        <pt x="380" y="-53" on="1"/>
        <pt x="370" y="-53" on="0"/>
        <pt x="366" y="-47" on="0"/>
        <pt x="368" y="-38" on="1"/>
        <pt x="378" y="0" on="1"/>
      </contour>
      <contour>
        <pt x="207" y="-226" on="1"/>
        <pt x="163" y="-277" on="1"/>
        <pt x="157" y="-285" on="0"/>
        <pt x="151" y="-285" on="1"/>
        <pt x="149" y="-285" on="0"/>
        <pt x="131" y="-278" on="1"/>
        <pt x="122" y="-272" on="0"/>
        <pt x="122" y="-260" on="0"/>
        <pt x="124" y="-256" on="1"/>
        <pt x="155" y="-192" on="1"/>
        <pt x="134" y="-167" on="0"/>
        <pt x="134" y="-108" on="0"/>
        <pt x="170" y="-70" on="0"/>
        <pt x="226" y="-70" on="0"/>
        <pt x="258" y="-102" on="0"/>
        <pt x="258" y="-145" on="0"/>
        <pt x="240" y="-184" on="0"/>
        <pt x="227" y="-201" on="0"/>
      </contour>
    </TTGlyph>
    <TTGlyph name="Ldot" xMin="-8" yMin="-53" xMax="506" yMax="679">
      <contour>
        <pt x="6" y="0" on="1"/>
        <pt x="-8" y="0" on="0"/>
        <pt x="-8" y="8" on="1"/>
        <pt x="-8" y="11" on="0"/>
        <pt x="-7" y="15" on="1"/>
        <pt x="1" y="65" on="1"/>
        <pt x="3" y="74" on="0"/>
        <pt x="10" y="80" on="0"/>
        <pt x="20" y="79" on="1"/>
        <pt x="72" y="79" on="1"/>
        <pt x="162" y="598" on="1"/>
        <pt x="110" y="598" on="1"/>
        <pt x="100" y="597" on="0"/>
        <pt x="95" y="603" on="0"/>
        <pt x="97" y="612" on="1"/>
        <pt x="106" y="664" on="1"/>
        <pt x="108" y="679" on="0"/>
        <pt x="125" y="679" on="1"/>
        <pt x="341" y="679" on="1"/>
        <pt x="351" y="679" on="0"/>
        <pt x="356" y="673" on="0"/>
        <pt x="354" y="664" on="1"/>
        <pt x="345" y="612" on="1"/>
        <pt x="343" y="603" on="0"/>
        <pt x="336" y="597" on="0"/>
        <pt x="326" y="598" on="1"/>
        <pt x="275" y="598" on="1"/>
        <pt x="184" y="80" on="1"/>
        <pt x="391" y="80" on="1"/>
        <pt x="401" y="149" on="1"/>
        <pt x="403" y="158" on="0"/>
        <pt x="409" y="164" on="0"/>
        <pt x="419" y="164" on="1"/>
        <pt x="473" y="164" on="1"/>
        <pt x="483" y="164" on="0"/>
        <pt x="488" y="158" on="0"/>
        <pt x="486" y="149" on="1"/>
        <pt x="453" y="-38" on="1"/>
        <pt x="452" y="-47" on="0"/>
        <pt x="444" y="-53" on="0"/>
        <pt x="434" y="-53" on="1"/>
        <pt x="380" y="-53" on="1"/>
        <pt x="370" y="-53" on="0"/>
        <pt x="366" y="-47" on="0"/>
        <pt x="368" y="-38" on="1"/>
        <pt x="378" y="0" on="1"/>
      </contour>
      <contour>
        <pt x="506" y="299" on="0"/>
        <pt x="461" y="256" on="0"/>
        <pt x="397" y="256" on="0"/>
        <pt x="361" y="294" on="0"/>
        <pt x="361" y="355" on="0"/>
        <pt x="408" y="399" on="0"/>
        <pt x="470" y="399" on="0"/>
        <pt x="506" y="361" on="0"/>
      </contour>
    </TTGlyph>
    <TTGlyph name="Lslash" xMin="-8" yMin="-53" xMax="487" yMax="679">
      <contour>
        <pt x="6" y="0" on="1"/>
        <pt x="-8" y="0" on="0"/>
        <pt x="-8" y="8" on="1"/>
        <pt x="-8" y="11" on="0"/>
        <pt x="-7" y="15" on="1"/>
        <pt x="1" y="65" on="1"/>
        <pt x="3" y="74" on="0"/>
        <pt x="10" y="80" on="0"/>
        <pt x="20" y="79" on="1"/>
        <pt x="72" y="79" on="1"/>
        <pt x="109" y="293" on="1"/>
        <pt x="33" y="272" on="1"/>
        <pt x="25" y="270" on="0"/>
        <pt x="19" y="275" on="0"/>
        <pt x="21" y="283" on="1"/>
        <pt x="27" y="319" on="1"/>
        <pt x="30" y="334" on="0"/>
        <pt x="45" y="338" on="1"/>
        <pt x="120" y="358" on="1"/>
        <pt x="162" y="598" on="1"/>
        <pt x="110" y="598" on="1"/>
        <pt x="100" y="597" on="0"/>
        <pt x="95" y="603" on="0"/>
        <pt x="97" y="612" on="1"/>
        <pt x="106" y="664" on="1"/>
        <pt x="108" y="679" on="0"/>
        <pt x="125" y="679" on="1"/>
        <pt x="341" y="679" on="1"/>
        <pt x="351" y="679" on="0"/>
        <pt x="356" y="673" on="0"/>
        <pt x="354" y="664" on="1"/>
        <pt x="345" y="612" on="1"/>
        <pt x="343" y="603" on="0"/>
        <pt x="336" y="597" on="0"/>
        <pt x="326" y="598" on="1"/>
        <pt x="275" y="598" on="1"/>
        <pt x="237" y="384" on="1"/>
        <pt x="415" y="434" on="1"/>
        <pt x="423" y="436" on="0"/>
        <pt x="429" y="431" on="0"/>
        <pt x="427" y="423" on="1"/>
        <pt x="423" y="391" on="1"/>
        <pt x="421" y="382" on="0"/>
        <pt x="414" y="374" on="0"/>
        <pt x="405" y="372" on="1"/>
        <pt x="226" y="320" on="1"/>
        <pt x="184" y="80" on="1"/>
        <pt x="391" y="80" on="1"/>
        <pt x="401" y="149" on="1"/>
        <pt x="403" y="158" on="0"/>
        <pt x="409" y="164" on="0"/>
        <pt x="419" y="164" on="1"/>
        <pt x="473" y="164" on="1"/>
        <pt x="487" y="164" on="0"/>
        <pt x="487" y="156" on="1"/>
        <pt x="487" y="153" on="0"/>
        <pt x="486" y="149" on="1"/>
        <pt x="453" y="-38" on="1"/>
        <pt x="452" y="-47" on="0"/>
        <pt x="444" y="-53" on="0"/>
        <pt x="434" y="-53" on="1"/>
        <pt x="380" y="-53" on="1"/>
        <pt x="370" y="-53" on="0"/>
        <pt x="366" y="-47" on="0"/>
        <pt x="368" y="-38" on="1"/>
        <pt x="378" y="0" on="1"/>
      </contour>
    </TTGlyph>
    <TTGlyph name="M" xMin="-8" yMin="-12" xMax="936" yMax="679">
      <contour>
        <pt x="922" y="679" on="1"/>
        <pt x="936" y="679" on="0"/>
        <pt x="936" y="671" on="1"/>
        <pt x="936" y="668" on="0"/>
        <pt x="935" y="664" on="1"/>
        <pt x="926" y="612" on="1"/>
        <pt x="924" y="603" on="0"/>
        <pt x="917" y="597" on="0"/>
        <pt x="907" y="598" on="1"/>
        <pt x="856" y="598" on="1"/>
        <pt x="773" y="100" on="1"/>
        <pt x="772" y="93" on="0"/>
        <pt x="772" y="88" on="1"/>
        <pt x="772" y="69" on="0"/>
        <pt x="788" y="69" on="1"/>
        <pt x="800" y="69" on="0"/>
        <pt x="833" y="83" on="0"/>
        <pt x="839" y="70" on="1"/>
        <pt x="847" y="54" on="1"/>
        <pt x="854" y="41" on="0"/>
        <pt x="842" y="31" on="1"/>
        <pt x="788" y="-12" on="0"/>
        <pt x="733" y="-12" on="1"/>
        <pt x="656" y="-12" on="0"/>
        <pt x="656" y="57" on="1"/>
        <pt x="656" y="69" on="0"/>
        <pt x="658" y="83" on="1"/>
        <pt x="732" y="507" on="1"/>
        <pt x="459" y="14" on="1"/>
        <pt x="450" y="0" on="0"/>
        <pt x="435" y="0" on="1"/>
        <pt x="361" y="0" on="1"/>
        <pt x="344" y="0" on="0"/>
        <pt x="342" y="15" on="1"/>
        <pt x="232" y="508" on="1"/>
        <pt x="155" y="79" on="1"/>
        <pt x="220" y="79" on="1"/>
        <pt x="230" y="80" on="0"/>
        <pt x="235" y="74" on="0"/>
        <pt x="234" y="65" on="1"/>
        <pt x="225" y="15" on="1"/>
        <pt x="223" y="6" on="0"/>
        <pt x="217" y="0" on="0"/>
        <pt x="207" y="0" on="1"/>
        <pt x="6" y="0" on="1"/>
        <pt x="-4" y="0" on="0"/>
        <pt x="-9" y="6" on="0"/>
        <pt x="-8" y="15" on="1"/>
        <pt x="1" y="65" on="1"/>
        <pt x="3" y="74" on="0"/>
        <pt x="9" y="80" on="0"/>
        <pt x="19" y="79" on="1"/>
        <pt x="71" y="79" on="1"/>
        <pt x="162" y="598" on="1"/>
        <pt x="111" y="598" on="1"/>
        <pt x="101" y="597" on="0"/>
        <pt x="96" y="603" on="0"/>
        <pt x="98" y="612" on="1"/>
        <pt x="106" y="664" on="1"/>
        <pt x="108" y="673" on="0"/>
        <pt x="115" y="679" on="0"/>
        <pt x="125" y="679" on="1"/>
        <pt x="295" y="679" on="1"/>
        <pt x="312" y="679" on="0"/>
        <pt x="314" y="664" on="1"/>
        <pt x="430" y="120" on="1"/>
        <pt x="726" y="665" on="1"/>
        <pt x="734" y="679" on="0"/>
        <pt x="749" y="679" on="1"/>
      </contour>
    </TTGlyph>
    <TTGlyph name="N" xMin="-8" yMin="0" xMax="780" yMax="679">
      <contour>
        <pt x="766" y="679" on="1"/>
        <pt x="780" y="679" on="0"/>
        <pt x="780" y="671" on="1"/>
        <pt x="780" y="668" on="0"/>
        <pt x="779" y="664" on="1"/>
        <pt x="771" y="612" on="1"/>
        <pt x="769" y="603" on="0"/>
        <pt x="762" y="597" on="0"/>
        <pt x="752" y="598" on="1"/>
        <pt x="701" y="598" on="1"/>
        <pt x="598" y="15" on="1"/>
        <pt x="596" y="0" on="0"/>
        <pt x="579" y="0" on="1"/>
        <pt x="508" y="0" on="1"/>
        <pt x="493" y="0" on="0"/>
        <pt x="485" y="14" on="1"/>
        <pt x="236" y="519" on="1"/>
        <pt x="159" y="79" on="1"/>
        <pt x="240" y="79" on="1"/>
        <pt x="250" y="80" on="0"/>
        <pt x="255" y="74" on="0"/>
        <pt x="253" y="65" on="1"/>
        <pt x="245" y="15" on="1"/>
        <pt x="243" y="6" on="0"/>
        <pt x="236" y="0" on="0"/>
        <pt x="226" y="0" on="1"/>
        <pt x="6" y="0" on="1"/>
        <pt x="-8" y="0" on="0"/>
        <pt x="-8" y="8" on="1"/>
        <pt x="-8" y="11" on="0"/>
        <pt x="-7" y="15" on="1"/>
        <pt x="2" y="65" on="1"/>
        <pt x="4" y="74" on="0"/>
        <pt x="11" y="80" on="0"/>
        <pt x="21" y="79" on="1"/>
        <pt x="73" y="79" on="1"/>
        <pt x="162" y="598" on="1"/>
        <pt x="110" y="598" on="1"/>
        <pt x="100" y="597" on="0"/>
        <pt x="95" y="603" on="0"/>
        <pt x="97" y="612" on="1"/>
        <pt x="106" y="664" on="1"/>
        <pt x="108" y="679" on="0"/>
        <pt x="125" y="679" on="1"/>
        <pt x="267" y="679" on="1"/>
        <pt x="282" y="679" on="0"/>
        <pt x="290" y="665" on="1"/>
        <pt x="534" y="161" on="1"/>
        <pt x="614" y="598" on="1"/>
        <pt x="564" y="598" on="1"/>
        <pt x="554" y="597" on="0"/>
        <pt x="549" y="603" on="0"/>
        <pt x="551" y="612" on="1"/>
        <pt x="559" y="664" on="1"/>
        <pt x="561" y="673" on="0"/>
        <pt x="568" y="679" on="0"/>
        <pt x="578" y="679" on="1"/>
      </contour>
    </TTGlyph>
    <TTGlyph name="Nacute" xMin="-8" yMin="0" xMax="780" yMax="858">
      <contour>
        <pt x="766" y="679" on="1"/>
        <pt x="780" y="679" on="0"/>
        <pt x="780" y="671" on="1"/>
        <pt x="780" y="668" on="0"/>
        <pt x="779" y="664" on="1"/>
        <pt x="771" y="612" on="1"/>
        <pt x="769" y="603" on="0"/>
        <pt x="762" y="597" on="0"/>
        <pt x="752" y="598" on="1"/>
        <pt x="701" y="598" on="1"/>
        <pt x="598" y="15" on="1"/>
        <pt x="596" y="0" on="0"/>
        <pt x="579" y="0" on="1"/>
        <pt x="508" y="0" on="1"/>
        <pt x="493" y="0" on="0"/>
        <pt x="485" y="14" on="1"/>
        <pt x="236" y="519" on="1"/>
        <pt x="159" y="79" on="1"/>
        <pt x="240" y="79" on="1"/>
        <pt x="250" y="80" on="0"/>
        <pt x="255" y="74" on="0"/>
        <pt x="253" y="65" on="1"/>
        <pt x="245" y="15" on="1"/>
        <pt x="243" y="6" on="0"/>
        <pt x="236" y="0" on="0"/>
        <pt x="226" y="0" on="1"/>
        <pt x="6" y="0" on="1"/>
        <pt x="-8" y="0" on="0"/>
        <pt x="-8" y="8" on="1"/>
        <pt x="-8" y="11" on="0"/>
        <pt x="-7" y="15" on="1"/>
        <pt x="2" y="65" on="1"/>
        <pt x="4" y="74" on="0"/>
        <pt x="11" y="80" on="0"/>
        <pt x="21" y="79" on="1"/>
        <pt x="73" y="79" on="1"/>
        <pt x="162" y="598" on="1"/>
        <pt x="110" y="598" on="1"/>
        <pt x="100" y="597" on="0"/>
        <pt x="95" y="603" on="0"/>
        <pt x="97" y="612" on="1"/>
        <pt x="106" y="664" on="1"/>
        <pt x="108" y="679" on="0"/>
        <pt x="125" y="679" on="1"/>
        <pt x="267" y="679" on="1"/>
        <pt x="282" y="679" on="0"/>
        <pt x="290" y="665" on="1"/>
        <pt x="534" y="161" on="1"/>
        <pt x="614" y="598" on="1"/>
        <pt x="564" y="598" on="1"/>
        <pt x="554" y="597" on="0"/>
        <pt x="549" y="603" on="0"/>
        <pt x="551" y="612" on="1"/>
        <pt x="559" y="664" on="1"/>
        <pt x="561" y="673" on="0"/>
        <pt x="568" y="679" on="0"/>
        <pt x="578" y="679" on="1"/>
      </contour>
      <contour>
        <pt x="415" y="746" on="1"/>
        <pt x="477" y="844" on="1"/>
        <pt x="485" y="858" on="0"/>
        <pt x="501" y="858" on="1"/>
        <pt x="582" y="858" on="1"/>
        <pt x="590" y="858" on="0"/>
        <pt x="590" y="851" on="0"/>
        <pt x="585" y="846" on="1"/>
        <pt x="498" y="744" on="1"/>
        <pt x="488" y="732" on="0"/>
        <pt x="472" y="732" on="1"/>
        <pt x="421" y="732" on="1"/>
        <pt x="412" y="732" on="0"/>
        <pt x="412" y="741" on="0"/>
      </contour>
    </TTGlyph>
    <TTGlyph name="Ncaron" xMin="-8" yMin="0" xMax="780" yMax="863">
      <contour>
        <pt x="766" y="679" on="1"/>
        <pt x="780" y="679" on="0"/>
        <pt x="780" y="671" on="1"/>
        <pt x="780" y="668" on="0"/>
        <pt x="779" y="664" on="1"/>
        <pt x="771" y="612" on="1"/>
        <pt x="769" y="603" on="0"/>
        <pt x="762" y="597" on="0"/>
        <pt x="752" y="598" on="1"/>
        <pt x="701" y="598" on="1"/>
        <pt x="598" y="15" on="1"/>
        <pt x="596" y="0" on="0"/>
        <pt x="579" y="0" on="1"/>
        <pt x="508" y="0" on="1"/>
        <pt x="493" y="0" on="0"/>
        <pt x="485" y="14" on="1"/>
        <pt x="236" y="519" on="1"/>
        <pt x="159" y="79" on="1"/>
        <pt x="240" y="79" on="1"/>
        <pt x="250" y="80" on="0"/>
        <pt x="255" y="74" on="0"/>
        <pt x="253" y="65" on="1"/>
        <pt x="245" y="15" on="1"/>
        <pt x="243" y="6" on="0"/>
        <pt x="236" y="0" on="0"/>
        <pt x="226" y="0" on="1"/>
        <pt x="6" y="0" on="1"/>
        <pt x="-8" y="0" on="0"/>
        <pt x="-8" y="8" on="1"/>
        <pt x="-8" y="11" on="0"/>
        <pt x="-7" y="15" on="1"/>
        <pt x="2" y="65" on="1"/>
        <pt x="4" y="74" on="0"/>
        <pt x="11" y="80" on="0"/>
        <pt x="21" y="79" on="1"/>
        <pt x="73" y="79" on="1"/>
        <pt x="162" y="598" on="1"/>
        <pt x="110" y="598" on="1"/>
        <pt x="100" y="597" on="0"/>
        <pt x="95" y="603" on="0"/>
        <pt x="97" y="612" on="1"/>
        <pt x="106" y="664" on="1"/>
        <pt x="108" y="679" on="0"/>
        <pt x="125" y="679" on="1"/>
        <pt x="267" y="679" on="1"/>
        <pt x="282" y="679" on="0"/>
        <pt x="290" y="665" on="1"/>
        <pt x="534" y="161" on="1"/>
        <pt x="614" y="598" on="1"/>
        <pt x="564" y="598" on="1"/>
        <pt x="554" y="597" on="0"/>
        <pt x="549" y="603" on="0"/>
        <pt x="551" y="612" on="1"/>
        <pt x="559" y="664" on="1"/>
        <pt x="561" y="673" on="0"/>
        <pt x="568" y="679" on="0"/>
        <pt x="578" y="679" on="1"/>
      </contour>
      <contour>
        <pt x="553" y="863" on="1"/>
        <pt x="612" y="863" on="1"/>
        <pt x="620" y="863" on="0"/>
        <pt x="620" y="856" on="0"/>
        <pt x="616" y="851" on="1"/>
        <pt x="515" y="744" on="1"/>
        <pt x="504" y="732" on="0"/>
        <pt x="489" y="732" on="1"/>
        <pt x="413" y="732" on="1"/>
        <pt x="398" y="732" on="0"/>
        <pt x="391" y="744" on="1"/>
        <pt x="328" y="851" on="1"/>
        <pt x="326" y="855" on="0"/>
        <pt x="326" y="857" on="1"/>
        <pt x="326" y="863" on="0"/>
        <pt x="336" y="863" on="1"/>
        <pt x="389" y="863" on="1"/>
        <pt x="405" y="863" on="0"/>
        <pt x="412" y="851" on="1"/>
        <pt x="457" y="780" on="1"/>
        <pt x="527" y="851" on="1"/>
        <pt x="538" y="863" on="0"/>
      </contour>
    </TTGlyph>
    <TTGlyph name="Ncommaaccent" xMin="-8" yMin="-285" xMax="780" yMax="679">
      <contour>
        <pt x="766" y="679" on="1"/>
        <pt x="780" y="679" on="0"/>
        <pt x="780" y="671" on="1"/>
        <pt x="780" y="668" on="0"/>
        <pt x="779" y="664" on="1"/>
        <pt x="771" y="612" on="1"/>
        <pt x="769" y="603" on="0"/>
        <pt x="762" y="597" on="0"/>
        <pt x="752" y="598" on="1"/>
        <pt x="701" y="598" on="1"/>
        <pt x="598" y="15" on="1"/>
        <pt x="596" y="0" on="0"/>
        <pt x="579" y="0" on="1"/>
        <pt x="508" y="0" on="1"/>
        <pt x="493" y="0" on="0"/>
        <pt x="485" y="14" on="1"/>
        <pt x="236" y="519" on="1"/>
        <pt x="159" y="79" on="1"/>
        <pt x="240" y="79" on="1"/>
        <pt x="250" y="80" on="0"/>
        <pt x="255" y="74" on="0"/>
        <pt x="253" y="65" on="1"/>
        <pt x="245" y="15" on="1"/>
        <pt x="243" y="6" on="0"/>
        <pt x="236" y="0" on="0"/>
        <pt x="226" y="0" on="1"/>
        <pt x="6" y="0" on="1"/>
        <pt x="-8" y="0" on="0"/>
        <pt x="-8" y="8" on="1"/>
        <pt x="-8" y="11" on="0"/>
        <pt x="-7" y="15" on="1"/>
        <pt x="2" y="65" on="1"/>
        <pt x="4" y="74" on="0"/>
        <pt x="11" y="80" on="0"/>
        <pt x="21" y="79" on="1"/>
        <pt x="73" y="79" on="1"/>
        <pt x="162" y="598" on="1"/>
        <pt x="110" y="598" on="1"/>
        <pt x="100" y="597" on="0"/>
        <pt x="95" y="603" on="0"/>
        <pt x="97" y="612" on="1"/>
        <pt x="106" y="664" on="1"/>
        <pt x="108" y="679" on="0"/>
        <pt x="125" y="679" on="1"/>
        <pt x="267" y="679" on="1"/>
        <pt x="282" y="679" on="0"/>
        <pt x="290" y="665" on="1"/>
        <pt x="534" y="161" on="1"/>
        <pt x="614" y="598" on="1"/>
        <pt x="564" y="598" on="1"/>
        <pt x="554" y="597" on="0"/>
        <pt x="549" y="603" on="0"/>
        <pt x="551" y="612" on="1"/>
        <pt x="559" y="664" on="1"/>
        <pt x="561" y="673" on="0"/>
        <pt x="568" y="679" on="0"/>
        <pt x="578" y="679" on="1"/>
      </contour>
      <contour>
        <pt x="325" y="-226" on="1"/>
        <pt x="281" y="-277" on="1"/>
        <pt x="275" y="-285" on="0"/>
        <pt x="269" y="-285" on="1"/>
        <pt x="267" y="-285" on="0"/>
        <pt x="249" y="-278" on="1"/>
        <pt x="240" y="-272" on="0"/>
        <pt x="240" y="-260" on="0"/>
        <pt x="242" y="-256" on="1"/>
        <pt x="273" y="-192" on="1"/>
        <pt x="252" y="-167" on="0"/>
        <pt x="252" y="-108" on="0"/>
        <pt x="288" y="-70" on="0"/>
        <pt x="344" y="-70" on="0"/>
        <pt x="376" y="-102" on="0"/>
        <pt x="376" y="-145" on="0"/>
        <pt x="358" y="-184" on="0"/>
        <pt x="345" y="-201" on="0"/>
      </contour>
    </TTGlyph>
    <TTGlyph name="Ntilde" xMin="-8" yMin="0" xMax="780" yMax="858">
      <contour>
        <pt x="766" y="679" on="1"/>
        <pt x="780" y="679" on="0"/>
        <pt x="780" y="671" on="1"/>
        <pt x="780" y="668" on="0"/>
        <pt x="779" y="664" on="1"/>
        <pt x="771" y="612" on="1"/>
        <pt x="769" y="603" on="0"/>
        <pt x="762" y="597" on="0"/>
        <pt x="752" y="598" on="1"/>
        <pt x="701" y="598" on="1"/>
        <pt x="598" y="15" on="1"/>
        <pt x="596" y="0" on="0"/>
        <pt x="579" y="0" on="1"/>
        <pt x="508" y="0" on="1"/>
        <pt x="493" y="0" on="0"/>
        <pt x="485" y="14" on="1"/>
        <pt x="236" y="519" on="1"/>
        <pt x="159" y="79" on="1"/>
        <pt x="240" y="79" on="1"/>
        <pt x="250" y="80" on="0"/>
        <pt x="255" y="74" on="0"/>
        <pt x="253" y="65" on="1"/>
        <pt x="245" y="15" on="1"/>
        <pt x="243" y="6" on="0"/>
        <pt x="236" y="0" on="0"/>
        <pt x="226" y="0" on="1"/>
        <pt x="6" y="0" on="1"/>
        <pt x="-8" y="0" on="0"/>
        <pt x="-8" y="8" on="1"/>
        <pt x="-8" y="11" on="0"/>
        <pt x="-7" y="15" on="1"/>
        <pt x="2" y="65" on="1"/>
        <pt x="4" y="74" on="0"/>
        <pt x="11" y="80" on="0"/>
        <pt x="21" y="79" on="1"/>
        <pt x="73" y="79" on="1"/>
        <pt x="162" y="598" on="1"/>
        <pt x="110" y="598" on="1"/>
        <pt x="100" y="597" on="0"/>
        <pt x="95" y="603" on="0"/>
        <pt x="97" y="612" on="1"/>
        <pt x="106" y="664" on="1"/>
        <pt x="108" y="679" on="0"/>
        <pt x="125" y="679" on="1"/>
        <pt x="267" y="679" on="1"/>
        <pt x="282" y="679" on="0"/>
        <pt x="290" y="665" on="1"/>
        <pt x="534" y="161" on="1"/>
        <pt x="614" y="598" on="1"/>
        <pt x="564" y="598" on="1"/>
        <pt x="554" y="597" on="0"/>
        <pt x="549" y="603" on="0"/>
        <pt x="551" y="612" on="1"/>
        <pt x="559" y="664" on="1"/>
        <pt x="561" y="673" on="0"/>
        <pt x="568" y="679" on="0"/>
        <pt x="578" y="679" on="1"/>
      </contour>
      <contour>
        <pt x="292" y="817" on="0"/>
        <pt x="344" y="858" on="0"/>
        <pt x="400" y="858" on="0"/>
        <pt x="524" y="817" on="0"/>
        <pt x="547" y="817" on="1"/>
        <pt x="582" y="817" on="0"/>
        <pt x="586" y="844" on="1"/>
        <pt x="588" y="857" on="0"/>
        <pt x="603" y="857" on="1"/>
        <pt x="627" y="857" on="1"/>
        <pt x="637" y="857" on="0"/>
        <pt x="637" y="847" on="1"/>
        <pt x="637" y="744" on="0"/>
        <pt x="543" y="744" on="1"/>
        <pt x="511" y="744" on="0"/>
        <pt x="386" y="782" on="0"/>
        <pt x="371" y="782" on="1"/>
        <pt x="341" y="782" on="0"/>
        <pt x="337" y="760" on="1"/>
        <pt x="336" y="753" on="0"/>
        <pt x="332" y="750" on="0"/>
        <pt x="324" y="750" on="1"/>
        <pt x="293" y="750" on="1"/>
        <pt x="282" y="750" on="0"/>
        <pt x="282" y="759" on="1"/>
        <pt x="282" y="761" on="0"/>
        <pt x="283" y="764" on="1"/>
      </contour>
    </TTGlyph>
    <TTGlyph name="O" xMin="48" yMin="-12" xMax="678" yMax="696">
      <contour>
        <pt x="678" y="426" on="1"/>
        <pt x="678" y="241" on="0"/>
        <pt x="471" y="-12" on="0"/>
        <pt x="296" y="-12" on="1"/>
        <pt x="179" y="-12" on="0"/>
        <pt x="48" y="133" on="0"/>
        <pt x="48" y="373" on="0"/>
        <pt x="134" y="571" on="0"/>
        <pt x="307" y="696" on="0"/>
        <pt x="421" y="696" on="1"/>
        <pt x="494" y="696" on="0"/>
        <pt x="556" y="664" on="1"/>
        <pt x="592" y="645" on="0"/>
        <pt x="644" y="587" on="0"/>
        <pt x="678" y="489" on="0"/>
      </contour>
      <contour>
        <pt x="405" y="608" on="1"/>
        <pt x="312" y="608" on="0"/>
        <pt x="207" y="491" on="0"/>
        <pt x="190" y="416" on="1"/>
        <pt x="171" y="340" on="0"/>
        <pt x="171" y="190" on="0"/>
        <pt x="238" y="82" on="0"/>
        <pt x="317" y="82" on="1"/>
        <pt x="371" y="82" on="0"/>
        <pt x="455" y="127" on="0"/>
        <pt x="506" y="196" on="0"/>
        <pt x="523" y="242" on="1"/>
        <pt x="552" y="320" on="0"/>
        <pt x="552" y="414" on="1"/>
        <pt x="552" y="608" on="0"/>
      </contour>
    </TTGlyph>
    <TTGlyph name="OE" xMin="48" yMin="-12" xMax="1002" yMax="696">
      <contour>
        <pt x="988" y="679" on="1"/>
        <pt x="1002" y="679" on="0"/>
        <pt x="1002" y="671" on="1"/>
        <pt x="1002" y="668" on="0"/>
        <pt x="1001" y="664" on="1"/>
        <pt x="978" y="530" on="1"/>
        <pt x="976" y="515" on="0"/>
        <pt x="959" y="515" on="1"/>
        <pt x="905" y="515" on="1"/>
        <pt x="895" y="515" on="0"/>
        <pt x="890" y="521" on="0"/>
        <pt x="892" y="530" on="1"/>
        <pt x="908" y="599" on="1"/>
        <pt x="701" y="599" on="1"/>
        <pt x="663" y="386" on="1"/>
        <pt x="856" y="386" on="1"/>
        <pt x="866" y="386" on="0"/>
        <pt x="871" y="380" on="0"/>
        <pt x="869" y="371" on="1"/>
        <pt x="861" y="323" on="1"/>
        <pt x="860" y="314" on="0"/>
        <pt x="852" y="308" on="0"/>
        <pt x="842" y="308" on="1"/>
        <pt x="650" y="308" on="1"/>
        <pt x="609" y="79" on="1"/>
        <pt x="838" y="79" on="1"/>
        <pt x="847" y="148" on="1"/>
        <pt x="849" y="158" on="0"/>
        <pt x="855" y="164" on="0"/>
        <pt x="865" y="164" on="1"/>
        <pt x="919" y="164" on="1"/>
        <pt x="929" y="164" on="0"/>
        <pt x="934" y="158" on="0"/>
        <pt x="932" y="149" on="1"/>
        <pt x="908" y="15" on="1"/>
        <pt x="906" y="0" on="0"/>
        <pt x="889" y="0" on="1"/>
        <pt x="490" y="0" on="1"/>
        <pt x="480" y="0" on="0"/>
        <pt x="475" y="6" on="0"/>
        <pt x="477" y="15" on="1"/>
        <pt x="487" y="59" on="1"/>
        <pt x="416" y="-12" on="0"/>
        <pt x="178" y="-12" on="0"/>
        <pt x="48" y="140" on="0"/>
        <pt x="48" y="381" on="0"/>
        <pt x="133" y="576" on="0"/>
        <pt x="299" y="696" on="0"/>
        <pt x="407" y="696" on="1"/>
        <pt x="532" y="696" on="0"/>
        <pt x="584" y="619" on="1"/>
        <pt x="591" y="664" on="1"/>
        <pt x="592" y="673" on="0"/>
        <pt x="600" y="679" on="0"/>
        <pt x="610" y="679" on="1"/>
      </contour>
      <contour>
        <pt x="552" y="418" on="1"/>
        <pt x="552" y="507" on="0"/>
        <pt x="480" y="609" on="0"/>
        <pt x="338" y="609" on="0"/>
        <pt x="240" y="545" on="0"/>
        <pt x="216" y="492" on="1"/>
        <pt x="171" y="394" on="0"/>
        <pt x="171" y="279" on="1"/>
        <pt x="171" y="82" on="0"/>
        <pt x="317" y="82" on="1"/>
        <pt x="384" y="82" on="0"/>
        <pt x="480" y="144" on="0"/>
        <pt x="505" y="196" on="1"/>
        <pt x="552" y="294" on="0"/>
      </contour>
    </TTGlyph>
    <TTGlyph name="Oacute" xMin="48" yMin="-12" xMax="678" yMax="858">
      <contour>
        <pt x="678" y="426" on="1"/>
        <pt x="678" y="241" on="0"/>
        <pt x="471" y="-12" on="0"/>
        <pt x="296" y="-12" on="1"/>
        <pt x="179" y="-12" on="0"/>
        <pt x="48" y="133" on="0"/>
        <pt x="48" y="373" on="0"/>
        <pt x="134" y="571" on="0"/>
        <pt x="307" y="696" on="0"/>
        <pt x="421" y="696" on="1"/>
        <pt x="494" y="696" on="0"/>
        <pt x="556" y="664" on="1"/>
        <pt x="592" y="645" on="0"/>
        <pt x="644" y="587" on="0"/>
        <pt x="678" y="489" on="0"/>
      </contour>
      <contour>
        <pt x="405" y="608" on="1"/>
        <pt x="312" y="608" on="0"/>
        <pt x="207" y="491" on="0"/>
        <pt x="190" y="416" on="1"/>
        <pt x="171" y="340" on="0"/>
        <pt x="171" y="190" on="0"/>
        <pt x="238" y="82" on="0"/>
        <pt x="317" y="82" on="1"/>
        <pt x="371" y="82" on="0"/>
        <pt x="455" y="127" on="0"/>
        <pt x="506" y="196" on="0"/>
        <pt x="523" y="242" on="1"/>
        <pt x="552" y="320" on="0"/>
        <pt x="552" y="414" on="1"/>
        <pt x="552" y="608" on="0"/>
      </contour>
      <contour>
        <pt x="376" y="746" on="1"/>
        <pt x="438" y="844" on="1"/>
        <pt x="446" y="858" on="0"/>
        <pt x="462" y="858" on="1"/>
        <pt x="543" y="858" on="1"/>
        <pt x="551" y="858" on="0"/>
        <pt x="551" y="851" on="0"/>
        <pt x="546" y="846" on="1"/>
        <pt x="459" y="744" on="1"/>
        <pt x="448" y="732" on="0"/>
        <pt x="433" y="732" on="1"/>
        <pt x="382" y="732" on="1"/>
        <pt x="373" y="732" on="0"/>
        <pt x="373" y="741" on="0"/>
      </contour>
    </TTGlyph>
    <TTGlyph name="Obreve" xMin="48" yMin="-12" xMax="678" yMax="872">
      <contour>
        <pt x="678" y="426" on="1"/>
        <pt x="678" y="241" on="0"/>
        <pt x="471" y="-12" on="0"/>
        <pt x="296" y="-12" on="1"/>
        <pt x="179" y="-12" on="0"/>
        <pt x="48" y="133" on="0"/>
        <pt x="48" y="373" on="0"/>
        <pt x="134" y="571" on="0"/>
        <pt x="307" y="696" on="0"/>
        <pt x="421" y="696" on="1"/>
        <pt x="494" y="696" on="0"/>
        <pt x="556" y="664" on="1"/>
        <pt x="592" y="645" on="0"/>
        <pt x="644" y="587" on="0"/>
        <pt x="678" y="489" on="0"/>
      </contour>
      <contour>
        <pt x="552" y="418" on="1"/>
        <pt x="552" y="507" on="0"/>
        <pt x="480" y="608" on="0"/>
        <pt x="405" y="608" on="1"/>
        <pt x="312" y="608" on="0"/>
        <pt x="260" y="550" on="1"/>
        <pt x="235" y="522" on="0"/>
        <pt x="199" y="456" on="0"/>
        <pt x="171" y="340" on="0"/>
        <pt x="171" y="270" on="1"/>
        <pt x="171" y="190" on="0"/>
        <pt x="238" y="82" on="0"/>
        <pt x="317" y="82" on="1"/>
        <pt x="371" y="82" on="0"/>
        <pt x="455" y="127" on="0"/>
        <pt x="480" y="162" on="1"/>
        <pt x="552" y="258" on="0"/>
      </contour>
      <contour>
        <pt x="617" y="872" on="1"/>
        <pt x="630" y="872" on="0"/>
        <pt x="630" y="864" on="1"/>
        <pt x="630" y="861" on="0"/>
        <pt x="629" y="857" on="1"/>
        <pt x="605" y="735" on="0"/>
        <pt x="450" y="735" on="1"/>
        <pt x="377" y="735" on="0"/>
        <pt x="300" y="789" on="0"/>
        <pt x="300" y="839" on="1"/>
        <pt x="300" y="863" on="0"/>
        <pt x="309" y="872" on="0"/>
        <pt x="319" y="872" on="1"/>
        <pt x="349" y="872" on="1"/>
        <pt x="358" y="872" on="0"/>
        <pt x="364" y="866" on="0"/>
        <pt x="365" y="856" on="1"/>
        <pt x="366" y="830" on="0"/>
        <pt x="412" y="811" on="0"/>
        <pt x="461" y="811" on="1"/>
        <pt x="547" y="811" on="0"/>
        <pt x="566" y="857" on="1"/>
        <pt x="572" y="872" on="0"/>
        <pt x="588" y="872" on="1"/>
      </contour>
    </TTGlyph>
    <TTGlyph name="Ocircumflex" xMin="48" yMin="-12" xMax="678" yMax="863">
      <contour>
        <pt x="678" y="426" on="1"/>
        <pt x="678" y="241" on="0"/>
        <pt x="471" y="-12" on="0"/>
        <pt x="296" y="-12" on="1"/>
        <pt x="179" y="-12" on="0"/>
        <pt x="48" y="133" on="0"/>
        <pt x="48" y="373" on="0"/>
        <pt x="134" y="571" on="0"/>
        <pt x="307" y="696" on="0"/>
        <pt x="421" y="696" on="1"/>
        <pt x="494" y="696" on="0"/>
        <pt x="556" y="664" on="1"/>
        <pt x="592" y="645" on="0"/>
        <pt x="644" y="587" on="0"/>
        <pt x="678" y="489" on="0"/>
      </contour>
      <contour>
        <pt x="405" y="608" on="1"/>
        <pt x="312" y="608" on="0"/>
        <pt x="207" y="491" on="0"/>
        <pt x="190" y="416" on="1"/>
        <pt x="171" y="340" on="0"/>
        <pt x="171" y="190" on="0"/>
        <pt x="238" y="82" on="0"/>
        <pt x="317" y="82" on="1"/>
        <pt x="371" y="82" on="0"/>
        <pt x="455" y="127" on="0"/>
        <pt x="506" y="196" on="0"/>
        <pt x="523" y="242" on="1"/>
        <pt x="552" y="320" on="0"/>
        <pt x="552" y="414" on="1"/>
        <pt x="552" y="608" on="0"/>
      </contour>
      <contour>
        <pt x="361" y="732" on="1"/>
        <pt x="298" y="732" on="1"/>
        <pt x="290" y="732" on="0"/>
        <pt x="290" y="739" on="0"/>
        <pt x="294" y="744" on="1"/>
        <pt x="395" y="851" on="1"/>
        <pt x="406" y="863" on="0"/>
        <pt x="421" y="863" on="1"/>
        <pt x="497" y="863" on="1"/>
        <pt x="512" y="863" on="0"/>
        <pt x="519" y="851" on="1"/>
        <pt x="582" y="744" on="1"/>
        <pt x="585" y="740" on="0"/>
        <pt x="585" y="732" on="0"/>
        <pt x="574" y="732" on="1"/>
        <pt x="522" y="732" on="1"/>
        <pt x="506" y="732" on="0"/>
        <pt x="499" y="744" on="1"/>
        <pt x="454" y="815" on="1"/>
        <pt x="387" y="744" on="1"/>
        <pt x="376" y="732" on="0"/>
      </contour>
    </TTGlyph>
    <TTGlyph name="Odieresis" xMin="48" yMin="-12" xMax="678" yMax="860">
      <contour>
        <pt x="678" y="426" on="1"/>
        <pt x="678" y="241" on="0"/>
        <pt x="471" y="-12" on="0"/>
        <pt x="296" y="-12" on="1"/>
        <pt x="179" y="-12" on="0"/>
        <pt x="48" y="133" on="0"/>
        <pt x="48" y="373" on="0"/>
        <pt x="134" y="571" on="0"/>
        <pt x="307" y="696" on="0"/>
        <pt x="421" y="696" on="1"/>
        <pt x="494" y="696" on="0"/>
        <pt x="556" y="664" on="1"/>
        <pt x="592" y="645" on="0"/>
        <pt x="644" y="587" on="0"/>
        <pt x="678" y="489" on="0"/>
      </contour>
      <contour>
        <pt x="552" y="418" on="1"/>
        <pt x="552" y="507" on="0"/>
        <pt x="480" y="608" on="0"/>
        <pt x="405" y="608" on="1"/>
        <pt x="312" y="608" on="0"/>
        <pt x="260" y="550" on="1"/>
        <pt x="235" y="522" on="0"/>
        <pt x="199" y="456" on="0"/>
        <pt x="171" y="340" on="0"/>
        <pt x="171" y="270" on="1"/>
        <pt x="171" y="190" on="0"/>
        <pt x="238" y="82" on="0"/>
        <pt x="317" y="82" on="1"/>
        <pt x="371" y="82" on="0"/>
        <pt x="455" y="127" on="0"/>
        <pt x="480" y="162" on="1"/>
        <pt x="552" y="258" on="0"/>
      </contour>
      <contour>
        <pt x="615" y="779" on="0"/>
        <pt x="576" y="738" on="0"/>
        <pt x="520" y="738" on="0"/>
        <pt x="489" y="768" on="0"/>
        <pt x="489" y="822" on="0"/>
        <pt x="528" y="860" on="0"/>
        <pt x="585" y="860" on="0"/>
        <pt x="615" y="833" on="0"/>
      </contour>
      <contour>
        <pt x="412" y="779" on="0"/>
        <pt x="373" y="738" on="0"/>
        <pt x="317" y="738" on="0"/>
        <pt x="286" y="768" on="0"/>
        <pt x="286" y="822" on="0"/>
        <pt x="324" y="860" on="0"/>
        <pt x="382" y="860" on="0"/>
        <pt x="412" y="833" on="0"/>
      </contour>
    </TTGlyph>
    <TTGlyph name="Ograve" xMin="48" yMin="-12" xMax="678" yMax="858">
      <contour>
        <pt x="678" y="426" on="1"/>
        <pt x="678" y="241" on="0"/>
        <pt x="471" y="-12" on="0"/>
        <pt x="296" y="-12" on="1"/>
        <pt x="179" y="-12" on="0"/>
        <pt x="48" y="133" on="0"/>
        <pt x="48" y="373" on="0"/>
        <pt x="134" y="571" on="0"/>
        <pt x="307" y="696" on="0"/>
        <pt x="421" y="696" on="1"/>
        <pt x="494" y="696" on="0"/>
        <pt x="556" y="664" on="1"/>
        <pt x="592" y="645" on="0"/>
        <pt x="644" y="587" on="0"/>
        <pt x="678" y="489" on="0"/>
      </contour>
      <contour>
        <pt x="552" y="418" on="1"/>
        <pt x="552" y="507" on="0"/>
        <pt x="480" y="608" on="0"/>
        <pt x="405" y="608" on="1"/>
        <pt x="312" y="608" on="0"/>
        <pt x="260" y="550" on="1"/>
        <pt x="235" y="522" on="0"/>
        <pt x="199" y="456" on="0"/>
        <pt x="171" y="340" on="0"/>
        <pt x="171" y="270" on="1"/>
        <pt x="171" y="190" on="0"/>
        <pt x="238" y="82" on="0"/>
        <pt x="317" y="82" on="1"/>
        <pt x="371" y="82" on="0"/>
        <pt x="455" y="127" on="0"/>
        <pt x="480" y="162" on="1"/>
        <pt x="552" y="258" on="0"/>
      </contour>
      <contour>
        <pt x="484" y="740" on="1"/>
        <pt x="484" y="732" on="0"/>
        <pt x="471" y="732" on="1"/>
        <pt x="435" y="732" on="1"/>
        <pt x="420" y="732" on="0"/>
        <pt x="412" y="746" on="1"/>
        <pt x="362" y="844" on="1"/>
        <pt x="360" y="848" on="0"/>
        <pt x="360" y="851" on="1"/>
        <pt x="360" y="858" on="0"/>
        <pt x="371" y="858" on="1"/>
        <pt x="437" y="858" on="1"/>
        <pt x="453" y="858" on="0"/>
        <pt x="457" y="843" on="1"/>
        <pt x="483" y="747" on="1"/>
        <pt x="484" y="742" on="0"/>
      </contour>
    </TTGlyph>
    <TTGlyph name="Ohungarumlaut" xMin="48" yMin="-12" xMax="678" yMax="858">
      <contour>
        <pt x="678" y="426" on="1"/>
        <pt x="678" y="241" on="0"/>
        <pt x="471" y="-12" on="0"/>
        <pt x="296" y="-12" on="1"/>
        <pt x="179" y="-12" on="0"/>
        <pt x="48" y="133" on="0"/>
        <pt x="48" y="373" on="0"/>
        <pt x="134" y="571" on="0"/>
        <pt x="307" y="696" on="0"/>
        <pt x="421" y="696" on="1"/>
        <pt x="494" y="696" on="0"/>
        <pt x="556" y="664" on="1"/>
        <pt x="592" y="645" on="0"/>
        <pt x="644" y="587" on="0"/>
        <pt x="678" y="489" on="0"/>
      </contour>
      <contour>
        <pt x="405" y="608" on="1"/>
        <pt x="312" y="608" on="0"/>
        <pt x="207" y="491" on="0"/>
        <pt x="190" y="416" on="1"/>
        <pt x="171" y="340" on="0"/>
        <pt x="171" y="190" on="0"/>
        <pt x="238" y="82" on="0"/>
        <pt x="317" y="82" on="1"/>
        <pt x="371" y="82" on="0"/>
        <pt x="455" y="127" on="0"/>
        <pt x="506" y="196" on="0"/>
        <pt x="523" y="242" on="1"/>
        <pt x="552" y="320" on="0"/>
        <pt x="552" y="414" on="1"/>
        <pt x="552" y="608" on="0"/>
      </contour>
      <contour>
        <pt x="482" y="746" on="1"/>
        <pt x="544" y="844" on="1"/>
        <pt x="552" y="858" on="0"/>
        <pt x="568" y="858" on="1"/>
        <pt x="640" y="858" on="1"/>
        <pt x="648" y="858" on="0"/>
        <pt x="648" y="851" on="0"/>
        <pt x="643" y="846" on="1"/>
        <pt x="556" y="744" on="1"/>
        <pt x="546" y="732" on="0"/>
        <pt x="530" y="732" on="1"/>
        <pt x="488" y="732" on="1"/>
        <pt x="474" y="732" on="0"/>
      </contour>
      <contour>
        <pt x="339" y="746" on="1"/>
        <pt x="401" y="844" on="1"/>
        <pt x="409" y="858" on="0"/>
        <pt x="425" y="858" on="1"/>
        <pt x="498" y="858" on="1"/>
        <pt x="506" y="858" on="0"/>
        <pt x="506" y="851" on="0"/>
        <pt x="501" y="846" on="1"/>
        <pt x="414" y="744" on="1"/>
        <pt x="404" y="732" on="0"/>
        <pt x="388" y="732" on="1"/>
        <pt x="345" y="732" on="1"/>
        <pt x="336" y="732" on="0"/>
        <pt x="336" y="741" on="0"/>
      </contour>
    </TTGlyph>
    <TTGlyph name="Omacron" xMin="48" yMin="-12" xMax="678" yMax="841">
      <contour>
        <pt x="678" y="426" on="1"/>
        <pt x="678" y="241" on="0"/>
        <pt x="471" y="-12" on="0"/>
        <pt x="296" y="-12" on="1"/>
        <pt x="179" y="-12" on="0"/>
        <pt x="48" y="133" on="0"/>
        <pt x="48" y="373" on="0"/>
        <pt x="134" y="571" on="0"/>
        <pt x="307" y="696" on="0"/>
        <pt x="421" y="696" on="1"/>
        <pt x="494" y="696" on="0"/>
        <pt x="556" y="664" on="1"/>
        <pt x="592" y="645" on="0"/>
        <pt x="644" y="587" on="0"/>
        <pt x="678" y="489" on="0"/>
      </contour>
      <contour>
        <pt x="552" y="418" on="1"/>
        <pt x="552" y="507" on="0"/>
        <pt x="480" y="608" on="0"/>
        <pt x="405" y="608" on="1"/>
        <pt x="312" y="608" on="0"/>
        <pt x="260" y="550" on="1"/>
        <pt x="235" y="522" on="0"/>
        <pt x="199" y="456" on="0"/>
        <pt x="171" y="340" on="0"/>
        <pt x="171" y="270" on="1"/>
        <pt x="171" y="190" on="0"/>
        <pt x="238" y="82" on="0"/>
        <pt x="317" y="82" on="1"/>
        <pt x="371" y="82" on="0"/>
        <pt x="455" y="127" on="0"/>
        <pt x="480" y="162" on="1"/>
        <pt x="552" y="258" on="0"/>
      </contour>
      <contour>
        <pt x="591" y="841" on="1"/>
        <pt x="605" y="841" on="0"/>
        <pt x="605" y="833" on="1"/>
        <pt x="605" y="830" on="0"/>
        <pt x="604" y="826" on="1"/>
        <pt x="596" y="775" on="1"/>
        <pt x="594" y="766" on="0"/>
        <pt x="587" y="760" on="0"/>
        <pt x="577" y="760" on="1"/>
        <pt x="311" y="760" on="1"/>
        <pt x="297" y="760" on="0"/>
        <pt x="297" y="768" on="1"/>
        <pt x="297" y="771" on="0"/>
        <pt x="298" y="775" on="1"/>
        <pt x="306" y="826" on="1"/>
        <pt x="308" y="835" on="0"/>
        <pt x="315" y="841" on="0"/>
        <pt x="325" y="841" on="1"/>
      </contour>
    </TTGlyph>
    <TTGlyph name="Omega" xMin="72" yMin="0" xMax="721" yMax="697">
      <contour>
        <pt x="344" y="79" on="1"/>
        <pt x="359" y="73" on="0"/>
        <pt x="359" y="59" on="1"/>
        <pt x="359" y="15" on="1"/>
        <pt x="359" y="0" on="0"/>
        <pt x="344" y="0" on="1"/>
        <pt x="87" y="0" on="1"/>
        <pt x="72" y="0" on="0"/>
        <pt x="72" y="15" on="1"/>
        <pt x="72" y="64" on="1"/>
        <pt x="72" y="79" on="0"/>
        <pt x="87" y="79" on="1"/>
        <pt x="218" y="79" on="1"/>
        <pt x="158" y="119" on="0"/>
        <pt x="86" y="265" on="0"/>
        <pt x="86" y="350" on="1"/>
        <pt x="86" y="512" on="0"/>
        <pt x="259" y="697" on="0"/>
        <pt x="531" y="697" on="0"/>
        <pt x="693" y="519" on="0"/>
        <pt x="693" y="363" on="1"/>
        <pt x="693" y="275" on="0"/>
        <pt x="621" y="124" on="0"/>
        <pt x="560" y="79" on="1"/>
        <pt x="706" y="79" on="1"/>
        <pt x="721" y="79" on="0"/>
        <pt x="721" y="64" on="1"/>
        <pt x="721" y="15" on="1"/>
        <pt x="721" y="0" on="0"/>
        <pt x="706" y="0" on="1"/>
        <pt x="449" y="0" on="1"/>
        <pt x="434" y="0" on="0"/>
        <pt x="434" y="15" on="1"/>
        <pt x="434" y="59" on="1"/>
        <pt x="434" y="70" on="0"/>
        <pt x="447" y="78" on="1"/>
        <pt x="509" y="117" on="0"/>
        <pt x="577" y="243" on="0"/>
        <pt x="577" y="352" on="1"/>
        <pt x="577" y="608" on="0"/>
        <pt x="390" y="608" on="1"/>
        <pt x="301" y="608" on="0"/>
        <pt x="202" y="481" on="0"/>
        <pt x="202" y="347" on="1"/>
        <pt x="202" y="248" on="0"/>
        <pt x="283" y="103" on="0"/>
      </contour>
    </TTGlyph>
</ttFont>
